<svg width="63" height="63" viewBox="0 0 63 63" fill="none" xmlns="http://www.w3.org/2000/svg">
<path d="M31.27 62.54C22.92 62.54 15.06 59.29 9.16 53.38C3.25 47.47 0 39.62 0 31.27C0 22.92 3.25 15.06 9.16 9.16C15.07 3.25 22.92 0 31.27 0C31.61 0 31.89 0.279995 31.89 0.619995C31.89 0.959995 31.61 1.23999 31.27 1.23999C23.25 1.23999 15.7 4.35999 10.03 10.04C4.36 15.72 1.23 23.25 1.23 31.28C1.23 39.31 4.35 46.84 10.03 52.52C15.7 58.19 23.25 61.32 31.27 61.32C39.29 61.32 46.84 58.2 52.51 52.52C58.18 46.85 61.31 39.31 61.31 31.28C61.31 25.65 59.74 20.17 56.78 15.41C53.9 10.79 49.82 7.02999 44.98 4.53999C44.68 4.37999 44.56 4.00999 44.71 3.70999C44.87 3.40999 45.24 3.29 45.54 3.44C50.58 6.03 54.82 9.94 57.83 14.75C60.91 19.7 62.54 25.41 62.54 31.27C62.54 39.62 59.29 47.48 53.38 53.38C47.47 59.29 39.62 62.54 31.27 62.54Z" fill="#1E2248"/>
<path d="M27.73 15.3707C27.07 15.3707 26.53 14.8307 26.53 14.1707C26.53 13.5107 27.07 12.9707 27.73 12.9707H52.04C52.7 12.9707 53.24 13.5107 53.24 14.1707C53.24 14.8307 52.7 15.3707 52.04 15.3707H27.73Z" fill="#1E2248"/>
<path d="M27.73 20.0211C27.07 20.0211 26.53 19.4811 26.53 18.8211C26.53 18.1611 27.07 17.6211 27.73 17.6211H38.43C39.09 17.6211 39.63 18.1611 39.63 18.8211C39.63 19.4811 39.09 20.0211 38.43 20.0211H27.73Z" fill="#1E2248"/>
<path d="M27.73 30.1402C27.07 30.1402 26.53 29.6002 26.53 28.9402C26.53 28.2802 27.07 27.7402 27.73 27.7402H52.04C52.7 27.7402 53.24 28.2802 53.24 28.9402C53.24 29.6002 52.7 30.1402 52.04 30.1402H27.73Z" fill="#1E2248"/>
<path d="M27.73 44.9215C27.07 44.9215 26.53 44.3815 26.53 43.7215C26.53 43.0615 27.07 42.5215 27.73 42.5215H52.04C52.7 42.5215 53.24 43.0615 53.24 43.7215C53.24 44.3815 52.7 44.9215 52.04 44.9215H27.73Z" fill="#1E2248"/>
<path d="M27.73 49.5699C27.07 49.5699 26.53 49.0299 26.53 48.3699C26.53 47.7099 27.07 47.1699 27.73 47.1699H38.43C39.09 47.1699 39.63 47.7099 39.63 48.3699C39.63 49.0299 39.09 49.5699 38.43 49.5699H27.73Z" fill="#1E2248"/>
<path d="M10.07 17.1802C9.76001 16.8602 9.78001 16.3502 10.1 16.0502C10.7 15.4802 13.25 16.8702 14.09 17.1902C16.92 11.0002 28.1 8.04017 25.37 10.5302C23.15 11.7202 21.11 13.2502 19.36 15.0502C17.68 16.7902 16.27 18.7902 15.24 21.0002C15.2 21.0902 15.14 21.1702 15.06 21.2502C14.74 21.5602 14.23 21.5402 13.93 21.2202L10.08 17.1802H10.07Z" fill="#1267FE"/>
<path d="M8.25995 31.77C7.94995 31.45 7.96995 30.94 8.28995 30.64C8.88995 30.07 11.44 31.46 12.28 31.78C15.11 25.59 26.29 22.63 23.56 25.12C21.34 26.31 19.3 27.84 17.55 29.64C15.87 31.38 14.46 33.38 13.43 35.59C13.39 35.68 13.33 35.76 13.25 35.84C12.93 36.15 12.42 36.13 12.12 35.81L8.26995 31.77H8.25995Z" fill="#1267FE"/>
<path d="M8.9599 44.9614C8.6499 44.6414 8.6699 44.1314 8.9899 43.8314C9.5899 43.2614 12.1399 44.6514 12.9799 44.9714C15.8099 38.7814 26.9899 35.8214 24.2599 38.3114C22.0399 39.5014 19.9999 41.0314 18.2499 42.8314C16.5699 44.5714 15.1599 46.5714 14.1299 48.7814C14.0899 48.8714 14.0299 48.9514 13.9499 49.0314C13.6299 49.3414 13.1199 49.3214 12.8199 49.0014L8.9699 44.9614H8.9599Z" fill="#1267FE"/>
<path d="M27.73 34.9605C27.07 34.9605 26.53 34.4205 26.53 33.7605C26.53 33.1005 27.07 32.5605 27.73 32.5605H38.43C39.09 32.5605 39.63 33.1005 39.63 33.7605C39.63 34.4205 39.09 34.9605 38.43 34.9605H27.73Z" fill="#1E2248"/>
</svg>
