<svg width="63" height="63" viewBox="0 0 63 63" fill="none" xmlns="http://www.w3.org/2000/svg">
<path fill-rule="evenodd" clip-rule="evenodd" d="M7.88997 18.1699H31.98C31.37 19.0499 30.86 19.9999 30.45 20.9799C29.69 22.8099 29.29 24.7999 29.29 26.8399C29.29 28.8799 29.69 30.8599 30.45 32.6999C31.21 34.5299 32.33 36.2199 33.77 37.6599C35.21 39.0999 36.9 40.2199 38.73 40.9799C39.34 41.2299 39.96 41.4399 40.6 41.6199V58.1499C40.6 58.8199 40.42 59.4499 40.1 59.9899C37.27 60.8599 34.3 61.2999 31.26 61.2999C23.24 61.2999 15.69 58.1799 10.02 52.4999C7.60997 50.0899 5.64996 47.3299 4.20996 44.3499V21.8399C4.20996 19.8199 5.85997 18.1699 7.87997 18.1699" fill="#1267FE"/>
<path d="M16.78 58.1112H30.76C32.13 58.1112 33.26 59.1912 33.34 60.5412H36.29C37.2 60.5412 38.03 60.1712 38.62 59.5712C39.22 58.9712 39.59 58.1412 39.59 57.2412V40.9212C40.08 41.0812 40.58 41.2212 41.1 41.3312V57.2412C41.1 58.5312 40.58 59.7112 39.74 60.5812C37.05 61.3612 34.21 61.7712 31.26 61.7712C26.01 61.7712 21.08 60.4412 16.76 58.1112M8.52997 17.4512H33.11C32.7 17.9312 32.32 18.4312 31.97 18.9612H8.52997C7.61997 18.9612 6.79997 19.3312 6.19997 19.9312C5.59997 20.5312 5.22997 21.3612 5.22997 22.2612V47.1712C4.67997 46.2812 4.17997 45.3512 3.71997 44.4012V22.2612C3.71997 20.9412 4.25997 19.7312 5.12997 18.8612C5.99997 17.9912 7.20997 17.4512 8.52997 17.4512Z" fill="#1E2248"/>
<path d="M11.13 22.76H30.2C30.05 23.25 29.93 23.75 29.83 24.27H11.13C11.13 24.27 11.07 24.28 11.05 24.31C11.03 24.33 11.01 24.36 11.01 24.39V30.35C11.01 30.35 11.02 30.41 11.05 30.43C11.07 30.45 11.1 30.46 11.13 30.46H29.98C30.1 30.97 30.25 31.48 30.43 31.97H11.12C10.67 31.97 10.27 31.79 9.96999 31.49C9.67999 31.2 9.48999 30.79 9.48999 30.34V24.38C9.48999 23.93 9.66999 23.53 9.96999 23.23C10.26 22.94 10.67 22.75 11.12 22.75" fill="white"/>
<path d="M18.15 27.9709C18.89 27.9709 19.18 27.0209 18.58 26.6009C18.45 26.5109 18.31 26.4709 18.15 26.4709H15.14C14.4 26.4709 14.11 27.4209 14.71 27.8409C14.84 27.9309 14.98 27.9709 15.14 27.9709H18.15ZM24.17 27.9709C24.91 27.9709 25.2 27.0209 24.6 26.6009C24.47 26.5109 24.33 26.4709 24.17 26.4709H21.16C20.42 26.4709 20.13 27.4209 20.73 27.8409C20.86 27.9309 21 27.9709 21.16 27.9709H24.17ZM29.58 26.4609H27.18C26.44 26.4609 26.15 27.4109 26.75 27.8309C26.88 27.9209 27.02 27.9609 27.18 27.9609H29.6C29.58 27.6509 29.57 27.3309 29.57 27.0109C29.57 26.8209 29.57 26.6409 29.58 26.4609Z" fill="white"/>
<path d="M14.37 37.7209H10.04V41.3909H14.37V37.7209ZM9.87003 36.2109H14.53C14.9 36.2109 15.23 36.3609 15.48 36.6009C15.72 36.8409 15.87 37.1809 15.87 37.5509V41.5609C15.87 41.9309 15.72 42.2609 15.48 42.5109C15.24 42.7509 14.9 42.9009 14.53 42.9009H9.87003C9.50003 42.9009 9.17003 42.7509 8.92003 42.5109C8.68003 42.2709 8.53003 41.9309 8.53003 41.5609V37.5509C8.53003 37.1809 8.68003 36.8509 8.92003 36.6009C9.16003 36.3609 9.50003 36.2109 9.87003 36.2109Z" fill="white"/>
<path d="M24.59 37.7209H20.26V41.3909H24.59V37.7209ZM20.1 36.2109H24.76C25.13 36.2109 25.46 36.3609 25.71 36.6009C25.95 36.8409 26.1 37.1809 26.1 37.5509V41.5609C26.1 41.9309 25.95 42.2609 25.71 42.5109C25.47 42.7509 25.13 42.9009 24.76 42.9009H20.1C19.73 42.9009 19.4 42.7509 19.15 42.5109C18.91 42.2709 18.76 41.9309 18.76 41.5609V37.5509C18.76 37.1809 18.91 36.8509 19.15 36.6009C19.39 36.3609 19.73 36.2109 20.1 36.2109Z" fill="white"/>
<path d="M14.37 47.1897H10.04V50.8597H14.37V47.1897ZM9.87003 45.6797H14.53C14.9 45.6797 15.23 45.8297 15.48 46.0697C15.72 46.3097 15.87 46.6497 15.87 47.0197V51.0297C15.87 51.3997 15.72 51.7297 15.48 51.9797C15.24 52.2197 14.9 52.3697 14.53 52.3697H9.87003C9.50003 52.3697 9.17003 52.2197 8.92003 51.9797C8.68003 51.7397 8.53003 51.3997 8.53003 51.0297V47.0197C8.53003 46.6497 8.68003 46.3197 8.92003 46.0697C9.16003 45.8297 9.50003 45.6797 9.87003 45.6797Z" fill="white"/>
<path d="M24.59 47.1897H20.26V50.8597H24.59V47.1897ZM20.1 45.6797H24.76C25.13 45.6797 25.46 45.8297 25.71 46.0697C25.96 46.3097 26.1 46.6497 26.1 47.0197V51.0297C26.1 51.3997 25.95 51.7297 25.71 51.9797C25.47 52.2197 25.13 52.3697 24.76 52.3697H20.1C19.73 52.3697 19.4 52.2197 19.15 51.9797C18.91 51.7397 18.76 51.3997 18.76 51.0297V47.0197C18.76 46.6497 18.91 46.3197 19.15 46.0697C19.39 45.8297 19.73 45.6797 20.1 45.6797Z" fill="white"/>
<path d="M30.31 36.2209H32.83C33.26 36.7509 33.73 37.2609 34.23 37.7309H30.47V41.4009H34.8V38.2309C35.28 38.6309 35.78 39.0009 36.31 39.3409V41.5609C36.31 41.9309 36.16 42.2609 35.92 42.5109C35.68 42.7509 35.34 42.9009 34.97 42.9009H30.31C29.94 42.9009 29.61 42.7509 29.36 42.5109C29.12 42.2709 28.97 41.9309 28.97 41.5609V37.5509C28.97 37.1809 29.12 36.8509 29.36 36.6009C29.6 36.3609 29.94 36.2109 30.31 36.2109" fill="white"/>
<path d="M34.8 47.1897H30.47V50.8597H34.8V47.1897ZM30.31 45.6797H34.97C35.34 45.6797 35.67 45.8297 35.92 46.0697C36.16 46.3097 36.31 46.6497 36.31 47.0197V51.0297C36.31 51.3997 36.16 51.7297 35.92 51.9797C35.68 52.2197 35.34 52.3697 34.97 52.3697H30.31C29.94 52.3697 29.61 52.2197 29.36 51.9797C29.12 51.7397 28.97 51.3997 28.97 51.0297V47.0197C28.97 46.6497 29.12 46.3197 29.36 46.0697C29.6 45.8297 29.94 45.6797 30.31 45.6797Z" fill="white"/>
<path d="M39.33 2.30038C39.28 2.30038 39.22 2.30038 39.17 2.28038C38.15 2.00038 37.1 1.78038 36.06 1.61038C35.72 1.56038 35.49 1.24038 35.55 0.900379C35.6 0.560379 35.92 0.330379 36.26 0.390379C37.35 0.560379 38.44 0.800379 39.5 1.09038C39.83 1.18038 40.03 1.52038 39.94 1.85038C39.86 2.13038 39.62 2.31038 39.34 2.31038" fill="#1E2248"/>
<path d="M42.3298 24.9707H43.3698C44.4298 24.9707 45.1498 24.8307 45.5498 24.5607C45.9498 24.2807 46.1498 23.8307 46.1498 23.1907C46.1498 22.8107 46.0498 22.4907 45.8498 22.2107C45.6498 21.9307 45.3898 21.7307 45.0598 21.6107C44.7298 21.4907 44.1198 21.4307 43.2398 21.4307H42.3298V24.9807V24.9707ZM39.0698 18.2307H42.5498C44.4498 18.2307 45.8098 18.4007 46.6198 18.7407C47.4298 19.0807 48.0798 19.6507 48.5698 20.4407C49.0598 21.2307 49.3098 22.1607 49.3098 23.2407C49.3098 24.3207 49.0398 25.3207 48.4998 26.0807C47.9598 26.8407 47.1398 27.4207 46.0498 27.8107L50.1198 35.4707H46.5398L42.6698 28.1707H42.3398V35.4707H39.0798V18.2207L39.0698 18.2307Z" fill="white"/>
<path d="M31.27 62.54C22.92 62.54 15.06 59.29 9.16 53.38C3.25 47.47 0 39.62 0 31.27C0 22.92 3.25 15.06 9.16 9.16C15.07 3.25 22.92 0 31.27 0C31.61 0 31.89 0.28 31.89 0.62C31.89 0.96 31.61 1.24 31.27 1.24C23.25 1.24 15.7 4.36 10.03 10.04C4.36 15.71 1.23 23.25 1.23 31.28C1.23 39.31 4.35 46.84 10.03 52.52C15.7 58.19 23.25 61.32 31.27 61.32C39.29 61.32 46.84 58.2 52.51 52.52C58.18 46.85 61.31 39.31 61.31 31.28C61.31 25.65 59.74 20.17 56.78 15.41C53.9 10.79 49.82 7.03 44.98 4.54C44.68 4.38 44.56 4.01 44.71 3.71C44.87 3.41 45.24 3.29 45.54 3.44C50.58 6.03 54.82 9.94 57.83 14.75C60.91 19.7 62.54 25.41 62.54 31.27C62.54 39.62 59.29 47.48 53.38 53.38C47.47 59.29 39.62 62.54 31.27 62.54Z" fill="#1E2248"/>
<path d="M43.1298 2.63961C43.1298 3.06961 42.7798 3.42961 42.3398 3.42961C41.8998 3.42961 41.5498 3.07961 41.5498 2.63961C41.5498 2.19961 41.8998 1.84961 42.3398 1.84961C42.7798 1.84961 43.1298 2.19961 43.1298 2.63961Z" fill="#1E2248"/>
<path d="M43.28 25.4712H42.16C41.8 25.4712 41.5201 25.1812 41.5201 24.8312V21.0212C41.5201 20.6612 41.81 20.3812 42.16 20.3812H43.14C43.62 20.3812 44.04 20.4012 44.4 20.4312C44.78 20.4712 45.09 20.5312 45.32 20.6212C45.56 20.7112 45.77 20.8212 45.96 20.9712C46.15 21.1212 46.32 21.2912 46.47 21.5012C46.61 21.7012 46.72 21.9112 46.79 22.1412V22.1712C46.87 22.4112 46.91 22.6612 46.91 22.9212C46.91 23.3512 46.84 23.7312 46.69 24.0612C46.54 24.4112 46.3101 24.6912 46.0201 24.9012L45.9901 24.9212C45.7001 25.1212 45.32 25.2712 44.84 25.3612C44.41 25.4412 43.89 25.4812 43.29 25.4812M42.82 24.1912H43.29C43.82 24.1912 44.26 24.1612 44.61 24.0912C44.91 24.0312 45.1301 23.9612 45.2701 23.8612H45.28C45.38 23.7712 45.47 23.6712 45.5201 23.5412C45.5901 23.3812 45.6301 23.1712 45.6301 22.9112C45.6301 22.7712 45.61 22.6412 45.58 22.5312V22.5112C45.54 22.4112 45.49 22.3112 45.43 22.2312C45.37 22.1412 45.29 22.0612 45.2 21.9912C45.11 21.9212 45 21.8612 44.89 21.8212C44.77 21.7712 44.57 21.7312 44.3 21.7112C44.01 21.6812 43.63 21.6712 43.16 21.6712H42.83V24.2012L42.82 24.1912ZM42.41 18.2412H39.31V35.4612H41.53V28.2712C41.53 27.9112 41.82 27.6312 42.17 27.6312H42.53C42.76 27.6312 42.98 27.7512 43.1 27.9712L47.08 35.4612H49.47L45.6 28.1812L45.56 28.0912C45.44 27.7512 45.62 27.3912 45.95 27.2712C46.48 27.0812 46.94 26.8512 47.33 26.5712C47.71 26.3012 48.0201 25.9912 48.2701 25.6412C48.5201 25.2912 48.7 24.9012 48.83 24.4612C48.96 24.0112 49.0201 23.5112 49.0201 22.9612C49.0201 22.4112 48.96 21.9512 48.84 21.5012C48.72 21.0612 48.55 20.6612 48.32 20.2912C48.09 19.9212 47.8301 19.6112 47.5201 19.3512C47.2301 19.1012 46.9 18.8912 46.55 18.7412H46.5201C46.14 18.5712 45.61 18.4512 44.95 18.3612C44.25 18.2712 43.4 18.2312 42.4 18.2312L42.41 18.2412ZM38.67 16.9512H42.41C43.46 16.9512 44.36 17.0012 45.12 17.0912C45.91 17.1912 46.55 17.3412 47.04 17.5512L47.07 17.5712C47.56 17.7812 48 18.0512 48.39 18.3912C48.79 18.7312 49.13 19.1512 49.43 19.6312C49.73 20.1112 49.95 20.6312 50.1 21.1912C50.25 21.7512 50.32 22.3412 50.32 22.9712C50.32 23.6412 50.24 24.2512 50.08 24.8212C49.91 25.4012 49.66 25.9212 49.33 26.3912C49 26.8612 48.58 27.2712 48.08 27.6212C47.78 27.8312 47.44 28.0312 47.08 28.2012L51.12 35.8012C51.29 36.1112 51.17 36.5012 50.85 36.6712C50.75 36.7212 50.65 36.7512 50.55 36.7512H46.7C46.44 36.7512 46.22 36.6012 46.12 36.3812L42.83 30.1812V36.1012C42.83 36.4612 42.54 36.7412 42.19 36.7412H38.68C38.32 36.7412 38.04 36.4512 38.04 36.1012V17.5912C38.04 17.2312 38.33 16.9512 38.68 16.9512H38.67Z" fill="#1E2248"/>
<path d="M50.5398 13.0593C50.5398 13.2293 50.4698 13.3893 50.3598 13.4993C50.2498 13.6093 50.0898 13.6793 49.9198 13.6793C49.7498 13.6793 49.5998 13.6093 49.4798 13.4993C49.3698 13.3893 49.2998 13.2293 49.2998 13.0593C49.2998 12.8893 49.3698 12.7293 49.4798 12.6193C49.5898 12.5093 49.7498 12.4393 49.9198 12.4393C50.0898 12.4393 50.2498 12.5093 50.3598 12.6193C50.4698 12.7293 50.5398 12.8893 50.5398 13.0593ZM44.5898 42.1293C42.5498 42.1293 40.5698 41.7293 38.7398 40.9693C36.9098 40.2093 35.2198 39.0893 33.7798 37.6493C32.3398 36.2093 31.2198 34.5193 30.4598 32.6893C29.6998 30.8593 29.2998 28.8693 29.2998 26.8293C29.2998 24.7893 29.6998 22.8093 30.4598 20.9693C31.2198 19.1393 32.3398 17.4493 33.7798 16.0093C35.2198 14.5693 36.9098 13.4493 38.7398 12.6893C40.5698 11.9293 42.5498 11.5293 44.5898 11.5293C44.7398 11.5293 44.8698 11.5893 44.9698 11.6893C45.0698 11.7893 45.1298 11.9193 45.1298 12.0693C45.1298 12.2193 45.0698 12.3493 44.9698 12.4493C44.8698 12.5493 44.7398 12.6093 44.5898 12.6093C42.6898 12.6093 40.8498 12.9793 39.1498 13.6793C37.4498 14.3793 35.8798 15.4293 34.5398 16.7693C33.1998 18.1093 32.1498 19.6793 31.4498 21.3793C30.7498 23.0793 30.3798 24.9193 30.3798 26.8193C30.3798 28.7193 30.7498 30.5593 31.4498 32.2693C32.1498 33.9693 33.1998 35.5293 34.5398 36.8793C35.8798 38.2193 37.4498 39.2693 39.1498 39.9693C40.8498 40.6693 42.6898 41.0393 44.5898 41.0393C46.4898 41.0393 48.3298 40.6693 50.0398 39.9693C51.7398 39.2693 53.3098 38.2193 54.6498 36.8793C55.9898 35.5393 57.0398 33.9693 57.7398 32.2693C58.4398 30.5693 58.8098 28.7293 58.8098 26.8193C58.8098 25.4893 58.6198 24.1693 58.2598 22.9093C57.8998 21.6493 57.3598 20.4293 56.6598 19.3093C55.9798 18.2193 55.1498 17.2193 54.2098 16.3593C53.2698 15.4893 52.2098 14.7493 51.0698 14.1693C50.9398 14.0993 50.8498 13.9893 50.7998 13.8593C50.7598 13.7293 50.7698 13.5793 50.8298 13.4493C50.8998 13.3093 51.0098 13.2193 51.1398 13.1793C51.2698 13.1393 51.4198 13.1493 51.5498 13.2093C52.7798 13.8393 53.9198 14.6393 54.9298 15.5693C55.9398 16.4993 56.8298 17.5693 57.5598 18.7493C58.3098 19.9593 58.8898 21.2593 59.2798 22.6193C59.6698 23.9793 59.8698 25.3993 59.8698 26.8293C59.8698 28.8693 59.4698 30.8493 58.7098 32.6893C57.9498 34.5193 56.8298 36.2093 55.3898 37.6493C53.9498 39.0893 52.2598 40.2093 50.4298 40.9693C48.5998 41.7293 46.6198 42.1293 44.5698 42.1293H44.5898ZM48.4698 13.1293H48.3998L48.3298 13.1093C48.0798 13.0393 47.8398 12.9793 47.5998 12.9293C47.3498 12.8793 47.1098 12.8293 46.8798 12.7893H46.8498C46.6998 12.7593 46.5798 12.6793 46.4998 12.5693C46.4298 12.4693 46.3898 12.3393 46.3998 12.1993V12.1693C46.4298 12.0193 46.5098 11.8993 46.6198 11.8193C46.7298 11.7393 46.8698 11.6993 47.0198 11.7193C47.2898 11.7593 47.5598 11.8093 47.8198 11.8693C48.0798 11.9193 48.3398 11.9893 48.6098 12.0593C48.7498 12.0993 48.8698 12.1893 48.9398 12.3093C49.0098 12.4293 49.0298 12.5793 48.9898 12.7193C48.9598 12.8393 48.8898 12.9393 48.7998 13.0093C48.7098 13.0793 48.5898 13.1193 48.4698 13.1193V13.1293Z" fill="#1E2248"/>
</svg>
