<svg width="63" height="63" viewBox="0 0 63 63" fill="none" xmlns="http://www.w3.org/2000/svg">
<path d="M39.33 2.30037C39.28 2.30037 39.22 2.30038 39.17 2.28038C38.15 2.00038 37.1 1.78038 36.06 1.61038C35.72 1.56038 35.49 1.24037 35.55 0.900374C35.6 0.560374 35.92 0.330379 36.26 0.390379C37.35 0.560379 38.44 0.800376 39.5 1.09038C39.83 1.18038 40.0201 1.52037 39.9301 1.85037C39.8601 2.13037 39.61 2.31038 39.33 2.31038" fill="#1E2248"/>
<path d="M31.27 62.54C22.92 62.54 15.06 59.29 9.16 53.38C3.25 47.47 0 39.62 0 31.27C0 22.92 3.25 15.06 9.16 9.15999C15.07 3.24999 22.92 0 31.27 0C31.61 0 31.89 0.279995 31.89 0.619995C31.89 0.959995 31.61 1.23999 31.27 1.23999C23.25 1.23999 15.7 4.35999 10.03 10.04C4.36 15.71 1.23 23.25 1.23 31.28C1.23 39.31 4.35 46.85 10.03 52.52C15.7 58.19 23.25 61.32 31.27 61.32C39.29 61.32 46.84 58.2 52.51 52.52C58.18 46.85 61.31 39.31 61.31 31.28C61.31 25.65 59.74 20.17 56.78 15.41C53.9 10.79 49.82 7.02999 44.98 4.53999C44.68 4.37999 44.56 4.00999 44.71 3.70999C44.87 3.40999 45.24 3.28999 45.54 3.43999C50.58 6.02999 54.82 9.94 57.82 14.75C60.9 19.7 62.54 25.41 62.54 31.27C62.54 39.62 59.29 47.48 53.38 53.38C47.47 59.29 39.62 62.54 31.27 62.54Z" fill="#1E2248"/>
<path d="M43.1301 2.63962C43.1301 3.06962 42.78 3.42961 42.34 3.42961C41.9 3.42961 41.55 3.07962 41.55 2.63962C41.55 2.19962 41.9 1.84961 42.34 1.84961C42.78 1.84961 43.1301 2.19962 43.1301 2.63962Z" fill="#1E2248"/>
<path d="M14.9601 41.6713C12.2401 37.9113 10.9401 33.2713 11.2901 28.6213C11.6401 23.9213 13.6801 19.4913 17.0201 16.1513C20.7501 12.4213 25.7101 10.3613 30.9901 10.3613C36.2701 10.3613 41.2301 12.4213 44.9601 16.1513C52.6601 23.8513 52.6601 36.3813 44.9601 44.0913C41.2301 47.8213 36.2701 49.8813 30.9901 49.8813C26.8101 49.8813 22.8101 48.5913 19.4401 46.1513C19.3401 46.0813 19.2201 46.0413 19.1001 46.0413C18.9501 46.0413 18.8001 46.1013 18.6901 46.2113L14.8601 50.0413L11.0701 46.2413L14.9001 42.4113C15.1001 42.2113 15.1201 41.9013 14.9601 41.6713ZM19.3701 41.7413C22.4701 44.8413 26.6001 46.5513 30.9901 46.5513C35.3801 46.5513 39.5101 44.8413 42.6101 41.7413C42.7301 41.6213 42.8501 41.5013 42.9601 41.3713L43.0501 41.2813C43.1401 41.1813 43.2401 41.0813 43.3301 40.9713C43.3501 40.9513 43.3701 40.9213 43.3901 40.9013C45.0901 38.9513 46.2501 36.6913 46.8701 34.3213C46.8901 34.2613 46.9001 34.2013 46.9101 34.1513C46.9301 34.0713 46.9501 33.9813 46.9701 33.9013C47.6001 31.2213 47.5701 28.3713 46.7901 25.6213C46.7901 25.6013 46.7801 25.5813 46.7701 25.5613C46.0301 22.9813 44.6401 20.5413 42.6101 18.5113C39.5101 15.4013 35.3801 13.7013 30.9901 13.7013C26.6001 13.7013 22.4701 15.4113 19.3701 18.5113C12.9601 24.9213 12.9601 35.3413 19.3701 41.7513V41.7413Z" fill="#1267FE"/>
<path d="M9.05006 46.7109C9.59006 46.7109 10.1001 46.9209 10.4901 47.3009L13.8101 50.6209C14.1901 51.0009 14.4101 51.5109 14.4101 52.0609C14.4101 52.6109 14.2001 53.1109 13.8101 53.5009L12.5501 54.7609C11.6801 54.0609 10.8401 53.3109 10.0301 52.5109C8.74006 51.2209 7.58006 49.8309 6.56006 48.3609L7.62006 47.3009C8.00006 46.9209 8.51006 46.7109 9.06006 46.7109" fill="white"/>
<path d="M51.77 32.2305C51.6 33.8705 51.25 35.4905 50.7 37.0605C50.62 37.3005 50.53 37.5405 50.43 37.7805C50.01 38.8605 49.49 39.9105 48.88 40.9205C48.73 41.1605 48.58 41.4005 48.43 41.6405C47.7 42.7505 46.85 43.8005 45.89 44.7805C45.85 44.8205 45.81 44.8605 45.77 44.9105C45.57 45.1105 45.36 45.3105 45.15 45.5005C43.8 46.7505 42.31 47.8005 40.72 48.6405C40.23 48.9005 39.72 49.1405 39.21 49.3605C36.65 50.4605 33.86 51.0305 30.99 51.0305C30.74 51.0305 30.49 51.0305 30.24 51.0205C29.85 51.0105 29.47 50.9805 29.09 50.9505C25.52 50.6305 22.13 49.4105 19.17 47.3805L15.42 51.1305C15.27 50.6405 15 50.1905 14.63 49.8205L11.31 46.5005C10.94 46.1305 10.49 45.8605 10 45.7105L13.75 41.9605C11.07 38.0505 9.78999 33.3105 10.15 28.5505C10.53 23.5705 12.68 18.8905 16.21 15.3505C20.16 11.4005 25.41 9.23047 30.99 9.23047C36.57 9.23047 41.82 11.4005 45.77 15.3505C50.09 19.6705 52.12 25.4205 51.86 31.0905C51.84 31.4705 51.81 31.8605 51.78 32.2405M14.87 50.0505L18.7 46.2205C18.81 46.1105 18.96 46.0505 19.11 46.0505C19.23 46.0505 19.35 46.0905 19.45 46.1605C22.82 48.6005 26.82 49.8905 31 49.8905C36.28 49.8905 41.23 47.8305 44.97 44.1005C52.67 36.4005 52.67 23.8705 44.97 16.1605C41.24 12.4305 36.28 10.3705 31 10.3705C25.72 10.3705 20.76 12.4305 17.03 16.1605C13.69 19.5005 11.66 23.9305 11.3 28.6305C10.95 33.2805 12.25 37.9205 14.97 41.6805C15.14 41.9105 15.11 42.2205 14.91 42.4205L11.08 46.2505L14.87 50.0505Z" fill="#1E2248"/>
<path d="M9.05014 45.5605C9.37014 45.5605 9.69014 45.6105 9.99014 45.7005C10.4801 45.8505 10.9301 46.1205 11.3001 46.4905L14.6201 49.8105C14.9901 50.1805 15.2601 50.6305 15.4101 51.1205C15.5001 51.4205 15.5501 51.7305 15.5501 52.0605C15.5501 52.9105 15.2201 53.7105 14.6201 54.3105L13.4601 55.4706C13.1501 55.2406 12.8401 55.0105 12.5401 54.7605L13.8001 53.5005C14.1801 53.1205 14.4001 52.6105 14.4001 52.0605C14.4001 51.5105 14.1901 51.0105 13.8001 50.6205L10.4801 47.3005C10.1001 46.9205 9.59013 46.7105 9.04013 46.7105C8.49013 46.7105 7.99014 46.9205 7.60014 47.3005L6.54013 48.3605C6.32013 48.0405 6.10014 47.7105 5.89014 47.3905L6.78014 46.5005C7.38014 45.9005 8.18014 45.5706 9.03014 45.5706" fill="#1E2248"/>
<path fill-rule="evenodd" clip-rule="evenodd" d="M30.94 13.7305C40.02 13.7305 47.38 21.0905 47.38 30.1705C47.38 39.2505 40.02 46.6105 30.94 46.6105C21.86 46.6105 14.5 39.2505 14.5 30.1705C14.5 21.0905 21.86 13.7305 30.94 13.7305Z" fill="white"/>
<path d="M30.94 13.7305C40.02 13.7305 47.38 21.0905 47.38 30.1705C47.38 39.2505 40.02 46.6105 30.94 46.6105C21.86 46.6105 14.5 39.2505 14.5 30.1705C14.5 21.0905 21.86 13.7305 30.94 13.7305Z" stroke="#1E2248" stroke-width="1.2" stroke-miterlimit="22.93"/>
<path d="M25.8902 32.5497C25.9702 32.7497 25.8702 32.9697 25.6802 33.0497C25.4802 33.1297 25.2602 33.0297 25.1802 32.8397C24.4002 30.8797 25.7502 29.8797 27.1602 29.3097C27.7102 29.0897 28.2302 28.9497 28.6402 28.8397C28.9502 28.7597 29.1802 28.6897 29.2202 28.6697C29.2302 28.6697 29.2402 28.5197 29.2502 28.3697C28.8802 28.0897 28.5802 27.6797 28.3602 27.2197C28.1002 26.6797 27.9602 26.0597 27.9602 25.4397C27.9602 24.5197 28.2802 23.7197 28.8002 23.1397C29.3402 22.5397 30.0902 22.1797 30.9302 22.1797C31.8502 22.1797 32.6102 22.5297 33.1502 23.0997C33.7102 23.6897 34.0202 24.5197 34.0202 25.4397C34.0202 26.0497 33.8702 26.6797 33.6202 27.2197C33.4002 27.6797 33.0902 28.0897 32.7302 28.3697C32.7302 28.5197 32.7402 28.6597 32.7602 28.6697C32.8002 28.6997 33.0302 28.7597 33.3402 28.8397C33.7502 28.9497 34.2802 29.0897 34.8202 29.3097C36.2402 29.8797 37.5902 30.8697 36.8002 32.8397C36.7202 33.0397 36.5002 33.1297 36.3002 33.0497C36.1002 32.9697 36.0102 32.7497 36.0902 32.5497C36.6402 31.1697 35.6102 30.4397 34.5402 30.0097C34.0602 29.8197 33.5402 29.6797 33.1402 29.5697C32.7602 29.4697 32.4802 29.3897 32.3302 29.2897C32.0002 29.0597 31.9802 28.6397 31.9702 28.2797V27.9597L32.1402 27.8397C32.4602 27.6397 32.7402 27.2897 32.9402 26.8797C33.1502 26.4397 33.2702 25.9297 33.2702 25.4297C33.2702 24.7097 33.0302 24.0697 32.6102 23.6197C32.2102 23.1997 31.6402 22.9397 30.9502 22.9397C30.3402 22.9397 29.7902 23.1997 29.3902 23.6497C28.9902 24.0897 28.7502 24.7197 28.7502 25.4397C28.7502 25.9397 28.8702 26.4497 29.0802 26.8897C29.2802 27.2997 29.5502 27.6497 29.8802 27.8497L30.0702 27.9697V28.2897C30.0502 28.6497 30.0302 29.0697 29.7002 29.2997C29.5502 29.3997 29.2702 29.4797 28.8902 29.5797C28.4902 29.6897 27.9702 29.8297 27.4902 30.0197C26.4202 30.4497 25.3902 31.1797 25.9402 32.5597L25.8902 32.5497Z" fill="#1E2248"/>
<path d="M25.8902 32.5497C25.9702 32.7497 25.8702 32.9697 25.6802 33.0497C25.4802 33.1297 25.2602 33.0297 25.1802 32.8397C24.4002 30.8797 25.7502 29.8797 27.1602 29.3097C27.7102 29.0897 28.2302 28.9497 28.6402 28.8397C28.9502 28.7597 29.1802 28.6897 29.2202 28.6697C29.2302 28.6697 29.2402 28.5197 29.2502 28.3697C28.8802 28.0897 28.5802 27.6797 28.3602 27.2197C28.1002 26.6797 27.9602 26.0597 27.9602 25.4397C27.9602 24.5197 28.2802 23.7197 28.8002 23.1397C29.3402 22.5397 30.0902 22.1797 30.9302 22.1797C31.8502 22.1797 32.6102 22.5297 33.1502 23.0997C33.7102 23.6897 34.0202 24.5197 34.0202 25.4397C34.0202 26.0497 33.8702 26.6797 33.6202 27.2197C33.4002 27.6797 33.0902 28.0897 32.7302 28.3697C32.7302 28.5197 32.7402 28.6597 32.7602 28.6697C32.8002 28.6997 33.0302 28.7597 33.3402 28.8397C33.7502 28.9497 34.2802 29.0897 34.8202 29.3097C36.2402 29.8797 37.5902 30.8697 36.8002 32.8397C36.7202 33.0397 36.5002 33.1297 36.3002 33.0497C36.1002 32.9697 36.0102 32.7497 36.0902 32.5497C36.6402 31.1697 35.6102 30.4397 34.5402 30.0097C34.0602 29.8197 33.5402 29.6797 33.1402 29.5697C32.7602 29.4697 32.4802 29.3897 32.3302 29.2897C32.0002 29.0597 31.9802 28.6397 31.9702 28.2797V27.9597L32.1402 27.8397C32.4602 27.6397 32.7402 27.2897 32.9402 26.8797C33.1502 26.4397 33.2702 25.9297 33.2702 25.4297C33.2702 24.7097 33.0302 24.0697 32.6102 23.6197C32.2102 23.1997 31.6402 22.9397 30.9502 22.9397C30.3402 22.9397 29.7902 23.1997 29.3902 23.6497C28.9902 24.0897 28.7502 24.7197 28.7502 25.4397C28.7502 25.9397 28.8702 26.4497 29.0802 26.8897C29.2802 27.2997 29.5502 27.6497 29.8802 27.8497L30.0702 27.9697V28.2897C30.0502 28.6497 30.0302 29.0697 29.7002 29.2997C29.5502 29.3997 29.2702 29.4797 28.8902 29.5797C28.4902 29.6897 27.9702 29.8297 27.4902 30.0197C26.4202 30.4497 25.3902 31.1797 25.9402 32.5597L25.8902 32.5497Z" stroke="#1E2248" stroke-width="0.48" stroke-miterlimit="22.93"/>
<path d="M34.5901 28.4409C34.3901 28.5209 34.1701 28.4209 34.1001 28.2209C34.0201 28.0209 34.1201 27.8008 34.3201 27.7308C34.8301 27.5308 35.3301 27.4009 35.7201 27.2909C36.0301 27.2009 36.2601 27.1408 36.3001 27.1208C36.3101 27.1208 36.3201 26.9709 36.3301 26.8209C35.9601 26.5309 35.6601 26.1308 35.4401 25.6708C35.1801 25.1308 35.0401 24.5108 35.0401 23.8908C35.0401 22.9708 35.3601 22.1709 35.8801 21.5909C36.4201 20.9909 37.1701 20.6309 38.0101 20.6309C38.9301 20.6309 39.6901 20.9808 40.2301 21.5508C40.7901 22.1408 41.1001 22.9708 41.1001 23.8908C41.1001 24.5008 40.9501 25.1308 40.7001 25.6708C40.4801 26.1308 40.1701 26.5409 39.8101 26.8209C39.8101 26.9709 39.8201 27.1108 39.8401 27.1208C39.8801 27.1508 40.1101 27.2109 40.4201 27.2909C40.8301 27.4009 41.3601 27.5508 41.9001 27.7608C43.3201 28.3308 44.6701 29.3209 43.8801 31.2909C43.8001 31.4909 43.5801 31.5809 43.3801 31.5009C43.1801 31.4209 43.0901 31.2009 43.1701 31.0009C43.7201 29.6209 42.6901 28.8908 41.6201 28.4608C41.1401 28.2708 40.6201 28.1308 40.2201 28.0208C39.8401 27.9208 39.5601 27.8408 39.4101 27.7408C39.0801 27.5108 39.0601 27.0908 39.0501 26.7308V26.4109L39.2201 26.2909C39.5401 26.0909 39.8201 25.7408 40.0201 25.3308C40.2301 24.8908 40.3501 24.3809 40.3501 23.8809C40.3501 23.1609 40.1101 22.5209 39.6901 22.0709C39.2901 21.6509 38.7201 21.3908 38.0301 21.3908C37.4201 21.3908 36.8701 21.6509 36.4701 22.1009C36.0701 22.5409 35.8301 23.1708 35.8301 23.8908C35.8301 24.3908 35.9501 24.9009 36.1601 25.3409C36.3601 25.7509 36.6301 26.1008 36.9601 26.3008L37.1501 26.4208V26.7408C37.1301 27.1008 37.1101 27.5209 36.7801 27.7509C36.6301 27.8509 36.3501 27.9309 35.9701 28.0309C35.6001 28.1309 35.1201 28.2609 34.6401 28.4409H34.5901Z" fill="#1E2248"/>
<path d="M34.5901 28.4409C34.3901 28.5209 34.1701 28.4209 34.1001 28.2209C34.0201 28.0209 34.1201 27.8008 34.3201 27.7308C34.8301 27.5308 35.3301 27.4009 35.7201 27.2909C36.0301 27.2009 36.2601 27.1408 36.3001 27.1208C36.3101 27.1208 36.3201 26.9709 36.3301 26.8209C35.9601 26.5309 35.6601 26.1308 35.4401 25.6708C35.1801 25.1308 35.0401 24.5108 35.0401 23.8908C35.0401 22.9708 35.3601 22.1709 35.8801 21.5909C36.4201 20.9909 37.1701 20.6309 38.0101 20.6309C38.9301 20.6309 39.6901 20.9808 40.2301 21.5508C40.7901 22.1408 41.1001 22.9708 41.1001 23.8908C41.1001 24.5008 40.9501 25.1308 40.7001 25.6708C40.4801 26.1308 40.1701 26.5409 39.8101 26.8209C39.8101 26.9709 39.8201 27.1108 39.8401 27.1208C39.8801 27.1508 40.1101 27.2109 40.4201 27.2909C40.8301 27.4009 41.3601 27.5508 41.9001 27.7608C43.3201 28.3308 44.6701 29.3209 43.8801 31.2909C43.8001 31.4909 43.5801 31.5809 43.3801 31.5009C43.1801 31.4209 43.0901 31.2009 43.1701 31.0009C43.7201 29.6209 42.6901 28.8908 41.6201 28.4608C41.1401 28.2708 40.6201 28.1308 40.2201 28.0208C39.8401 27.9208 39.5601 27.8408 39.4101 27.7408C39.0801 27.5108 39.0601 27.0908 39.0501 26.7308V26.4109L39.2201 26.2909C39.5401 26.0909 39.8201 25.7408 40.0201 25.3308C40.2301 24.8908 40.3501 24.3809 40.3501 23.8809C40.3501 23.1609 40.1101 22.5209 39.6901 22.0709C39.2901 21.6509 38.7201 21.3908 38.0301 21.3908C37.4201 21.3908 36.8701 21.6509 36.4701 22.1009C36.0701 22.5409 35.8301 23.1708 35.8301 23.8908C35.8301 24.3908 35.9501 24.9009 36.1601 25.3409C36.3601 25.7509 36.6301 26.1008 36.9601 26.3008L37.1501 26.4208V26.7408C37.1301 27.1008 37.1101 27.5209 36.7801 27.7509C36.6301 27.8509 36.3501 27.9309 35.9701 28.0309C35.6001 28.1309 35.1201 28.2609 34.6401 28.4409H34.5901Z" stroke="#1E2248" stroke-width="0.48" stroke-miterlimit="22.93"/>
<path d="M27.5601 27.7311C27.7601 27.8111 27.8501 28.0311 27.7801 28.2211C27.7001 28.4211 27.48 28.5111 27.29 28.4411C26.82 28.2611 26.3401 28.1311 25.9601 28.0211C25.5801 27.9211 25.3 27.8411 25.15 27.7411C24.82 27.5111 24.8 27.0911 24.79 26.7311V26.4111L24.9601 26.2911C25.2801 26.0911 25.56 25.7411 25.76 25.3311C25.97 24.8911 26.09 24.3811 26.09 23.8811C26.09 23.1611 25.8401 22.5311 25.4501 22.0911C25.0501 21.6511 24.5001 21.3811 23.8901 21.3811C23.1901 21.3811 22.62 21.6411 22.23 22.0611C21.81 22.5111 21.5701 23.1511 21.5701 23.8711C21.5701 24.3711 21.69 24.8811 21.9 25.3211C22.1 25.7311 22.3701 26.0811 22.7001 26.2811L22.8901 26.4011V26.7211C22.8701 27.0811 22.8501 27.5011 22.5201 27.7311C22.3701 27.8311 22.0901 27.9111 21.7101 28.0111C21.3101 28.1211 20.7901 28.2611 20.3101 28.4511C19.2401 28.8811 18.21 29.6111 18.76 30.9911C18.84 31.1911 18.7401 31.4111 18.5501 31.4911C18.3501 31.5711 18.1301 31.4711 18.0501 31.2811C17.2701 29.3211 18.6201 28.3211 20.0301 27.7511C20.5801 27.5311 21.1 27.3911 21.51 27.2811C21.82 27.2011 22.05 27.1311 22.09 27.1111C22.1 27.1111 22.11 26.9611 22.12 26.8111C21.75 26.5211 21.45 26.1211 21.23 25.6611C20.97 25.1211 20.8301 24.5011 20.8301 23.8811C20.8301 22.9611 21.1401 22.1311 21.7001 21.5411C22.2401 20.9711 23.0001 20.6211 23.9201 20.6211C24.7501 20.6211 25.5101 20.9811 26.0501 21.5811C26.5701 22.1611 26.8901 22.9611 26.8901 23.8811C26.8901 24.4911 26.7401 25.1211 26.4901 25.6611C26.2701 26.1211 25.9601 26.5311 25.6001 26.8111C25.6001 26.9611 25.6101 27.1011 25.6301 27.1111C25.6701 27.1411 25.9001 27.2011 26.2101 27.2811C26.6001 27.3911 27.1101 27.5311 27.6101 27.7211L27.5601 27.7311Z" fill="#1E2248"/>
<path d="M27.5601 27.7311C27.7601 27.8111 27.8501 28.0311 27.7801 28.2211C27.7001 28.4211 27.48 28.5111 27.29 28.4411C26.82 28.2611 26.3401 28.1311 25.9601 28.0211C25.5801 27.9211 25.3 27.8411 25.15 27.7411C24.82 27.5111 24.8 27.0911 24.79 26.7311V26.4111L24.9601 26.2911C25.2801 26.0911 25.56 25.7411 25.76 25.3311C25.97 24.8911 26.09 24.3811 26.09 23.8811C26.09 23.1611 25.8401 22.5311 25.4501 22.0911C25.0501 21.6511 24.5001 21.3811 23.8901 21.3811C23.1901 21.3811 22.62 21.6411 22.23 22.0611C21.81 22.5111 21.5701 23.1511 21.5701 23.8711C21.5701 24.3711 21.69 24.8811 21.9 25.3211C22.1 25.7311 22.3701 26.0811 22.7001 26.2811L22.8901 26.4011V26.7211C22.8701 27.0811 22.8501 27.5011 22.5201 27.7311C22.3701 27.8311 22.0901 27.9111 21.7101 28.0111C21.3101 28.1211 20.7901 28.2611 20.3101 28.4511C19.2401 28.8811 18.21 29.6111 18.76 30.9911C18.84 31.1911 18.7401 31.4111 18.5501 31.4911C18.3501 31.5711 18.1301 31.4711 18.0501 31.2811C17.2701 29.3211 18.6201 28.3211 20.0301 27.7511C20.5801 27.5311 21.1 27.3911 21.51 27.2811C21.82 27.2011 22.05 27.1311 22.09 27.1111C22.1 27.1111 22.11 26.9611 22.12 26.8111C21.75 26.5211 21.45 26.1211 21.23 25.6611C20.97 25.1211 20.8301 24.5011 20.8301 23.8811C20.8301 22.9611 21.1401 22.1311 21.7001 21.5411C22.2401 20.9711 23.0001 20.6211 23.9201 20.6211C24.7501 20.6211 25.5101 20.9811 26.0501 21.5811C26.5701 22.1611 26.8901 22.9611 26.8901 23.8811C26.8901 24.4911 26.7401 25.1211 26.4901 25.6611C26.2701 26.1211 25.9601 26.5311 25.6001 26.8111C25.6001 26.9611 25.6101 27.1011 25.6301 27.1111C25.6701 27.1411 25.9001 27.2011 26.2101 27.2811C26.6001 27.3911 27.1101 27.5311 27.6101 27.7211L27.5601 27.7311Z" stroke="#1E2248" stroke-width="0.48" stroke-miterlimit="22.93"/>
<path d="M30.9402 43.4204C29.5602 43.4204 28.3102 42.8604 27.4002 41.9504C26.4902 41.0404 25.9302 39.7904 25.9302 38.4104C25.9302 37.0304 26.4902 35.7804 27.4002 34.8704C28.3102 33.9604 29.5602 33.4004 30.9402 33.4004C32.3202 33.4004 33.5702 33.9604 34.4802 34.8704C35.3902 35.7804 35.9502 37.0304 35.9502 38.4104C35.9502 39.7904 35.3902 41.0404 34.4802 41.9504C33.5702 42.8604 32.3202 43.4204 30.9402 43.4204ZM30.9402 34.4204C29.8402 34.4204 28.8402 34.8704 28.1202 35.5904C27.4002 36.3104 26.9502 37.3104 26.9502 38.4104C26.9502 39.5104 27.4002 40.5104 28.1202 41.2304C28.8402 41.9504 29.8402 42.4004 30.9402 42.4004C32.0402 42.4004 33.0302 41.9504 33.7602 41.2304C34.4802 40.5104 34.9302 39.5104 34.9302 38.4104C34.9302 37.3104 34.4802 36.3204 33.7602 35.5904C33.0402 34.8704 32.0402 34.4204 30.9402 34.4204Z" fill="#1267FE"/>
<path d="M33.0902 36.0503C33.2302 36.0403 33.3702 36.0803 33.4902 36.1703C33.6102 36.2703 33.6702 36.4003 33.6902 36.5403C33.7002 36.6803 33.6702 36.8203 33.5702 36.9403L30.6202 40.5503C30.5702 40.6103 30.5102 40.6603 30.4402 40.6903C30.3702 40.7203 30.3002 40.7403 30.2202 40.7503H30.1902C30.1202 40.7503 30.0502 40.7403 29.9802 40.7103C29.9102 40.6803 29.8502 40.6403 29.8002 40.5903L28.3402 39.1303C28.2302 39.0203 28.1802 38.8803 28.1802 38.7403C28.1802 38.6003 28.2302 38.4603 28.3402 38.3503C28.4502 38.2403 28.5902 38.1903 28.7302 38.1903C28.8702 38.1903 29.0102 38.2403 29.1102 38.3503C29.1902 38.4003 30.0102 39.2503 30.1502 39.3903L32.7202 36.2503C32.8202 36.1303 32.9502 36.0703 33.0902 36.0503Z" fill="#1267FE"/>
</svg>
