<svg width="63" height="63" viewBox="0 0 63 63" fill="none" xmlns="http://www.w3.org/2000/svg">
<path d="M39.33 2.30038C39.28 2.30038 39.22 2.30038 39.17 2.28038C38.15 2.00038 37.1 1.78037 36.06 1.61037C35.72 1.56037 35.49 1.24037 35.55 0.900374C35.6 0.560374 35.92 0.330379 36.26 0.390379C37.35 0.560379 38.44 0.800376 39.5 1.09038C39.83 1.18038 40.03 1.52038 39.94 1.85038C39.86 2.13038 39.62 2.31038 39.34 2.31038" fill="#1E2248"/>
<path d="M31.27 62.54C22.92 62.54 15.06 59.29 9.16 53.38C3.25 47.47 0 39.62 0 31.27C0 22.92 3.25 15.06 9.16 9.16C15.07 3.25 22.92 0 31.27 0C31.61 0 31.89 0.280003 31.89 0.620003C31.89 0.960003 31.61 1.24001 31.27 1.24001C23.25 1.24001 15.7 4.36 10.03 10.04C4.36 15.71 1.23 23.25 1.23 31.28C1.23 39.31 4.35 46.84 10.03 52.52C15.7 58.19 23.25 61.32 31.27 61.32C39.29 61.32 46.84 58.2 52.51 52.52C58.18 46.85 61.31 39.31 61.31 31.28C61.31 25.65 59.74 20.17 56.78 15.41C53.9 10.79 49.82 7.03 44.98 4.54C44.68 4.38 44.56 4.01001 44.71 3.71001C44.87 3.41001 45.24 3.29 45.54 3.44C50.58 6.03 54.82 9.94 57.83 14.75C60.91 19.7 62.54 25.41 62.54 31.27C62.54 39.62 59.29 47.48 53.38 53.38C47.47 59.29 39.62 62.54 31.27 62.54Z" fill="#1E2248"/>
<path d="M43.1301 2.63961C43.1301 3.06961 42.78 3.4296 42.34 3.4296C41.9 3.4296 41.55 3.07961 41.55 2.63961C41.55 2.19961 41.9 1.84961 42.34 1.84961C42.78 1.84961 43.1301 2.19961 43.1301 2.63961Z" fill="#1E2248"/>
<path d="M25.2701 15.3609C24.6101 15.3609 24.0701 14.8209 24.0701 14.1609C24.0701 13.5009 24.6101 12.9609 25.2701 12.9609H49.5801C50.2401 12.9609 50.7801 13.5009 50.7801 14.1609C50.7801 14.8209 50.2401 15.3609 49.5801 15.3609H25.2701Z" fill="#1E2248"/>
<path d="M25.2701 20.0211C24.6101 20.0211 24.0701 19.4811 24.0701 18.8211C24.0701 18.1611 24.6101 17.6211 25.2701 17.6211H35.9701C36.6301 17.6211 37.1701 18.1611 37.1701 18.8211C37.1701 19.4811 36.6301 20.0211 35.9701 20.0211H25.2701Z" fill="#1E2248"/>
<path d="M25.2701 30.1402C24.6101 30.1402 24.0701 29.6002 24.0701 28.9402C24.0701 28.2802 24.6101 27.7402 25.2701 27.7402H49.5801C50.2401 27.7402 50.7801 28.2802 50.7801 28.9402C50.7801 29.6002 50.2401 30.1402 49.5801 30.1402H25.2701Z" fill="#1E2248"/>
<path d="M25.2701 34.8004C24.6101 34.8004 24.0701 34.2604 24.0701 33.6004C24.0701 32.9404 24.6101 32.4004 25.2701 32.4004H35.9701C36.6301 32.4004 37.1701 32.9404 37.1701 33.6004C37.1701 34.2604 36.6301 34.8004 35.9701 34.8004H25.2701Z" fill="#1E2248"/>
<path d="M25.2701 44.9098C24.6101 44.9098 24.0701 44.3698 24.0701 43.7098C24.0701 43.0498 24.6101 42.5098 25.2701 42.5098H49.5801C50.2401 42.5098 50.7801 43.0498 50.7801 43.7098C50.7801 44.3698 50.2401 44.9098 49.5801 44.9098H25.2701Z" fill="#1E2248"/>
<path d="M25.2701 49.5699C24.6101 49.5699 24.0701 49.0299 24.0701 48.3699C24.0701 47.7099 24.6101 47.1699 25.2701 47.1699H35.9701C36.6301 47.1699 37.1701 47.7099 37.1701 48.3699C37.1701 49.0299 36.6301 49.5699 35.9701 49.5699H25.2701Z" fill="#1E2248"/>
<path fill-rule="evenodd" clip-rule="evenodd" d="M14.61 13.5996C16.21 13.5996 17.51 14.8996 17.51 16.4996C17.51 18.0996 16.21 19.3996 14.61 19.3996C13.01 19.3996 11.71 18.0996 11.71 16.4996C11.71 14.8996 13.01 13.5996 14.61 13.5996Z" fill="#1267FE"/>
<path fill-rule="evenodd" clip-rule="evenodd" d="M14.61 28.3711C16.21 28.3711 17.51 29.6711 17.51 31.2711C17.51 32.8711 16.21 34.1711 14.61 34.1711C13.01 34.1711 11.71 32.8711 11.71 31.2711C11.71 29.6711 13.01 28.3711 14.61 28.3711Z" fill="#1267FE"/>
<path fill-rule="evenodd" clip-rule="evenodd" d="M14.61 43.1406C16.21 43.1406 17.51 44.4406 17.51 46.0406C17.51 47.6406 16.21 48.9406 14.61 48.9406C13.01 48.9406 11.71 47.6406 11.71 46.0406C11.71 44.4406 13.01 43.1406 14.61 43.1406Z" fill="#1267FE"/>
</svg>
