<svg width="63" height="63" viewBox="0 0 63 63" fill="none" xmlns="http://www.w3.org/2000/svg">
<path d="M39.33 2.30038C39.28 2.30038 39.22 2.30038 39.17 2.28038C38.15 2.00038 37.1 1.78038 36.06 1.61038C35.72 1.56038 35.49 1.24038 35.55 0.900381C35.6 0.560381 35.92 0.330379 36.26 0.390379C37.35 0.560379 38.44 0.800376 39.5 1.09038C39.83 1.18038 40.02 1.52038 39.93 1.85038C39.86 2.13038 39.61 2.31038 39.33 2.31038" fill="#1E2248"/>
<path d="M43.12 2.64938C43.12 3.07938 42.77 3.43937 42.33 3.43937C41.89 3.43937 41.54 3.08938 41.54 2.64938C41.54 2.20938 41.89 1.85938 42.33 1.85938C42.77 1.85938 43.12 2.20938 43.12 2.64938Z" fill="#1E2248"/>
<path fill-rule="evenodd" clip-rule="evenodd" d="M7.61018 18.1699H30.5C29.89 19.0499 29.38 19.9999 28.97 20.9799C28.21 22.8099 27.81 24.7999 27.81 26.8399C27.81 28.8799 28.21 30.8599 28.97 32.6999C29.73 34.5299 32.0502 36.2199 33.4902 37.6599C34.9302 39.0999 36.6202 40.2199 38.4502 40.9799C39.0602 41.2299 39.6802 41.4399 40.3202 41.6199V58.1499C40.3202 58.8199 40.1402 59.4499 39.8202 59.9899C36.9902 60.8599 34.0202 61.2999 30.9802 61.2999C22.9602 61.2999 15.4102 58.1799 9.74017 52.4999C7.33017 50.0899 5.37018 47.3299 3.93018 44.3499V21.8399C3.93018 19.8199 5.58017 18.1699 7.60017 18.1699" fill="#1267FE"/>
<path d="M16.5002 58.0995H30.4802C31.8502 58.0995 32.9802 59.1795 33.0602 60.5294H36.0102C36.9202 60.5294 37.7502 60.1595 38.3402 59.5595C38.9402 58.9595 39.3102 58.1295 39.3102 57.2295V40.9095C39.8002 41.0695 40.3002 41.2095 40.8202 41.3195V57.2295C40.8202 58.5195 40.3002 59.6995 39.4602 60.5695C36.7702 61.3495 33.9302 61.7595 30.9802 61.7595C25.7302 61.7595 20.8002 60.4295 16.4802 58.0995M8.25018 17.4395L31 17.5C30.59 17.98 30.21 18.48 29.86 19.01L8.25018 18.9495C7.34018 18.9495 6.52018 19.3195 5.92018 19.9195C5.32018 20.5195 4.95018 21.3495 4.95018 22.2495V47.1595C4.40018 46.2695 3.90019 45.3395 3.44019 44.3895V22.2595C3.44019 20.9395 3.98017 19.7295 4.85017 18.8595C5.72017 17.9895 6.93018 17.4495 8.25018 17.4495V17.4395Z" fill="#1E2248"/>
<path d="M10.8402 22.7502H29.9102C29.7602 23.2402 29.6402 23.7402 29.5402 24.2602H10.8402C10.8402 24.2602 10.7802 24.2702 10.7602 24.3002C10.7402 24.3202 10.7202 24.3502 10.7202 24.3802V30.3402C10.7202 30.3402 10.7302 30.4002 10.7602 30.4202C10.7802 30.4402 10.8102 30.4502 10.8402 30.4502H29.6902C29.8102 30.9602 29.9602 31.4702 30.1402 31.9602H10.8302C10.3802 31.9602 9.98019 31.7802 9.68019 31.4802C9.39019 31.1902 9.2002 30.7802 9.2002 30.3302V24.3702C9.2002 23.9202 9.38019 23.5202 9.68019 23.2202C9.97019 22.9302 10.3802 22.7402 10.8302 22.7402" fill="white"/>
<path d="M17.8702 27.9592C18.6102 27.9592 18.9002 27.0092 18.3002 26.5892C18.1702 26.4992 18.0302 26.4592 17.8702 26.4592H14.8602C14.1202 26.4592 13.8302 27.4092 14.4302 27.8292C14.5602 27.9192 14.7002 27.9592 14.8602 27.9592H17.8702ZM23.8902 27.9592C24.6302 27.9592 24.9202 27.0092 24.3202 26.5892C24.1902 26.4992 24.0502 26.4592 23.8902 26.4592H20.8802C20.1402 26.4592 19.8502 27.4092 20.4502 27.8292C20.5802 27.9192 20.7202 27.9592 20.8802 27.9592H23.8902ZM29.3002 26.4492H26.9002C26.1602 26.4492 25.8702 27.3992 26.4702 27.8192C26.6002 27.9092 26.7402 27.9492 26.9002 27.9492H29.3202C29.3002 27.6392 29.2902 27.3192 29.2902 26.9992C29.2902 26.8092 29.2902 26.6292 29.3002 26.4492Z" fill="white"/>
<path d="M14.09 37.719H9.75999V41.389H14.09V37.719ZM9.59 36.209H14.25C14.62 36.209 14.95 36.359 15.2 36.599C15.44 36.839 15.59 37.179 15.59 37.549V41.559C15.59 41.929 15.44 42.259 15.2 42.509C14.96 42.749 14.62 42.899 14.25 42.899H9.59C9.22 42.899 8.89 42.749 8.64 42.509C8.4 42.269 8.25 41.929 8.25 41.559V37.549C8.25 37.179 8.4 36.849 8.64 36.599C8.88 36.359 9.22 36.209 9.59 36.209Z" fill="white"/>
<path d="M24.3 37.719H19.97V41.389H24.3V37.719ZM19.81 36.209H24.47C24.84 36.209 25.17 36.359 25.42 36.599C25.66 36.839 25.81 37.179 25.81 37.549V41.559C25.81 41.929 25.66 42.259 25.42 42.509C25.18 42.749 24.84 42.899 24.47 42.899H19.81C19.44 42.899 19.11 42.749 18.86 42.509C18.62 42.269 18.47 41.929 18.47 41.559V37.549C18.47 37.179 18.62 36.849 18.86 36.599C19.1 36.359 19.44 36.209 19.81 36.209Z" fill="white"/>
<path d="M14.09 47.1897H9.75999V50.8597H14.09V47.1897ZM9.59 45.6797H14.25C14.62 45.6797 14.95 45.8297 15.2 46.0697C15.44 46.3097 15.59 46.6497 15.59 47.0197V51.0297C15.59 51.3997 15.44 51.7297 15.2 51.9797C14.96 52.2197 14.62 52.3697 14.25 52.3697H9.59C9.22 52.3697 8.89 52.2197 8.64 51.9797C8.4 51.7397 8.25 51.3997 8.25 51.0297V47.0197C8.25 46.6497 8.4 46.3197 8.64 46.0697C8.88 45.8297 9.22 45.6797 9.59 45.6797Z" fill="white"/>
<path d="M24.3 47.1897H19.97V50.8597H24.3V47.1897ZM19.81 45.6797H24.47C24.84 45.6797 25.17 45.8297 25.42 46.0697C25.67 46.3097 25.81 46.6497 25.81 47.0197V51.0297C25.81 51.3997 25.66 51.7297 25.42 51.9797C25.18 52.2197 24.84 52.3697 24.47 52.3697H19.81C19.44 52.3697 19.11 52.2197 18.86 51.9797C18.62 51.7397 18.47 51.3997 18.47 51.0297V47.0197C18.47 46.6497 18.62 46.3197 18.86 46.0697C19.1 45.8297 19.44 45.6797 19.81 45.6797Z" fill="white"/>
<path d="M30.0202 36.2092H32.5402C32.9702 36.7392 33.4402 37.2492 33.9402 37.7192H30.1802V41.3892H34.5102V38.2192C34.9902 38.6192 35.4902 38.9892 36.0202 39.3292V41.5492C36.0202 41.9192 35.8702 42.2492 35.6302 42.4992C35.3902 42.7392 35.0502 42.8892 34.6802 42.8892H30.0202C29.6502 42.8892 29.3202 42.7392 29.0702 42.4992C28.8302 42.2592 28.6802 41.9192 28.6802 41.5492V37.5392C28.6802 37.1692 28.8302 36.8392 29.0702 36.5892C29.3102 36.3492 29.6502 36.1992 30.0202 36.1992" fill="white"/>
<path d="M34.5202 47.1897H30.1902V50.8597H34.5202V47.1897ZM30.0302 45.6797H34.6902C35.0602 45.6797 35.3902 45.8297 35.6402 46.0697C35.8802 46.3097 36.0302 46.6497 36.0302 47.0197V51.0297C36.0302 51.3997 35.8802 51.7297 35.6402 51.9797C35.4002 52.2197 35.0602 52.3697 34.6902 52.3697H30.0302C29.6602 52.3697 29.3302 52.2197 29.0802 51.9797C28.8402 51.7397 28.6902 51.3997 28.6902 51.0297V47.0197C28.6902 46.6497 28.8402 46.3197 29.0802 46.0697C29.3202 45.8297 29.6602 45.6797 30.0302 45.6797Z" fill="white"/>
<path d="M31.27 62.54C22.92 62.54 15.06 59.29 9.16 53.38C3.25 47.47 0 39.62 0 31.27C0 22.92 3.25 15.06 9.16 9.16C15.07 3.25 22.92 0 31.27 0C31.61 0 31.89 0.279995 31.89 0.619995C31.89 0.959995 31.61 1.24 31.27 1.24C23.25 1.24 15.7 4.36 10.03 10.04C4.36 15.71 1.23 23.25 1.23 31.28C1.23 39.31 4.35 46.85 10.03 52.52C15.7 58.19 23.25 61.32 31.27 61.32C39.29 61.32 46.84 58.2 52.51 52.52C58.18 46.85 61.31 39.31 61.31 31.28C61.31 25.65 59.74 20.17 56.78 15.41C53.9 10.79 49.82 7.03 44.98 4.54C44.68 4.38 44.56 4.01 44.71 3.71C44.87 3.41 45.24 3.28999 45.54 3.43999C50.58 6.02999 54.82 9.94 57.82 14.75C60.9 19.7 62.54 25.41 62.54 31.27C62.54 39.62 59.29 47.48 53.38 53.38C47.47 59.29 39.62 62.54 31.27 62.54Z" fill="#1E2248"/>
<path d="M42.5 42C33.9535 42 27 35.0465 27 26.5C27 17.9535 33.9535 11 42.5 11C51.0465 11 58 17.9535 58 26.5C58 35.0465 51.0465 42 42.5 42ZM43.4257 32.6677C43.3719 32.6677 43.3073 32.6892 43.2642 32.7323C43.2212 32.7753 43.1997 32.8292 43.1997 32.8937V40.2778C43.1997 40.3424 43.2319 40.4069 43.2858 40.45C43.3288 40.4823 43.3719 40.5038 43.4257 40.5038H43.4795C45.8368 39.9656 48.0003 37.4361 49.2705 33.7441C49.292 33.6903 49.2813 33.6257 49.2597 33.5611C49.2274 33.5073 49.1736 33.4642 49.1198 33.4535C47.3438 33.0014 45.4385 32.7323 43.4472 32.6785L43.4257 32.6677ZM41.5743 32.6677C39.583 32.7323 37.667 32.9906 35.9017 33.4535C35.8372 33.4642 35.7941 33.5073 35.7618 33.5611C35.7295 33.6149 35.7295 33.6795 35.751 33.7441C37.0212 37.4361 39.1847 39.9549 41.542 40.4931H41.5958C41.5958 40.4931 41.6927 40.4823 41.7358 40.45C41.7896 40.4069 41.8219 40.3424 41.8219 40.2778V32.8937C41.8219 32.8292 41.8004 32.7753 41.7573 32.7323C41.7142 32.6892 41.6604 32.6677 41.5958 32.6677H41.5743ZM34.158 33.9917H34.0826C33.2 34.3254 32.3927 34.6913 31.6715 35.1111C31.6177 35.1434 31.5747 35.1972 31.5639 35.2618C31.5531 35.3264 31.5639 35.391 31.6069 35.4448C32.9632 37.0917 34.707 38.4372 36.6445 39.3306C36.6767 39.3413 36.709 39.3521 36.7413 39.3521C36.8059 39.3521 36.8705 39.3198 36.9135 39.266C36.9781 39.1799 36.9781 39.0722 36.9135 38.9861C35.8587 37.6944 34.9976 36.0583 34.3625 34.1531C34.341 34.0993 34.2979 34.0455 34.2441 34.024C34.2118 34.0132 34.1795 34.0024 34.1472 34.0024L34.158 33.9917ZM50.8635 33.9917C50.8635 33.9917 50.799 33.9917 50.7667 34.0132C50.7128 34.0347 50.6698 34.0885 50.6483 34.1424C50.0024 36.0583 49.1521 37.6837 48.0972 38.9753C48.0326 39.0507 48.0326 39.1691 48.0972 39.2552C48.1403 39.309 48.2049 39.3413 48.2694 39.3413C48.3017 39.3413 48.334 39.3413 48.3663 39.3198C50.3038 38.4264 52.0476 37.0917 53.4038 35.4448C53.4469 35.391 53.4576 35.3264 53.4469 35.2618C53.4361 35.1972 53.3931 35.1434 53.3392 35.1111C52.6181 34.6913 51.8108 34.3253 50.9389 34.0024H50.8635V33.9917ZM52.0368 27.1889C51.9184 27.1889 51.8215 27.2858 51.8108 27.4042C51.7569 29.1264 51.5309 30.7948 51.1542 32.3771C51.1326 32.4847 51.1865 32.6031 51.2941 32.6462C52.3705 33.0229 53.35 33.475 54.2003 33.9809C54.2326 34.0024 54.2757 34.0132 54.3188 34.0132C54.3941 34.0132 54.4694 33.9809 54.5125 33.9056C55.718 31.9573 56.4392 29.7184 56.5899 27.4257C56.5899 27.3611 56.5684 27.3073 56.5254 27.2535C56.4823 27.2104 56.4285 27.1781 56.3639 27.1781H52.0476L52.0368 27.1889ZM28.6684 27.1889C28.6038 27.1889 28.55 27.2104 28.5069 27.2642C28.4639 27.3073 28.4424 27.3719 28.4424 27.4365C28.5931 29.7292 29.3142 31.9681 30.5198 33.9056C30.5629 33.9701 30.6382 34.0132 30.7135 34.0132C30.7566 34.0132 30.7889 34.0132 30.8319 33.9809C31.6823 33.475 32.651 33.0337 33.7382 32.6462C33.8458 32.6031 33.9104 32.4955 33.8781 32.3878C33.5014 30.8056 33.2753 29.1372 33.2215 27.4149C33.2215 27.2965 33.1139 27.1996 32.9955 27.1996H28.6792L28.6684 27.1889ZM34.8361 27.1889C34.7715 27.1889 34.7177 27.2104 34.6747 27.2535C34.6316 27.2965 34.6101 27.3611 34.6101 27.4149C34.6747 28.9757 34.8792 30.4934 35.2236 31.9358C35.2344 31.9896 35.2774 32.0434 35.3313 32.0757C35.3635 32.0972 35.4066 32.108 35.4497 32.108H35.5035C37.4194 31.6021 39.4646 31.3222 41.5958 31.2576C41.7142 31.2576 41.8111 31.15 41.8111 31.0316V27.4149C41.8111 27.2965 41.7142 27.1889 41.5851 27.1889H34.8361ZM43.4365 27.1889C43.3181 27.1889 43.2104 27.2858 43.2104 27.4149V31.0316C43.2104 31.15 43.3073 31.2469 43.4257 31.2576C45.5569 31.3222 47.6021 31.6021 49.518 32.108H49.5719C49.5719 32.108 49.6472 32.108 49.6903 32.0865C49.7441 32.0542 49.7764 32.0003 49.7871 31.9465C50.1316 30.5042 50.3469 28.9865 50.4007 27.4257C50.4007 27.3611 50.3792 27.3073 50.3361 27.2642C50.2931 27.2212 50.2392 27.1996 50.1746 27.1996H43.4257L43.4365 27.1889ZM54.308 18.9653C54.308 18.9653 54.2326 18.9653 54.1896 18.9976C53.3392 19.5035 52.3705 19.9556 51.2833 20.3323C51.1757 20.3753 51.1111 20.483 51.1434 20.5906C51.5201 22.1729 51.7462 23.8413 51.8 25.5635C51.8 25.6819 51.9076 25.7788 52.026 25.7788H56.3424C56.4069 25.7788 56.4608 25.7573 56.5038 25.7035C56.5469 25.6604 56.5684 25.5958 56.5684 25.5313C56.4177 23.2385 55.6965 20.9997 54.491 19.0514C54.4479 18.9868 54.3726 18.9437 54.2972 18.9437L54.308 18.9653ZM49.5719 20.8705H49.518C47.6128 21.3764 45.5569 21.6563 43.4257 21.7208C43.3073 21.7208 43.2104 21.8285 43.2104 21.9469V25.5635C43.2104 25.6819 43.3073 25.7896 43.4365 25.7896H50.1854C50.25 25.7896 50.3038 25.7681 50.3469 25.725C50.3899 25.6819 50.4115 25.6174 50.4115 25.5635C50.3469 24.0028 50.1424 22.4851 49.7979 21.0427C49.7872 20.9889 49.7441 20.9351 49.701 20.9028C49.6687 20.8812 49.6257 20.8705 49.5826 20.8705H49.5719ZM35.4389 20.8705C35.4389 20.8705 35.3635 20.8812 35.3205 20.9028C35.2667 20.9351 35.2344 20.9889 35.2129 21.0427C34.8684 22.4851 34.6531 24.0028 34.5993 25.5635C34.5993 25.6281 34.6208 25.6819 34.6639 25.725C34.7069 25.7681 34.7608 25.7896 34.8254 25.7896H41.5743C41.7035 25.7896 41.8003 25.6927 41.8003 25.5635V21.9469C41.8003 21.8285 41.7035 21.7316 41.5851 21.7208C39.4538 21.6563 37.4087 21.3764 35.4927 20.8705H35.4389ZM30.7028 18.9653C30.6274 18.9653 30.5521 18.9976 30.509 19.0729C29.3035 21.0212 28.5823 23.2601 28.4316 25.542C28.4316 25.6066 28.4531 25.6604 28.4962 25.7142C28.5392 25.7573 28.593 25.7896 28.6576 25.7896H32.974C33.0924 25.7896 33.1892 25.6927 33.2 25.5743C33.2538 23.8521 33.4799 22.1837 33.8566 20.6014C33.8781 20.4937 33.8243 20.3753 33.7167 20.3431C32.6403 19.9663 31.6608 19.5142 30.8104 19.0083C30.7781 18.9868 30.7351 18.976 30.692 18.976L30.7028 18.9653ZM43.4257 12.4854C43.4257 12.4854 43.3288 12.5069 43.2858 12.5392C43.2319 12.5823 43.1997 12.6469 43.1997 12.7115V20.0955C43.1997 20.1601 43.2212 20.2139 43.2642 20.2569C43.3073 20.3 43.3611 20.3215 43.4257 20.3215C45.417 20.2569 47.333 19.9986 49.0983 19.5358C49.1628 19.525 49.2059 19.4819 49.2382 19.4281C49.2705 19.3743 49.2705 19.3097 49.249 19.2451C47.9788 15.5531 45.8153 13.0344 43.458 12.4962H43.4042L43.4257 12.4854ZM41.5743 12.4854H41.5205C39.1632 13.0236 36.9997 15.5531 35.7295 19.2451C35.708 19.299 35.7187 19.3743 35.7403 19.4281C35.7726 19.4819 35.8156 19.525 35.8802 19.5358C37.6562 19.9878 39.5615 20.2569 41.5528 20.3215C41.6066 20.3215 41.6712 20.3 41.7142 20.2569C41.7573 20.2139 41.7788 20.1601 41.7788 20.0955V12.7115C41.7788 12.6469 41.7465 12.5823 41.6927 12.5392C41.6496 12.5069 41.6066 12.4854 41.5528 12.4854H41.5743ZM48.2587 13.6372C48.1941 13.6372 48.1295 13.6694 48.0865 13.7233C48.0219 13.8094 48.0219 13.917 48.0865 14.0031C49.1413 15.3056 50.0024 16.9309 50.6375 18.8361C50.659 18.8899 50.7021 18.9438 50.7559 18.9653C50.7882 18.976 50.8205 18.9868 50.8528 18.9868H50.9281C51.8108 18.6531 52.6181 18.2872 53.3285 17.8674C53.3823 17.8351 53.4253 17.7812 53.4361 17.7167C53.4469 17.6521 53.4361 17.5875 53.3931 17.5337C52.0368 15.8868 50.293 14.5413 48.3555 13.6479C48.3233 13.6372 48.291 13.6264 48.2587 13.6264V13.6372ZM36.7413 13.6372C36.7413 13.6372 36.6767 13.6372 36.6445 13.6587C34.707 14.5521 32.9632 15.8868 31.6069 17.5444C31.5639 17.5983 31.5424 17.6628 31.5639 17.7274C31.5747 17.792 31.6177 17.8458 31.6715 17.8781C32.3819 18.2872 33.1892 18.6639 34.0826 18.9868H34.158C34.158 18.9868 34.2226 18.9868 34.2549 18.9868C34.3087 18.9653 34.3517 18.9115 34.3733 18.8576C35.0191 16.9417 35.8694 15.3163 36.9243 14.0247C36.9889 13.9493 36.9889 13.8309 36.9243 13.7448C36.8812 13.691 36.8167 13.6587 36.7521 13.6587L36.7413 13.6372Z" fill="#1E2248"/>
<path d="M48.5801 12.7292C48.5801 12.8992 48.5101 13.0592 48.4001 13.1692C48.2901 13.2792 48.1301 13.3492 47.9601 13.3492C47.7901 13.3492 47.6401 13.2792 47.5201 13.1692C47.4101 13.0592 47.3401 12.8992 47.3401 12.7292C47.3401 12.5592 47.4101 12.3992 47.5201 12.2892C47.6301 12.1792 47.7901 12.1092 47.9601 12.1092C48.1301 12.1092 48.2901 12.1792 48.4001 12.2892C48.5101 12.3992 48.5801 12.5592 48.5801 12.7292ZM42.6301 41.7992C40.5901 41.7992 38.6101 41.3992 36.7801 40.6392C34.9501 39.8792 33.2601 38.7592 31.8201 37.3192C30.3801 35.8792 29.2601 34.1892 28.5001 32.3592C27.7401 30.5292 27.3401 28.5392 27.3401 26.4992C27.3401 24.4592 27.7401 22.4792 28.5001 20.6392C29.2601 18.8092 30.3801 17.1192 31.8201 15.6792C33.2601 14.2392 34.9501 13.1192 36.7801 12.3592C38.6101 11.5992 40.5901 11.1992 42.6301 11.1992C42.7801 11.1992 42.9101 11.2592 43.0101 11.3592C43.1101 11.4592 43.1701 11.5892 43.1701 11.7392C43.1701 11.8892 43.1101 12.0192 43.0101 12.1192C42.9101 12.2192 42.7801 12.2792 42.6301 12.2792C40.7301 12.2792 38.8901 12.6492 37.1901 13.3492C35.4901 14.0492 33.9201 15.0992 32.5801 16.4392C31.2401 17.7792 30.1901 19.3492 29.4901 21.0492C28.7901 22.7492 28.4201 24.5892 28.4201 26.4892C28.4201 28.3892 28.7901 30.2292 29.4901 31.9392C30.1901 33.6392 31.2401 35.1992 32.5801 36.5492C33.9201 37.8892 35.4901 38.9392 37.1901 39.6392C38.8901 40.3392 40.7301 40.7092 42.6301 40.7092C44.5301 40.7092 46.3701 40.3392 48.0801 39.6392C49.7801 38.9392 51.3501 37.8892 52.6901 36.5492C54.0301 35.2092 55.0801 33.6392 55.7801 31.9392C56.4801 30.2392 56.8501 28.3992 56.8501 26.4892C56.8501 25.1592 56.6601 23.8392 56.3001 22.5792C55.9401 21.3192 55.4001 20.0992 54.7001 18.9792C54.0201 17.8892 53.1901 16.8892 52.2501 16.0292C51.3101 15.1592 50.2501 14.4192 49.1101 13.8392C48.9801 13.7692 48.8901 13.6592 48.8401 13.5292C48.8001 13.3992 48.8101 13.2492 48.8701 13.1192C48.9401 12.9792 49.0501 12.8892 49.1801 12.8492C49.3101 12.8092 49.4601 12.8192 49.5901 12.8792C50.8201 13.5092 51.9601 14.3092 52.9701 15.2392C53.9801 16.1692 54.8701 17.2392 55.6001 18.4192C56.3501 19.6292 56.9301 20.9292 57.3201 22.2892C57.7101 23.6492 57.9101 25.0692 57.9101 26.4992C57.9101 28.5392 57.5101 30.5192 56.7501 32.3592C55.9901 34.1892 54.8701 35.8792 53.4301 37.3192C51.9901 38.7592 50.3001 39.8792 48.4701 40.6392C46.6401 41.3992 44.6601 41.7992 42.6101 41.7992H42.6301ZM46.5101 12.7992H46.4401L46.3701 12.7792C46.1201 12.7092 45.8801 12.6492 45.6401 12.5992C45.3901 12.5492 45.1501 12.4992 44.9201 12.4592H44.8901C44.7401 12.4292 44.6201 12.3492 44.5401 12.2392C44.4701 12.1392 44.4301 12.0092 44.4401 11.8692V11.8392C44.4701 11.6892 44.5501 11.5692 44.6601 11.4892C44.7701 11.4092 44.9101 11.3692 45.0601 11.3892C45.3301 11.4292 45.6001 11.4792 45.8601 11.5392C46.1201 11.5892 46.3801 11.6592 46.6501 11.7292C46.7901 11.7692 46.9101 11.8592 46.9801 11.9792C47.0501 12.0992 47.0701 12.2492 47.0301 12.3892C47.0001 12.5092 46.9301 12.6092 46.8401 12.6792C46.7501 12.7492 46.6301 12.7892 46.5101 12.7892V12.7992Z" fill="#1E2248"/>
</svg>
