<svg width="63" height="63" viewBox="0 0 63 63" fill="none" xmlns="http://www.w3.org/2000/svg">
<path d="M26.09 22.3806L6.64997 40.6705C6.53997 40.7805 6.46997 40.9206 6.46997 41.0806C6.46997 41.2406 6.52997 41.3906 6.63997 41.5006L9.74997 44.6105C9.85997 44.7206 10.01 44.7806 10.17 44.7806C10.33 44.7806 10.47 44.7106 10.58 44.6006L28.88 25.1606C29.09 24.9306 29.09 24.5806 28.87 24.3606L26.91 22.4006C26.69 22.1806 26.33 22.1705 26.11 22.3905" fill="#1E2248"/>
<path d="M44.7799 44.2093C44.6599 44.0893 44.4999 44.0293 44.3399 44.0293H25.0899C24.9199 44.0293 24.7599 44.0993 24.6499 44.2093C24.5299 44.3293 24.4699 44.4893 24.4699 44.6493V46.7893H22.2699V48.9293H18.9199V51.0693H50.5099V48.9293H47.1599V46.7893H44.9599V44.6493C44.9599 44.4793 44.8899 44.3293 44.7799 44.2093Z" fill="#1267FE"/>
<path d="M23.22 16.4898L34.4 27.6698L42.05 20.0099C42.13 19.9299 42.21 19.8698 42.29 19.8098L31.07 8.58984C31.01 8.66984 30.95 8.75983 30.87 8.82983L23.21 16.4898H23.22Z" fill="white"/>
<path d="M23.22 16.4898L34.4 27.6698L42.05 20.0099C42.13 19.9299 42.21 19.8698 42.29 19.8098L31.07 8.58984C31.01 8.66984 30.95 8.75983 30.87 8.82983L23.21 16.4898H23.22Z" stroke="#1E2248" stroke-miterlimit="10"/>
<path d="M42.3001 19.8095C42.2201 19.8695 42.1301 19.9295 42.0601 20.0095L34.4101 27.6695L34.3001 27.7795C33.3801 28.6995 33.3801 30.1895 34.3001 31.1095C35.2201 32.0295 36.7101 32.0295 37.6301 31.1095L45.3901 23.3495C46.3101 22.4295 46.3101 20.9395 45.3901 20.0195C44.5501 19.1795 43.2301 19.1195 42.3101 19.8195" fill="#1267FE"/>
<path d="M27.5501 5.50055L19.7901 13.2606C18.8701 14.1806 18.8701 15.6705 19.7901 16.5905C20.7101 17.5105 22.2001 17.5105 23.1201 16.5905L23.2301 16.4806L30.8901 8.82055C30.9701 8.74055 31.0301 8.66053 31.0901 8.58053C31.7901 7.66053 31.7301 6.34055 30.8901 5.50055C29.9701 4.58055 28.4801 4.58055 27.5601 5.50055" fill="#1267FE"/>
<path d="M31.27 62.54C22.92 62.54 15.06 59.29 9.16 53.38C3.25 47.47 0 39.62 0 31.27C0 22.92 3.25 15.06 9.16 9.16C15.07 3.25 22.92 0 31.27 0C31.61 0 31.89 0.279995 31.89 0.619995C31.89 0.959995 31.61 1.23999 31.27 1.23999C23.25 1.23999 15.71 4.36001 10.03 10.04C4.36 15.71 1.23 23.25 1.23 31.28C1.23 39.31 4.36 46.85 10.03 52.52C15.7 58.19 23.25 61.32 31.27 61.32C39.29 61.32 46.84 58.2 52.51 52.52C58.18 46.85 61.31 39.31 61.31 31.28C61.31 25.65 59.75 20.17 56.78 15.41C53.9 10.79 49.82 7.03001 44.98 4.54001C44.68 4.38001 44.55 4.00999 44.71 3.70999C44.87 3.40999 45.24 3.29 45.54 3.44C50.58 6.03 54.82 9.94 57.83 14.75C60.91 19.7 62.54 25.41 62.54 31.27C62.54 39.62 59.29 47.48 53.38 53.38C47.47 59.29 39.62 62.54 31.27 62.54Z" fill="#1E2248"/>
<path d="M39.33 2.30038C39.28 2.30038 39.22 2.30039 39.17 2.28039C38.15 2.00039 37.1 1.78038 36.06 1.61038C35.72 1.56038 35.49 1.24039 35.55 0.900389C35.6 0.560389 35.92 0.330379 36.26 0.390379C37.35 0.560379 38.44 0.800391 39.5 1.09039C39.83 1.18039 40.02 1.5204 39.94 1.8504C39.86 2.1304 39.61 2.31039 39.34 2.31039" fill="#1E2248"/>
<path d="M43.12 2.63959C43.12 3.06959 42.76 3.4296 42.33 3.4296C41.9 3.4296 41.54 3.07959 41.54 2.63959C41.54 2.19959 41.89 1.84961 42.33 1.84961C42.77 1.84961 43.12 2.19959 43.12 2.63959Z" fill="#1E2248"/>
</svg>
