<svg width="63" height="63" viewBox="0 0 63 63" fill="none" xmlns="http://www.w3.org/2000/svg">
<path d="M13.95 21.0312V22.6412H52.04C52.31 22.6412 52.54 22.8613 52.54 23.1313V52.9113C53.24 52.2513 53.91 51.5413 54.55 50.8213V21.0312H13.96H13.95Z" fill="white"/>
<path d="M18.32 24.1895C17.59 24.1895 17.09 24.6894 17 25.4794H19.72C19.66 24.9094 19.37 24.1895 18.32 24.1895Z" fill="#1267FE"/>
<path d="M19.7598 23.6309C20.3098 24.0209 20.6498 24.6608 20.7198 25.4808H41.6498C41.7098 25.4808 41.7698 25.4908 41.8198 25.5208C41.8198 25.5208 41.8298 25.5208 41.8398 25.5208C41.8598 25.5308 41.8798 25.5408 41.8998 25.5508C41.8998 25.5508 41.9098 25.5609 41.9198 25.5609C41.9398 25.5809 41.9698 25.5908 41.9898 25.6208L49.7898 33.4208C49.7898 33.4208 49.8298 33.4708 49.8498 33.4908V33.5108C49.8498 33.5108 49.8898 33.5509 49.8898 33.5709V33.5909C49.8898 33.5909 49.9198 33.6508 49.9298 33.6708C49.9298 33.6708 49.9298 33.7308 49.9298 33.7608V55.1108C50.4798 54.6908 51.0198 54.2609 51.5398 53.8109V23.6309H19.7598Z" fill="#1267FE"/>
<path d="M16.0099 25.4808C16.0799 24.6808 16.43 24.0209 16.97 23.6309H10.95V25.4808H16.0099Z" fill="#1267FE"/>
<path d="M18.7998 36.6003C19.3598 36.6003 19.9298 36.3503 20.2598 35.8203H17.3098C17.6598 36.3503 18.2398 36.6003 18.7998 36.6003Z" fill="white"/>
<path d="M31.4499 61.3203C35.5299 61.3203 39.4199 60.5203 42.9899 59.0703H19.9199C23.4799 60.5203 27.3699 61.3203 31.4599 61.3203" fill="white"/>
<path d="M41.6399 34.2705C41.3699 34.2705 41.1499 34.0505 41.1499 33.7805V26.4805H16.9899V34.6205C16.9899 34.8305 17.0199 35.0205 17.0599 35.2005H20.5199C20.5599 35.0205 20.5799 34.8305 20.5799 34.6205V27.6305C20.5799 27.3605 20.7999 27.1405 21.0799 27.1405C21.3599 27.1405 21.5799 27.3605 21.5799 27.6305V34.6205C21.5799 34.8305 21.5599 35.0205 21.5399 35.2005H44.0799C44.2499 35.2005 44.3899 35.3405 44.3899 35.5105C44.3899 35.6805 44.2499 35.8205 44.0799 35.8205H21.3799C21.2099 36.2805 20.9499 36.6205 20.7299 36.8405C20.2299 37.3305 19.5499 37.6005 18.8199 37.6005C17.7499 37.6005 16.6699 36.9905 16.2199 35.8305H13.2499C13.0799 35.8305 12.9399 35.6905 12.9399 35.5205C12.9399 35.3505 13.0799 35.2105 13.2499 35.2105H16.0599C16.0299 35.0205 16.0099 34.8305 16.0099 34.6305V26.4905H8.35986V50.8405C9.76986 52.4505 11.3499 53.9205 13.0599 55.2105C13.1099 55.1805 13.1699 55.1505 13.2399 55.1505H44.0599C44.2299 55.1505 44.3699 55.2905 44.3699 55.4605C44.3699 55.6305 44.2299 55.7705 44.0599 55.7705H13.8299C15.2999 56.8005 16.8599 57.7105 18.4999 58.4705H44.0699C44.1399 58.4705 44.2099 58.5005 44.2599 58.5405C45.9099 57.7805 47.4799 56.8805 48.9499 55.8505V34.2805H41.6499L41.6399 34.2705ZM44.0599 52.4305H13.2399C13.0699 52.4305 12.9299 52.2905 12.9299 52.1205C12.9299 51.9505 13.0699 51.8105 13.2399 51.8105H44.0599C44.2299 51.8105 44.3699 51.9505 44.3699 52.1205C44.3699 52.2905 44.2299 52.4305 44.0599 52.4305ZM44.0599 49.1105H13.2399C13.0699 49.1105 12.9299 48.9705 12.9299 48.8005C12.9299 48.6305 13.0699 48.4905 13.2399 48.4905H44.0599C44.2299 48.4905 44.3699 48.6305 44.3699 48.8005C44.3699 48.9705 44.2299 49.1105 44.0599 49.1105ZM44.0599 45.7905H13.2399C13.0699 45.7905 12.9299 45.6505 12.9299 45.4805C12.9299 45.3105 13.0699 45.1705 13.2399 45.1705H44.0599C44.2299 45.1705 44.3699 45.3105 44.3699 45.4805C44.3699 45.6505 44.2299 45.7905 44.0599 45.7905ZM44.0599 42.4705H13.2399C13.0699 42.4705 12.9299 42.3305 12.9299 42.1605C12.9299 41.9905 13.0699 41.8505 13.2399 41.8505H44.0599C44.2299 41.8505 44.3699 41.9905 44.3699 42.1605C44.3699 42.3305 44.2299 42.4705 44.0599 42.4705ZM44.0599 39.1505H13.2399C13.0699 39.1505 12.9299 39.0105 12.9299 38.8405C12.9299 38.6705 13.0699 38.5305 13.2399 38.5305H44.0599C44.2299 38.5305 44.3699 38.6705 44.3699 38.8405C44.3699 39.0105 44.2299 39.1505 44.0599 39.1505Z" fill="white"/>
<path d="M42.1399 33.2799H48.2399L42.1399 27.1699V33.2799Z" fill="white"/>
<path d="M20.2598 35.8212C20.3698 35.6412 20.4498 35.4412 20.5098 35.2012H17.0498C17.1098 35.4412 17.1898 35.6412 17.3098 35.8212H20.2598Z" fill="#1267FE"/>
<path d="M13.2299 35.2012C13.0599 35.2012 12.9199 35.3412 12.9199 35.5112C12.9199 35.6812 13.0599 35.8212 13.2299 35.8212H16.1999C16.1299 35.6312 16.0699 35.4212 16.0399 35.2012H13.2299Z" fill="#1267FE"/>
<path d="M44.0599 35.8212C44.2299 35.8212 44.3699 35.6812 44.3699 35.5112C44.3699 35.3412 44.2299 35.2012 44.0599 35.2012H21.5199C21.4799 35.4312 21.4299 35.6312 21.3599 35.8212H44.0599Z" fill="#1267FE"/>
<path d="M44.0599 38.5195H13.2399C13.0699 38.5195 12.9299 38.6595 12.9299 38.8295C12.9299 38.9995 13.0699 39.1395 13.2399 39.1395H44.0599C44.2299 39.1395 44.3699 38.9995 44.3699 38.8295C44.3699 38.6595 44.2299 38.5195 44.0599 38.5195Z" fill="#1267FE"/>
<path d="M44.0599 41.8398H13.2399C13.0699 41.8398 12.9299 41.9798 12.9299 42.1498C12.9299 42.3198 13.0699 42.4598 13.2399 42.4598H44.0599C44.2299 42.4598 44.3699 42.3198 44.3699 42.1498C44.3699 41.9798 44.2299 41.8398 44.0599 41.8398Z" fill="#1267FE"/>
<path d="M44.0599 45.1602H13.2399C13.0699 45.1602 12.9299 45.3002 12.9299 45.4702C12.9299 45.6402 13.0699 45.7802 13.2399 45.7802H44.0599C44.2299 45.7802 44.3699 45.6402 44.3699 45.4702C44.3699 45.3002 44.2299 45.1602 44.0599 45.1602Z" fill="#1267FE"/>
<path d="M44.0599 48.4902H13.2399C13.0699 48.4902 12.9299 48.6302 12.9299 48.8002C12.9299 48.9702 13.0699 49.1102 13.2399 49.1102H44.0599C44.2299 49.1102 44.3699 48.9702 44.3699 48.8002C44.3699 48.6302 44.2299 48.4902 44.0599 48.4902Z" fill="#1267FE"/>
<path d="M44.0599 51.8008H13.2399C13.0699 51.8008 12.9299 51.9408 12.9299 52.1108C12.9299 52.2808 13.0699 52.4208 13.2399 52.4208H44.0599C44.2299 52.4208 44.3699 52.2808 44.3699 52.1108C44.3699 51.9408 44.2299 51.8008 44.0599 51.8008Z" fill="#1267FE"/>
<path d="M44.0598 55.7509C44.2298 55.7509 44.3698 55.6109 44.3698 55.4409C44.3698 55.2709 44.2298 55.1309 44.0598 55.1309H13.2398C13.1698 55.1309 13.1098 55.1509 13.0598 55.1909C13.3098 55.3809 13.5698 55.5709 13.8298 55.7509H44.0598Z" fill="#1267FE"/>
<path d="M18.49 58.4512C18.96 58.6712 19.43 58.8812 19.91 59.0712H42.98C43.41 58.9012 43.83 58.7112 44.25 58.5212C44.2 58.4812 44.13 58.4512 44.06 58.4512H18.49Z" fill="#1267FE"/>
<path d="M55.04 20.0413H13.46C13.19 20.0413 12.97 20.2612 12.97 20.5312V22.6313H13.96V21.0212H54.55V50.8112C54.89 50.4212 55.22 50.0212 55.54 49.6212V20.5212C55.54 20.2512 55.32 20.0312 55.05 20.0312" fill="#1E2248"/>
<path d="M52.04 22.6309H10.46C10.19 22.6309 9.96997 22.8508 9.96997 23.1208V25.4709H10.96V23.6208H16.9799C17.3499 23.3408 17.81 23.1909 18.34 23.1909C18.91 23.1909 19.39 23.3408 19.78 23.6208H51.56V53.8008C51.9 53.5108 52.23 53.2108 52.55 52.9008V23.1208C52.55 22.8508 52.33 22.6309 52.05 22.6309" fill="#1E2248"/>
<path d="M41.8999 25.5605C41.8999 25.5605 41.9099 25.5706 41.9199 25.5706C41.9199 25.5706 41.9099 25.5705 41.8999 25.5605Z" fill="#1E2248"/>
<path d="M49.9299 33.7598C49.9299 33.8298 49.9299 33.8898 49.8899 33.9598C49.8099 34.1498 49.6299 34.2598 49.4299 34.2598H48.9399V55.8298C49.2699 55.5998 49.6099 55.3598 49.9299 55.1098V33.7698" fill="#1E2248"/>
<path d="M20.24 26.2602C19.97 26.2602 19.75 26.0402 19.75 25.7702C19.75 25.6802 19.75 25.5902 19.73 25.4902H17.01C17 25.5802 16.99 25.6802 16.99 25.7702V26.4802H41.15V25.9902C41.15 25.7902 41.27 25.6102 41.46 25.5302C41.52 25.5102 41.59 25.4902 41.66 25.5002H20.73C20.73 25.5902 20.74 25.6802 20.74 25.7802C20.74 26.0502 20.52 26.2702 20.24 26.2702" fill="#1E2248"/>
<path d="M15.9999 26.4705V25.7605C15.9999 25.6605 15.9999 25.5705 16.0099 25.4805H7.85986C7.58986 25.4805 7.36987 25.7005 7.36987 25.9805V49.6305C7.68987 50.0305 8.01986 50.4305 8.35986 50.8205V26.4705H16.0099H15.9999Z" fill="#1E2248"/>
<path d="M41.1499 25.9802V33.7702C41.1499 34.0402 41.3699 34.2602 41.6399 34.2602H49.4399C49.6399 34.2602 49.8199 34.1402 49.8999 33.9602C49.9299 33.8902 49.9399 33.8302 49.9399 33.7602C49.9399 33.7302 49.9399 33.7002 49.9399 33.6702C49.9399 33.6702 49.9299 33.6102 49.9199 33.5902V33.5703C49.9199 33.5703 49.8899 33.5302 49.8799 33.5102V33.4902C49.8799 33.4902 49.8299 33.4402 49.8099 33.4202L42.0099 25.6202C42.0099 25.6202 41.9699 25.5802 41.9399 25.5602C41.9399 25.5602 41.9299 25.5602 41.9199 25.5502C41.8999 25.5402 41.8799 25.5302 41.8599 25.5202H41.8399C41.7899 25.5002 41.7299 25.4902 41.6699 25.4902C41.5999 25.4902 41.5399 25.5002 41.4699 25.5202C41.2899 25.6002 41.1599 25.7802 41.1599 25.9802M48.2599 33.2802H42.1499V27.1702L48.2599 33.2802Z" fill="#1E2248"/>
<path d="M31.27 62.54C22.92 62.54 15.06 59.29 9.16 53.38C3.25 47.47 0 39.62 0 31.27C0 22.92 3.25 15.06 9.16 9.16C15.07 3.25 22.92 0 31.27 0C31.61 0 31.89 0.279995 31.89 0.619995C31.89 0.959995 31.61 1.23999 31.27 1.23999C23.25 1.23999 15.71 4.36001 10.03 10.04C4.36 15.71 1.22998 23.25 1.22998 31.28C1.22998 39.31 4.36 46.85 10.03 52.52C15.7 58.19 23.25 61.32 31.27 61.32C39.29 61.32 46.84 58.2 52.51 52.52C58.18 46.85 61.31 39.31 61.31 31.28C61.31 25.65 59.75 20.17 56.78 15.41C53.9 10.79 49.82 7.03001 44.98 4.54001C44.68 4.38001 44.55 4.00999 44.71 3.70999C44.87 3.40999 45.24 3.29 45.54 3.44C50.58 6.03 54.82 9.94 57.83 14.75C60.91 19.7 62.54 25.41 62.54 31.27C62.54 39.62 59.29 47.48 53.38 53.38C47.47 59.29 39.62 62.54 31.27 62.54Z" fill="#1E2248"/>
<path d="M39.3298 2.30037C39.2798 2.30037 39.2198 2.30038 39.1698 2.28038C38.1498 2.00038 37.0998 1.78038 36.0598 1.61038C35.7198 1.56038 35.4898 1.24037 35.5498 0.900374C35.5998 0.560374 35.9198 0.330379 36.2598 0.390379C37.3498 0.560379 38.4398 0.800376 39.4998 1.09038C39.8298 1.18038 40.0198 1.52037 39.9398 1.85037C39.8598 2.13037 39.6098 2.31038 39.3398 2.31038" fill="#1E2248"/>
<path d="M43.1298 2.6396C43.1298 3.0696 42.7698 3.42961 42.3398 3.42961C41.9098 3.42961 41.5498 3.0796 41.5498 2.6396C41.5498 2.1996 41.8998 1.84961 42.3398 1.84961C42.7798 1.84961 43.1298 2.1996 43.1298 2.6396Z" fill="#1E2248"/>
<path d="M30.77 43.411C31.37 43.411 31.96 43.581 32.48 43.891C32.92 44.181 33.41 44.331 33.91 44.331C34.85 44.331 35.69 43.811 36.1 42.981C36.67 41.851 37.87 41.151 39.12 41.261C39.16 41.261 39.21 41.261 39.26 41.261C39.93 41.261 40.58 40.981 41.05 40.491C41.52 40.001 41.75 39.351 41.72 38.661C41.62 37.431 42.31 36.211 43.44 35.641C44.02 35.331 44.44 34.791 44.63 34.121C44.83 33.411 44.73 32.651 44.35 32.021C43.7 30.941 43.71 29.661 44.35 28.591C44.77 27.961 44.9 27.211 44.71 26.521C44.53 25.841 44.08 25.291 43.44 24.971C42.3 24.401 41.61 23.191 41.72 21.951C41.76 21.291 41.51 20.621 41.05 20.121C40.55 19.591 39.87 19.311 39.12 19.351C39.05 19.351 38.96 19.351 38.88 19.351C37.73 19.351 36.64 18.671 36.11 17.621C35.69 16.831 34.83 16.331 33.86 16.331C33.37 16.331 32.9 16.461 32.48 16.711C31.44 17.341 30.11 17.341 29.06 16.711C28.64 16.431 28.17 16.291 27.68 16.291C26.75 16.291 25.86 16.821 25.43 17.631C24.86 18.751 23.66 19.451 22.41 19.341C22.37 19.341 22.33 19.341 22.28 19.341C21.61 19.341 20.96 19.621 20.49 20.121C20.02 20.611 19.78 21.271 19.82 21.951C19.93 23.181 19.23 24.391 18.1 24.961C17.52 25.271 17.1 25.811 16.91 26.481C16.71 27.191 16.81 27.961 17.19 28.581C17.84 29.651 17.84 30.931 17.19 32.011C16.77 32.641 16.65 33.391 16.83 34.081C17.01 34.761 17.46 35.311 18.1 35.631C19.24 36.201 19.93 37.421 19.82 38.661C19.78 39.321 20.03 39.991 20.5 40.481C21 41.011 21.7 41.291 22.43 41.241C22.5 41.241 22.58 41.241 22.66 41.241C23.82 41.241 24.91 41.921 25.44 42.971C25.86 43.761 26.72 44.261 27.69 44.261C28.18 44.261 28.65 44.131 29.07 43.881C29.59 43.561 30.18 43.401 30.78 43.401L30.77 43.411Z" fill="white"/>
<path d="M30.77 43.411C31.37 43.411 31.96 43.581 32.48 43.891C32.92 44.181 33.41 44.331 33.91 44.331C34.85 44.331 35.69 43.811 36.1 42.981C36.67 41.851 37.87 41.151 39.12 41.261C39.16 41.261 39.21 41.261 39.26 41.261C39.93 41.261 40.58 40.981 41.05 40.491C41.52 40.001 41.75 39.351 41.72 38.661C41.62 37.431 42.31 36.211 43.44 35.641C44.02 35.331 44.44 34.791 44.63 34.121C44.83 33.411 44.73 32.651 44.35 32.021C43.7 30.941 43.71 29.661 44.35 28.591C44.77 27.961 44.9 27.211 44.71 26.521C44.53 25.841 44.08 25.291 43.44 24.971C42.3 24.401 41.61 23.191 41.72 21.951C41.76 21.291 41.51 20.621 41.05 20.121C40.55 19.591 39.87 19.311 39.12 19.351C39.05 19.351 38.96 19.351 38.88 19.351C37.73 19.351 36.64 18.671 36.11 17.621C35.69 16.831 34.83 16.331 33.86 16.331C33.37 16.331 32.9 16.461 32.48 16.711C31.44 17.341 30.11 17.341 29.06 16.711C28.64 16.431 28.17 16.291 27.68 16.291C26.75 16.291 25.86 16.821 25.43 17.631C24.86 18.751 23.66 19.451 22.41 19.341C22.37 19.341 22.33 19.341 22.28 19.341C21.61 19.341 20.96 19.621 20.49 20.121C20.02 20.611 19.78 21.271 19.82 21.951C19.93 23.181 19.23 24.391 18.1 24.961C17.52 25.271 17.1 25.811 16.91 26.481C16.71 27.191 16.81 27.961 17.19 28.581C17.84 29.651 17.84 30.931 17.19 32.011C16.77 32.641 16.65 33.391 16.83 34.081C17.01 34.761 17.46 35.311 18.1 35.631C19.24 36.201 19.93 37.421 19.82 38.661C19.78 39.321 20.03 39.991 20.5 40.481C21 41.011 21.7 41.291 22.43 41.241C22.5 41.241 22.58 41.241 22.66 41.241C23.82 41.241 24.91 41.921 25.44 42.971C25.86 43.761 26.72 44.261 27.69 44.261C28.18 44.261 28.65 44.131 29.07 43.881C29.59 43.561 30.18 43.401 30.78 43.401L30.77 43.411Z" stroke="#1E2248" stroke-width="0.62" stroke-miterlimit="10"/>
<path d="M33.9099 45.0301C33.2699 45.0301 32.6499 44.8401 32.1099 44.4801C31.3099 44.0001 30.2499 43.9901 29.4299 44.4801C28.9099 44.7901 28.3099 44.9601 27.6899 44.9601C26.4699 44.9601 25.3699 44.3201 24.8199 43.2901C24.3799 42.4101 23.4499 41.8701 22.4799 41.9501C22.4099 41.9501 22.3499 41.9501 22.2899 41.9501C21.4099 41.9501 20.5999 41.6001 19.9999 40.9601C19.3999 40.3301 19.0899 39.4701 19.1399 38.6101C19.2199 37.6401 18.6899 36.7001 17.7999 36.2601C16.9799 35.8501 16.3999 35.1401 16.1699 34.2701C15.9299 33.3801 16.0899 32.4201 16.6099 31.6401C17.1199 30.8001 17.1199 29.7901 16.6099 28.9501C16.1399 28.1601 16.0099 27.1901 16.2599 26.3001C16.4999 25.4401 17.0499 24.7501 17.7999 24.3401C18.6799 23.9001 19.2299 22.9401 19.1499 22.0001C19.0999 21.1101 19.4099 20.2701 20.0099 19.6401C20.6499 18.9601 21.5599 18.6001 22.4899 18.6501C22.5599 18.6501 22.6299 18.6501 22.6899 18.6501C23.5799 18.6501 24.4199 18.1201 24.8399 17.3001C25.3999 16.2501 26.5199 15.5801 27.7099 15.5801C28.3299 15.5801 28.9399 15.7601 29.4599 16.1101C30.2599 16.5901 31.3199 16.6001 32.1399 16.1101C32.6599 15.8001 33.2599 15.6301 33.8799 15.6301C35.0999 15.6301 36.1999 16.2701 36.7499 17.3001C37.1999 18.1801 38.1299 18.7301 39.0899 18.6401C39.1599 18.6401 39.2199 18.6401 39.2799 18.6401C40.1599 18.6401 40.9699 18.9901 41.5799 19.6301C42.1799 20.2601 42.4899 21.1201 42.4399 21.9901C42.3599 22.9401 42.9099 23.9001 43.7799 24.3401C44.5999 24.7501 45.1799 25.4601 45.4199 26.3401C45.6599 27.2301 45.4899 28.1801 44.9699 28.9601C44.4699 29.7901 44.4699 30.8001 44.9699 31.6501C45.4399 32.4401 45.5699 33.4101 45.3199 34.3001C45.0799 35.1601 44.5299 35.8501 43.7799 36.2501C42.8899 36.7001 42.3499 37.6401 42.4299 38.6001C42.4799 39.4901 42.1699 40.3201 41.5699 40.9601C40.9299 41.6401 40.0199 42.0101 39.0899 41.9501C39.0199 41.9501 38.9599 41.9501 38.8999 41.9501C37.9999 41.9501 37.1599 42.4801 36.7399 43.3001C36.2099 44.3701 35.1299 45.0401 33.9199 45.0401L33.9099 45.0301ZM30.7699 43.4101C31.3699 43.4101 31.9599 43.5801 32.4799 43.8901C32.9199 44.1801 33.4099 44.3301 33.9099 44.3301C34.8499 44.3301 35.6899 43.8101 36.0999 42.9801C36.6699 41.8501 37.8699 41.1501 39.1199 41.2601C39.1599 41.2601 39.2099 41.2601 39.2599 41.2601C39.9299 41.2601 40.5799 40.9801 41.0499 40.4901C41.5199 40.0001 41.7499 39.3501 41.7199 38.6601C41.6199 37.4301 42.3099 36.2101 43.4399 35.6401C44.0199 35.3301 44.4399 34.7901 44.6299 34.1201C44.8299 33.4101 44.7299 32.6501 44.3499 32.0201C43.6999 30.9501 43.7099 29.6601 44.3499 28.6001C44.7699 27.9701 44.8999 27.2201 44.7099 26.5301C44.5299 25.8501 44.0799 25.3001 43.4399 24.9801C42.2999 24.4101 41.6099 23.2001 41.7199 21.9601C41.7599 21.3001 41.5099 20.6301 41.0499 20.1301C40.5499 19.6001 39.8699 19.3201 39.1199 19.3601C39.0499 19.3601 38.9599 19.3601 38.8799 19.3601C37.7299 19.3601 36.6399 18.6801 36.1099 17.6301C35.6899 16.8401 34.8299 16.3401 33.8599 16.3401C33.3699 16.3401 32.8999 16.4701 32.4799 16.7201C31.4399 17.3501 30.1099 17.3501 29.0599 16.7201C28.6399 16.4401 28.1699 16.3001 27.6799 16.3001C26.7499 16.3001 25.8599 16.8301 25.4299 17.6401C24.8599 18.7601 23.6599 19.4601 22.4099 19.3501C22.3699 19.3501 22.3299 19.3501 22.2799 19.3501C21.6099 19.3501 20.9599 19.6301 20.4899 20.1301C20.0199 20.6201 19.7799 21.2801 19.8199 21.9601C19.9299 23.1901 19.2299 24.4001 18.0999 24.9701C17.5199 25.2801 17.0999 25.8201 16.9099 26.4901C16.7099 27.2001 16.8099 27.9701 17.1899 28.5901C17.8399 29.6601 17.8399 30.9401 17.1899 32.0201C16.7699 32.6501 16.6499 33.4001 16.8299 34.0901C17.0099 34.7701 17.4599 35.3201 18.0999 35.6401C19.2399 36.2101 19.9299 37.4301 19.8199 38.6701C19.7799 39.3301 20.0299 40.0001 20.4999 40.4901C20.9999 41.0201 21.6999 41.3001 22.4299 41.2501C22.4999 41.2501 22.5799 41.2501 22.6599 41.2501C23.8199 41.2501 24.9099 41.9301 25.4399 42.9801C25.8599 43.7701 26.7299 44.2701 27.6899 44.2701C28.1799 44.2701 28.6499 44.1401 29.0699 43.8901C29.5899 43.5801 30.1799 43.4101 30.7799 43.4101H30.7699Z" fill="#1E2248"/>
<path d="M33.9099 45.0301C33.2699 45.0301 32.6499 44.8401 32.1099 44.4801C31.3099 44.0001 30.2499 43.9901 29.4299 44.4801C28.9099 44.7901 28.3099 44.9601 27.6899 44.9601C26.4699 44.9601 25.3699 44.3201 24.8199 43.2901C24.3799 42.4101 23.4499 41.8701 22.4799 41.9501C22.4099 41.9501 22.3499 41.9501 22.2899 41.9501C21.4099 41.9501 20.5999 41.6001 19.9999 40.9601C19.3999 40.3301 19.0899 39.4701 19.1399 38.6101C19.2199 37.6401 18.6899 36.7001 17.7999 36.2601C16.9799 35.8501 16.3999 35.1401 16.1699 34.2701C15.9299 33.3801 16.0899 32.4201 16.6099 31.6401C17.1199 30.8001 17.1199 29.7901 16.6099 28.9501C16.1399 28.1601 16.0099 27.1901 16.2599 26.3001C16.4999 25.4401 17.0499 24.7501 17.7999 24.3401C18.6799 23.9001 19.2299 22.9401 19.1499 22.0001C19.0999 21.1101 19.4099 20.2701 20.0099 19.6401C20.6499 18.9601 21.5599 18.6001 22.4899 18.6501C22.5599 18.6501 22.6299 18.6501 22.6899 18.6501C23.5799 18.6501 24.4199 18.1201 24.8399 17.3001C25.3999 16.2501 26.5199 15.5801 27.7099 15.5801C28.3299 15.5801 28.9399 15.7601 29.4599 16.1101C30.2599 16.5901 31.3199 16.6001 32.1399 16.1101C32.6599 15.8001 33.2599 15.6301 33.8799 15.6301C35.0999 15.6301 36.1999 16.2701 36.7499 17.3001C37.1999 18.1801 38.1299 18.7301 39.0899 18.6401C39.1599 18.6401 39.2199 18.6401 39.2799 18.6401C40.1599 18.6401 40.9699 18.9901 41.5799 19.6301C42.1799 20.2601 42.4899 21.1201 42.4399 21.9901C42.3599 22.9401 42.9099 23.9001 43.7799 24.3401C44.5999 24.7501 45.1799 25.4601 45.4199 26.3401C45.6599 27.2301 45.4899 28.1801 44.9699 28.9601C44.4699 29.7901 44.4699 30.8001 44.9699 31.6501C45.4399 32.4401 45.5699 33.4101 45.3199 34.3001C45.0799 35.1601 44.5299 35.8501 43.7799 36.2501C42.8899 36.7001 42.3499 37.6401 42.4299 38.6001C42.4799 39.4901 42.1699 40.3201 41.5699 40.9601C40.9299 41.6401 40.0199 42.0101 39.0899 41.9501C39.0199 41.9501 38.9599 41.9501 38.8999 41.9501C37.9999 41.9501 37.1599 42.4801 36.7399 43.3001C36.2099 44.3701 35.1299 45.0401 33.9199 45.0401L33.9099 45.0301ZM30.7699 43.4101C31.3699 43.4101 31.9599 43.5801 32.4799 43.8901C32.9199 44.1801 33.4099 44.3301 33.9099 44.3301C34.8499 44.3301 35.6899 43.8101 36.0999 42.9801C36.6699 41.8501 37.8699 41.1501 39.1199 41.2601C39.1599 41.2601 39.2099 41.2601 39.2599 41.2601C39.9299 41.2601 40.5799 40.9801 41.0499 40.4901C41.5199 40.0001 41.7499 39.3501 41.7199 38.6601C41.6199 37.4301 42.3099 36.2101 43.4399 35.6401C44.0199 35.3301 44.4399 34.7901 44.6299 34.1201C44.8299 33.4101 44.7299 32.6501 44.3499 32.0201C43.6999 30.9501 43.7099 29.6601 44.3499 28.6001C44.7699 27.9701 44.8999 27.2201 44.7099 26.5301C44.5299 25.8501 44.0799 25.3001 43.4399 24.9801C42.2999 24.4101 41.6099 23.2001 41.7199 21.9601C41.7599 21.3001 41.5099 20.6301 41.0499 20.1301C40.5499 19.6001 39.8699 19.3201 39.1199 19.3601C39.0499 19.3601 38.9599 19.3601 38.8799 19.3601C37.7299 19.3601 36.6399 18.6801 36.1099 17.6301C35.6899 16.8401 34.8299 16.3401 33.8599 16.3401C33.3699 16.3401 32.8999 16.4701 32.4799 16.7201C31.4399 17.3501 30.1099 17.3501 29.0599 16.7201C28.6399 16.4401 28.1699 16.3001 27.6799 16.3001C26.7499 16.3001 25.8599 16.8301 25.4299 17.6401C24.8599 18.7601 23.6599 19.4601 22.4099 19.3501C22.3699 19.3501 22.3299 19.3501 22.2799 19.3501C21.6099 19.3501 20.9599 19.6301 20.4899 20.1301C20.0199 20.6201 19.7799 21.2801 19.8199 21.9601C19.9299 23.1901 19.2299 24.4001 18.0999 24.9701C17.5199 25.2801 17.0999 25.8201 16.9099 26.4901C16.7099 27.2001 16.8099 27.9701 17.1899 28.5901C17.8399 29.6601 17.8399 30.9401 17.1899 32.0201C16.7699 32.6501 16.6499 33.4001 16.8299 34.0901C17.0099 34.7701 17.4599 35.3201 18.0999 35.6401C19.2399 36.2101 19.9299 37.4301 19.8199 38.6701C19.7799 39.3301 20.0299 40.0001 20.4999 40.4901C20.9999 41.0201 21.6999 41.3001 22.4299 41.2501C22.4999 41.2501 22.5799 41.2501 22.6599 41.2501C23.8199 41.2501 24.9099 41.9301 25.4399 42.9801C25.8599 43.7701 26.7299 44.2701 27.6899 44.2701C28.1799 44.2701 28.6499 44.1401 29.0699 43.8901C29.5899 43.5801 30.1799 43.4101 30.7799 43.4101H30.7699Z" stroke="#1E2248" stroke-width="0.62" stroke-miterlimit="10"/>
<path d="M30.7698 40.7209C25.0298 40.7209 20.3499 36.0508 20.3499 30.3008C20.3499 24.5508 25.0198 19.8809 30.7698 19.8809C36.5198 19.8809 41.1898 24.5508 41.1898 30.3008C41.1898 36.0508 36.5198 40.7209 30.7698 40.7209ZM30.7698 20.5909C25.4098 20.5909 21.0498 24.9509 21.0498 30.3109C21.0498 35.6709 25.4098 40.0208 30.7698 40.0208C36.1298 40.0208 40.4798 35.6609 40.4798 30.3109C40.4798 24.9609 36.1198 20.5909 30.7698 20.5909Z" fill="#1267FE"/>
<path d="M30.7698 40.7209C25.0298 40.7209 20.3499 36.0508 20.3499 30.3008C20.3499 24.5508 25.0198 19.8809 30.7698 19.8809C36.5198 19.8809 41.1898 24.5508 41.1898 30.3008C41.1898 36.0508 36.5198 40.7209 30.7698 40.7209ZM30.7698 20.5909C25.4098 20.5909 21.0498 24.9509 21.0498 30.3109C21.0498 35.6709 25.4098 40.0208 30.7698 40.0208C36.1298 40.0208 40.4798 35.6609 40.4798 30.3109C40.4798 24.9609 36.1198 20.5909 30.7698 20.5909Z" stroke="#1E2248" stroke-width="0.62" stroke-miterlimit="10"/>
<path d="M23.5198 58.2914H23.5098C23.3698 58.2914 23.2498 58.2013 23.1998 58.0714L21.1198 52.9913L15.8198 54.4013C15.6898 54.4313 15.5498 54.4014 15.4598 54.2914C15.3698 54.1914 15.3498 54.0413 15.4098 53.9213L15.4498 53.8313L21.6098 41.4313C21.6798 41.3013 21.8198 41.2213 21.9698 41.2413C22.1198 41.2613 22.2698 41.2613 22.4198 41.2513C22.4898 41.2513 22.5698 41.2513 22.6498 41.2513C23.8098 41.2513 24.8998 41.9313 25.4298 42.9813C25.8498 43.7713 26.7198 44.2713 27.6798 44.2713C28.1698 44.2713 28.6398 44.1413 29.0598 43.8913C29.5098 43.6113 30.0198 43.4513 30.5498 43.4213C30.6898 43.4213 30.7998 43.4713 30.8698 43.5813C30.9398 43.6913 30.9498 43.8213 30.8898 43.9313L23.8398 58.1013C23.7798 58.2213 23.6598 58.2914 23.5298 58.2914H23.5198ZM21.3298 52.2213C21.4698 52.2213 21.5998 52.3013 21.6498 52.4413L23.5498 57.0913L29.9398 44.2513C29.7598 44.3113 29.5898 44.3913 29.4198 44.4913C28.8898 44.8013 28.2898 44.9713 27.6798 44.9713C26.4598 44.9713 25.3598 44.3313 24.8098 43.3013C24.3698 42.4213 23.4398 41.8813 22.4698 41.9613C22.3498 41.9613 22.2498 41.9613 22.1398 41.9613L16.3898 53.5313L21.2398 52.2413C21.2398 52.2413 21.2998 52.2313 21.3298 52.2313V52.2213Z" fill="#1E2248"/>
<path d="M23.5198 58.2914H23.5098C23.3698 58.2914 23.2498 58.2014 23.1998 58.0714L21.1198 52.9913L15.8198 54.4013C15.6898 54.4313 15.5498 54.4014 15.4598 54.2914C15.3698 54.1914 15.3498 54.0413 15.4098 53.9213L15.4498 53.8313L21.6098 41.4313C21.6798 41.3013 21.8198 41.2213 21.9698 41.2413C22.1198 41.2613 22.2698 41.2613 22.4198 41.2513C22.4898 41.2513 22.5698 41.2513 22.6498 41.2513C23.8098 41.2513 24.8998 41.9313 25.4298 42.9813C25.8498 43.7713 26.7198 44.2713 27.6798 44.2713C28.1698 44.2713 28.6398 44.1413 29.0598 43.8913C29.5098 43.6113 30.0198 43.4513 30.5498 43.4213C30.6898 43.4213 30.7998 43.4713 30.8698 43.5813C30.9398 43.6913 30.9498 43.8213 30.8898 43.9313L23.8398 58.1013C23.7798 58.2213 23.6598 58.2914 23.5298 58.2914H23.5198ZM21.3298 52.2213C21.4698 52.2213 21.5998 52.3013 21.6498 52.4413L23.5498 57.0913L29.9398 44.2513C29.7598 44.3113 29.5898 44.3913 29.4198 44.4913C28.8898 44.8013 28.2898 44.9713 27.6798 44.9713C26.4598 44.9713 25.3598 44.3313 24.8098 43.3013C24.3698 42.4213 23.4398 41.8813 22.4698 41.9613C22.3498 41.9613 22.2498 41.9613 22.1398 41.9613L16.3898 53.5313L21.2398 52.2413C21.2398 52.2413 21.2998 52.2313 21.3298 52.2313V52.2213Z" stroke="#1E2248" stroke-width="0.62" stroke-miterlimit="10"/>
<path d="M38.01 58.2909C37.88 58.2909 37.76 58.2109 37.7 58.1009L30.66 43.9309C30.6 43.8209 30.61 43.6809 30.68 43.5809C30.75 43.4809 30.88 43.4209 30.99 43.4209C31.51 43.4609 32.03 43.6209 32.48 43.9009C32.92 44.1909 33.41 44.3409 33.91 44.3409C34.85 44.3409 35.69 43.8209 36.1 42.9909C36.67 41.8609 37.87 41.1609 39.12 41.2709C39.24 41.2709 39.41 41.2709 39.56 41.2609C39.71 41.2409 39.85 41.3209 39.92 41.4509L46.09 53.8609C46.14 53.9209 46.17 54.0009 46.17 54.0809C46.17 54.2809 46 54.4609 45.81 54.4309C45.77 54.4309 45.75 54.4309 45.71 54.4209L40.41 53.0109L38.33 58.0909C38.28 58.2209 38.16 58.3009 38.02 58.3109H38.01V58.2909ZM31.6 44.2509L37.98 57.0909L39.88 52.4409C39.95 52.2809 40.12 52.1909 40.29 52.2309L45.15 53.5209L39.39 41.9509C39.28 41.9509 39.18 41.9509 39.07 41.9509C39 41.9509 38.94 41.9509 38.88 41.9509C37.98 41.9509 37.14 42.4809 36.72 43.3009C36.19 44.3709 35.11 45.0409 33.9 45.0409C33.26 45.0409 32.64 44.8509 32.1 44.4909C31.94 44.3909 31.77 44.3109 31.6 44.2509Z" fill="#1E2248"/>
<path d="M38.01 58.2909C37.88 58.2909 37.76 58.2109 37.7 58.1009L30.66 43.9309C30.6 43.8209 30.61 43.6809 30.68 43.5809C30.75 43.4809 30.88 43.4209 30.99 43.4209C31.51 43.4609 32.03 43.6209 32.48 43.9009C32.92 44.1909 33.41 44.3409 33.91 44.3409C34.85 44.3409 35.69 43.8209 36.1 42.9909C36.67 41.8609 37.87 41.1609 39.12 41.2709C39.24 41.2709 39.41 41.2709 39.56 41.2609C39.71 41.2409 39.85 41.3209 39.92 41.4509L46.09 53.8609C46.14 53.9209 46.17 54.0009 46.17 54.0809C46.17 54.2809 46 54.4609 45.81 54.4309C45.77 54.4309 45.75 54.4309 45.71 54.4209L40.41 53.0109L38.33 58.0909C38.28 58.2209 38.16 58.3009 38.02 58.3109H38.01V58.2909ZM31.6 44.2509L37.98 57.0909L39.88 52.4409C39.95 52.2809 40.12 52.1909 40.29 52.2309L45.15 53.5209L39.39 41.9509C39.28 41.9509 39.18 41.9509 39.07 41.9509C39 41.9509 38.94 41.9509 38.88 41.9509C37.98 41.9509 37.14 42.4809 36.72 43.3009C36.19 44.3709 35.11 45.0409 33.9 45.0409C33.26 45.0409 32.64 44.8509 32.1 44.4909C31.94 44.3909 31.77 44.3109 31.6 44.2509V44.2509Z" stroke="#1E2248" stroke-width="0.62" stroke-miterlimit="10"/>
<path d="M35.9798 25.93C35.7998 25.78 35.5298 25.81 35.3698 25.99L29.0598 33.7L26.1198 30.76C25.9498 30.59 25.6798 30.59 25.5098 30.76C25.3398 30.93 25.3398 31.2 25.5098 31.37L28.7899 34.65C28.8699 34.73 28.9798 34.78 29.0898 34.78H29.1098C29.2298 34.78 29.3498 34.72 29.4198 34.62L36.0298 26.54C36.1798 26.36 36.1498 26.09 35.9698 25.93H35.9798Z" fill="#1E2248"/>
<path d="M35.9798 25.93C35.7998 25.78 35.5298 25.81 35.3698 25.99L29.0598 33.7L26.1198 30.76C25.9498 30.59 25.6798 30.59 25.5098 30.76C25.3398 30.93 25.3398 31.2 25.5098 31.37L28.7899 34.65C28.8699 34.73 28.9798 34.78 29.0898 34.78H29.1098C29.2298 34.78 29.3498 34.72 29.4198 34.62L36.0298 26.54C36.1798 26.36 36.1498 26.09 35.9698 25.93H35.9798Z" stroke="#1E2248" stroke-width="1.01" stroke-miterlimit="10"/>
<path d="M21.3299 52.221C21.4699 52.221 21.5999 52.301 21.6499 52.441L23.5499 57.0909L29.9399 44.251C29.7599 44.311 29.5899 44.3909 29.4199 44.4909C28.8899 44.8009 28.2899 44.971 27.6799 44.971C26.4599 44.971 25.3599 44.3309 24.8099 43.3009C24.3699 42.4209 23.4399 41.8809 22.4699 41.9609C22.3499 41.9609 22.2499 41.9609 22.1399 41.9609L16.3899 53.531L21.2399 52.2409C21.2399 52.2409 21.2999 52.2309 21.3299 52.2309V52.221Z" fill="#1267FE"/>
<path d="M21.3299 52.221C21.4699 52.221 21.5999 52.301 21.6499 52.441L23.5499 57.0909L29.9399 44.251C29.7599 44.311 29.5899 44.3909 29.4199 44.4909C28.8899 44.8009 28.2899 44.971 27.6799 44.971C26.4599 44.971 25.3599 44.3309 24.8099 43.3009C24.3699 42.4209 23.4399 41.8809 22.4699 41.9609C22.3499 41.9609 22.2499 41.9609 22.1399 41.9609L16.3899 53.531L21.2399 52.2409C21.2399 52.2409 21.2999 52.2309 21.3299 52.2309V52.221Z" stroke="#1E2248" stroke-width="0.62" stroke-miterlimit="10"/>
<path d="M31.5999 44.2512L37.9798 57.0912L39.8799 52.4412C39.9499 52.2812 40.1199 52.1912 40.2899 52.2312L45.1498 53.5212L39.3898 41.9512C39.2798 41.9512 39.1799 41.9512 39.0699 41.9512C38.9999 41.9512 38.9399 41.9512 38.8799 41.9512C37.9799 41.9512 37.1398 42.4812 36.7198 43.3012C36.1898 44.3712 35.1098 45.0412 33.8998 45.0412C33.2598 45.0412 32.6399 44.8512 32.0999 44.4912C31.9399 44.3912 31.7699 44.3112 31.5999 44.2512Z" fill="#1267FE"/>
<path d="M31.5999 44.2512L37.9798 57.0912L39.8799 52.4412C39.9499 52.2812 40.1199 52.1912 40.2899 52.2312L45.1498 53.5212L39.3898 41.9512C39.2798 41.9512 39.1799 41.9512 39.0699 41.9512C38.9999 41.9512 38.9399 41.9512 38.8799 41.9512C37.9799 41.9512 37.1398 42.4812 36.7198 43.3012C36.1898 44.3712 35.1098 45.0412 33.8998 45.0412C33.2598 45.0412 32.6399 44.8512 32.0999 44.4912C31.9399 44.3912 31.7699 44.3112 31.5999 44.2512V44.2512Z" stroke="#1E2248" stroke-width="0.62" stroke-miterlimit="10"/>
<path d="M14.64 41.7397C11.92 37.9797 10.62 33.3397 10.97 28.6897C11.32 23.9897 13.36 19.5597 16.7 16.2197C20.43 12.4897 25.39 10.4297 30.67 10.4297C35.95 10.4297 40.91 12.4897 44.64 16.2197C52.34 23.9197 52.34 36.4497 44.64 44.1597C40.91 47.8897 35.95 49.9497 30.67 49.9497C26.49 49.9497 22.49 48.6597 19.12 46.2197C19.02 46.1497 18.9 46.1097 18.78 46.1097C18.63 46.1097 18.48 46.1697 18.37 46.2797L14.54 50.1097L10.75 46.3097L14.58 42.4797C14.78 42.2797 14.8 41.9697 14.64 41.7397ZM19.05 41.8097C22.15 44.9097 26.28 46.6197 30.67 46.6197C35.06 46.6197 39.19 44.9097 42.29 41.8097C42.41 41.6897 42.53 41.5697 42.64 41.4397L42.73 41.3497C42.82 41.2497 42.92 41.1497 43.01 41.0397C43.03 41.0197 43.05 40.9897 43.07 40.9697C44.77 39.0197 45.93 36.7597 46.55 34.3897C46.57 34.3297 46.58 34.2697 46.59 34.2197C46.61 34.1397 46.63 34.0497 46.65 33.9697C47.28 31.2897 47.25 28.4397 46.47 25.6897C46.47 25.6697 46.46 25.6497 46.45 25.6297C45.71 23.0497 44.32 20.6097 42.29 18.5797C39.19 15.4697 35.06 13.7697 30.67 13.7697C26.28 13.7697 22.15 15.4797 19.05 18.5797C12.64 24.9897 12.64 35.4097 19.05 41.8197V41.8097Z" fill="white"/>
<path d="M8.73999 46.7812C9.27999 46.7812 9.78999 46.9912 10.18 47.3712L13.5 50.6913C13.88 51.0713 14.1 51.5813 14.1 52.1313C14.1 52.6813 13.89 53.1813 13.5 53.5713L12.24 54.8312C11.37 54.1312 10.53 53.3812 9.72 52.5812C8.43 51.2912 7.27 49.9012 6.25 48.4312L7.31 47.3712C7.69 46.9912 8.2 46.7812 8.75 46.7812" fill="#1267FE"/>
<path d="M51.4499 32.3008C51.2799 33.9408 50.9299 35.5608 50.3799 37.1308C50.2999 37.3708 50.2099 37.6108 50.1099 37.8508C49.6899 38.9308 49.1699 39.9808 48.5599 40.9908C48.4099 41.2308 48.2599 41.4708 48.1099 41.7108C47.3799 42.8208 46.5299 43.8708 45.5699 44.8508C45.5299 44.8908 45.4899 44.9308 45.4499 44.9808C45.2499 45.1808 45.0399 45.3808 44.8299 45.5708C43.4799 46.8208 41.9899 47.8708 40.3999 48.7108C39.9099 48.9708 39.3999 49.2108 38.8899 49.4308C36.3299 50.5308 33.5399 51.1008 30.6699 51.1008C30.4199 51.1008 30.1699 51.1008 29.9199 51.0908C29.5299 51.0808 29.1499 51.0508 28.7699 51.0208C25.1999 50.7008 21.8099 49.4808 18.8499 47.4508L15.0999 51.2008C14.9499 50.7108 14.6799 50.2608 14.3099 49.8908L10.9899 46.5708C10.6199 46.2008 10.1699 45.9308 9.67993 45.7808L13.4299 42.0308C10.7499 38.1208 9.46993 33.3808 9.82993 28.6208C10.2099 23.6408 12.3599 18.9608 15.8899 15.4208C19.8399 11.4708 25.0899 9.30078 30.6699 9.30078C36.2499 9.30078 41.4999 11.4708 45.4499 15.4208C49.7699 19.7408 51.7999 25.4908 51.5399 31.1608C51.5199 31.5408 51.4899 31.9308 51.4599 32.3108M14.5499 50.1208L18.3799 46.2908C18.4899 46.1808 18.6399 46.1208 18.7899 46.1208C18.9099 46.1208 19.0299 46.1608 19.1299 46.2308C22.4999 48.6708 26.4999 49.9608 30.6799 49.9608C35.9599 49.9608 40.9099 47.9008 44.6499 44.1708C52.3499 36.4708 52.3499 23.9408 44.6499 16.2308C40.9199 12.5008 35.9599 10.4408 30.6799 10.4408C25.3999 10.4408 20.4399 12.5008 16.7099 16.2308C13.3699 19.5708 11.3399 24.0008 10.9799 28.7008C10.6299 33.3508 11.9299 37.9908 14.6499 41.7508C14.8199 41.9808 14.7899 42.2908 14.5899 42.4908L10.7599 46.3208L14.5499 50.1208Z" fill="#1E2248"/>
<path d="M8.73984 45.6309C9.05984 45.6309 9.37984 45.6808 9.67984 45.7708C10.1698 45.9208 10.6198 46.1909 10.9898 46.5609L14.3098 49.8809C14.6798 50.2509 14.9499 50.7009 15.0999 51.1909C15.1899 51.4909 15.2398 51.8009 15.2398 52.1309C15.2398 52.9809 14.9098 53.7809 14.3098 54.3809L13.1498 55.5409C12.8398 55.3109 12.5298 55.0808 12.2298 54.8308L13.4898 53.5709C13.8698 53.1909 14.0898 52.6809 14.0898 52.1309C14.0898 51.5809 13.8798 51.0809 13.4898 50.6909L10.1698 47.3708C9.78983 46.9908 9.27983 46.7809 8.72983 46.7809C8.17983 46.7809 7.67986 46.9908 7.28986 47.3708L6.22983 48.4308C6.00983 48.1108 5.78983 47.7808 5.57983 47.4608L6.46985 46.5709C7.06985 45.9709 7.86985 45.6408 8.71985 45.6408" fill="#1E2248"/>
<path d="M30.6199 13.8008C39.6999 13.8008 47.0599 21.1608 47.0599 30.2408C47.0599 39.3208 39.6999 46.6808 30.6199 46.6808C21.5399 46.6808 14.1799 39.3208 14.1799 30.2408C14.1799 21.1608 21.5399 13.8008 30.6199 13.8008Z" stroke="#1E2248" stroke-width="1.2" stroke-miterlimit="22.93"/>
</svg>
