<svg width="63" height="63" viewBox="0 0 63 63" fill="none" xmlns="http://www.w3.org/2000/svg">
<path d="M39.33 2.29841C39.28 2.29841 39.2201 2.29843 39.1701 2.27843C38.1501 1.99843 37.1001 1.77843 36.0601 1.60843C35.7201 1.55843 35.49 1.23842 35.55 0.898421C35.6 0.558421 35.9201 0.328426 36.2601 0.388426C37.3501 0.558426 38.44 0.798423 39.5 1.08842C39.83 1.17842 40.0201 1.51842 39.9301 1.84842C39.8601 2.12842 39.61 2.30842 39.33 2.30842" fill="#1E2248"/>
<path d="M31.27 62.54C22.92 62.54 15.06 59.29 9.16 53.38C3.25 47.47 0 39.62 0 31.27C0 22.92 3.25 15.06 9.16 9.15999C15.07 3.24999 22.92 0 31.27 0C31.61 0 31.89 0.279995 31.89 0.619995C31.89 0.959995 31.61 1.23999 31.27 1.23999C23.25 1.23999 15.7 4.35999 10.03 10.04C4.36 15.71 1.23001 23.25 1.23001 31.28C1.23001 39.31 4.35 46.85 10.03 52.52C15.7 58.19 23.25 61.32 31.27 61.32C39.29 61.32 46.84 58.2 52.51 52.52C58.18 46.85 61.31 39.31 61.31 31.28C61.31 25.65 59.74 20.17 56.78 15.41C53.9 10.79 49.82 7.02999 44.98 4.53999C44.68 4.37999 44.56 4.00999 44.71 3.70999C44.87 3.40999 45.24 3.29 45.54 3.44C50.58 6.03 54.82 9.94 57.82 14.75C60.9 19.7 62.54 25.41 62.54 31.27C62.54 39.62 59.29 47.48 53.38 53.38C47.47 59.29 39.62 62.54 31.27 62.54Z" fill="#1E2248"/>
<path d="M43.1301 2.63962C43.1301 3.06962 42.7801 3.42961 42.3401 3.42961C41.9001 3.42961 41.55 3.07962 41.55 2.63962C41.55 2.19962 41.9001 1.84961 42.3401 1.84961C42.7801 1.84961 43.1301 2.19962 43.1301 2.63962Z" fill="#1E2248"/>
<path fill-rule="evenodd" clip-rule="evenodd" d="M28.8701 28.4098H29.8201C30.7801 28.4098 31.4401 28.2898 31.8101 28.0298C32.1701 27.7798 32.3501 27.3598 32.3501 26.7798C32.3501 26.4398 32.2601 26.1398 32.0801 25.8798C31.9001 25.6198 31.6601 25.4398 31.3601 25.3298C31.0601 25.2198 30.5101 25.1598 29.7001 25.1598H28.8701V28.3998V28.4098ZM25.8901 22.2598H29.0701C30.8101 22.2598 32.0501 22.4098 32.7901 22.7198C33.5301 23.0298 34.1201 23.5498 34.5701 24.2698C35.0201 24.9898 35.2501 25.8398 35.2501 26.8198C35.2501 27.7998 35.0001 28.7198 34.5101 29.4098C34.0101 30.1098 33.2701 30.6298 32.2701 30.9898L35.9801 37.9798H32.7101L29.1801 31.3198H28.8801V37.9798H25.9001V22.2598H25.8901Z" fill="white"/>
<path d="M29.7301 28.8701H28.7101C28.3901 28.8701 28.1201 28.6101 28.1201 28.2801V24.8001C28.1201 24.4801 28.3801 24.2101 28.7101 24.2101H29.6001C30.0401 24.2101 30.4201 24.2301 30.7501 24.2601C31.1001 24.3001 31.3801 24.3501 31.5901 24.4301C31.8101 24.5101 32.0002 24.6101 32.1702 24.7501C32.3502 24.8801 32.5001 25.0501 32.6301 25.2401C32.7601 25.4201 32.8502 25.6201 32.9201 25.8201V25.8501C33.0002 26.0701 33.0301 26.3001 33.0301 26.5401C33.0301 26.9301 32.9601 27.2801 32.8301 27.5801C32.6901 27.8901 32.4901 28.1501 32.2101 28.3501L32.1801 28.3701C31.9101 28.5501 31.5601 28.6901 31.1301 28.7701C30.7301 28.8501 30.2601 28.8801 29.7101 28.8801M29.2801 27.7001H29.7101C30.2001 27.7001 30.6001 27.6701 30.9101 27.6101C31.1801 27.5601 31.3901 27.4901 31.5101 27.4001H31.5201C31.6201 27.3201 31.6901 27.2301 31.7401 27.1101C31.8001 26.9601 31.8401 26.7701 31.8401 26.5401C31.8401 26.4101 31.8201 26.3001 31.7901 26.1901V26.1701C31.7501 26.0801 31.7101 25.9901 31.6601 25.9101C31.6001 25.8301 31.5301 25.7501 31.4501 25.6901C31.3701 25.6301 31.2702 25.5801 31.1702 25.5401C31.0602 25.5001 30.8801 25.4601 30.6301 25.4401C30.3601 25.4101 30.0201 25.4001 29.5901 25.4001H29.2901V27.7101L29.2801 27.7001ZM28.9101 22.2701H26.0801V37.9801H28.1001V31.4201C28.1001 31.1001 28.3601 30.8301 28.6901 30.8301H29.0201C29.2301 30.8301 29.4301 30.9401 29.5401 31.1401L33.1701 37.9801H35.3501L31.8201 31.3401L31.7901 31.2601C31.6801 30.9501 31.8401 30.6201 32.1501 30.5101C32.6301 30.3401 33.0501 30.1301 33.4101 29.8801C33.7601 29.6401 34.0401 29.3501 34.2701 29.0401C34.4901 28.7201 34.6601 28.3601 34.7801 27.9601C34.9001 27.5501 34.9601 27.0901 34.9601 26.5901C34.9601 26.0901 34.9101 25.6601 34.8001 25.2601C34.6901 24.8601 34.5401 24.4901 34.3301 24.1601C34.1201 23.8301 33.8801 23.5401 33.6001 23.3001C33.3301 23.0701 33.0401 22.8801 32.7101 22.7401H32.6801C32.3301 22.5801 31.8501 22.4701 31.2401 22.4001C30.6001 22.3201 29.8201 22.2801 28.9101 22.2801V22.2701ZM25.5001 21.0901H28.9101C29.8601 21.0901 30.6901 21.1301 31.3801 21.2201C32.1001 21.3101 32.6801 21.4501 33.1301 21.6401H33.1601C33.6101 21.8401 34.0101 22.1001 34.3601 22.4001C34.7201 22.7101 35.0401 23.0901 35.3101 23.5301C35.5801 23.9601 35.7901 24.4401 35.9201 24.9601C36.0501 25.4701 36.1201 26.0101 36.1201 26.5901C36.1201 27.2001 36.0501 27.7601 35.9001 28.2801C35.7501 28.8101 35.5201 29.2901 35.2201 29.7101C34.9101 30.1401 34.5301 30.5101 34.0801 30.8301C33.8001 31.0301 33.5001 31.2001 33.1601 31.3601L36.8401 38.2901C36.9901 38.5801 36.8801 38.9301 36.6001 39.0801C36.5101 39.1301 36.4201 39.1501 36.3201 39.1501H32.8101C32.5701 39.1501 32.3701 39.0101 32.2801 38.8101L29.2801 33.1601V38.5601C29.2801 38.8901 29.0201 39.1501 28.6901 39.1501H25.4901C25.1701 39.1501 24.9001 38.8901 24.9001 38.5601V21.6701C24.9001 21.3401 25.1601 21.0801 25.4901 21.0801L25.5001 21.0901Z" fill="#1E2248"/>
<path d="M36.36 17.5384C36.36 17.6984 36.3 17.8384 36.19 17.9384C36.09 18.0384 35.95 18.1084 35.79 18.1084C35.63 18.1084 35.49 18.0484 35.39 17.9384C35.29 17.8384 35.22 17.6984 35.22 17.5384C35.22 17.3784 35.28 17.2384 35.39 17.1384C35.49 17.0384 35.63 16.9684 35.79 16.9684C35.95 16.9684 36.09 17.0284 36.19 17.1384C36.29 17.2384 36.36 17.3784 36.36 17.5384ZM30.93 44.0684C29.07 44.0684 27.26 43.7084 25.59 43.0084C23.92 42.3184 22.38 41.2984 21.07 39.9784C19.75 38.6584 18.73 37.1284 18.04 35.4484C17.35 33.7784 16.98 31.9684 16.98 30.1084C16.98 28.2484 17.34 26.4384 18.04 24.7684C18.73 23.0984 19.76 21.5584 21.07 20.2384C22.39 18.9184 23.92 17.8984 25.6 17.2084C27.27 16.5184 29.08 16.1484 30.94 16.1484C31.08 16.1484 31.2 16.1984 31.29 16.2884C31.38 16.3784 31.43 16.4984 31.43 16.6384C31.43 16.7784 31.37 16.8984 31.29 16.9884C31.2 17.0784 31.08 17.1284 30.94 17.1284C29.21 17.1284 27.52 17.4684 25.97 18.1084C24.42 18.7484 22.99 19.6984 21.76 20.9284C20.53 22.1584 19.58 23.5784 18.94 25.1384C18.3 26.6884 17.96 28.3684 17.96 30.1084C17.96 31.8484 18.3 33.5284 18.94 35.0784C19.58 36.6284 20.53 38.0584 21.76 39.2784C22.99 40.5084 24.41 41.4584 25.97 42.0984C27.52 42.7384 29.2 43.0784 30.94 43.0784C32.68 43.0784 34.36 42.7384 35.91 42.0984C37.46 41.4584 38.89 40.5084 40.12 39.2784C41.35 38.0484 42.3 36.6284 42.94 35.0784C43.58 33.5284 43.92 31.8484 43.92 30.1084C43.92 28.8884 43.75 27.6884 43.42 26.5384C43.09 25.3884 42.6 24.2784 41.96 23.2584C41.34 22.2584 40.59 21.3584 39.73 20.5684C38.87 19.7784 37.91 19.1084 36.86 18.5684C36.74 18.5084 36.66 18.3984 36.62 18.2784C36.58 18.1584 36.59 18.0284 36.65 17.9084C36.71 17.7784 36.82 17.6984 36.93 17.6584C37.05 17.6184 37.18 17.6284 37.3 17.6884C38.42 18.2684 39.46 18.9884 40.38 19.8384C41.3 20.6884 42.11 21.6584 42.78 22.7384C43.47 23.8384 43.99 25.0284 44.35 26.2684C44.7 27.5084 44.89 28.7984 44.89 30.1084C44.89 31.9684 44.53 33.7784 43.83 35.4484C43.14 37.1184 42.12 38.6584 40.8 39.9784C39.48 41.2984 37.95 42.3184 36.27 43.0084C34.6 43.6984 32.79 44.0684 30.93 44.0684ZM34.47 17.6084H34.41L34.34 17.5884C34.12 17.5284 33.89 17.4784 33.67 17.4284C33.45 17.3784 33.23 17.3384 33.01 17.3084H32.99C32.86 17.2884 32.74 17.2084 32.67 17.1084C32.6 17.0184 32.57 16.8984 32.58 16.7684V16.7384C32.6 16.6084 32.68 16.4884 32.78 16.4184C32.88 16.3484 33.01 16.3084 33.14 16.3284C33.39 16.3684 33.63 16.4184 33.87 16.4684C34.1 16.5184 34.34 16.5784 34.59 16.6484C34.72 16.6784 34.82 16.7684 34.89 16.8784C34.95 16.9884 34.97 17.1184 34.94 17.2484C34.91 17.3584 34.85 17.4484 34.76 17.5084C34.68 17.5684 34.57 17.6084 34.46 17.6084H34.47Z" fill="white"/>
<path d="M14.9601 41.6791C12.2401 37.9191 10.9401 33.2791 11.2901 28.6291C11.6401 23.9291 13.6801 19.4991 17.0201 16.1591C20.7501 12.4291 25.7101 10.3691 30.9901 10.3691C36.2701 10.3691 41.2301 12.4291 44.9601 16.1591C52.6601 23.8591 52.6601 36.3891 44.9601 44.0991C41.2301 47.8291 36.2701 49.8891 30.9901 49.8891C26.8101 49.8891 22.8101 48.5991 19.4401 46.1591C19.3401 46.0891 19.2201 46.0491 19.1001 46.0491C18.9501 46.0491 18.8001 46.1091 18.6901 46.2191L14.8601 50.0491L11.0701 46.2491L14.9001 42.4191C15.1001 42.2191 15.1201 41.9091 14.9601 41.6791ZM19.3701 41.7491C22.4701 44.8491 26.6001 46.5591 30.9901 46.5591C35.3801 46.5591 39.5101 44.8491 42.6101 41.7491C42.7301 41.6291 42.8501 41.5091 42.9601 41.3791L43.0501 41.2891C43.1401 41.1891 43.2401 41.0891 43.3301 40.9791C43.3501 40.9591 43.3701 40.9291 43.3901 40.9091C45.0901 38.9591 46.2501 36.6991 46.8701 34.3291C46.8901 34.2691 46.9001 34.2091 46.9101 34.1591C46.9301 34.0791 46.9501 33.9891 46.9701 33.9091C47.6001 31.2291 47.5701 28.3791 46.7901 25.6291C46.7901 25.6091 46.7801 25.5891 46.7701 25.5691C46.0301 22.9891 44.6401 20.5491 42.6101 18.5191C39.5101 15.4191 35.3801 13.7091 30.9901 13.7091C26.6001 13.7091 22.4701 15.4191 19.3701 18.5191C12.9601 24.9291 12.9601 35.3491 19.3701 41.7591V41.7491Z" fill="#1267FE"/>
<path d="M9.06007 46.709C9.60007 46.709 10.1101 46.919 10.5001 47.299L13.8201 50.619C14.2001 50.999 14.4201 51.509 14.4201 52.059C14.4201 52.609 14.2101 53.109 13.8201 53.499L12.5601 54.759C11.6901 54.059 10.8501 53.309 10.0401 52.509C8.75007 51.219 7.59007 49.829 6.57007 48.359L7.63007 47.299C8.01007 46.919 8.52007 46.709 9.07007 46.709" fill="#1267FE"/>
<path d="M51.77 32.2383C51.6 33.8783 51.25 35.4983 50.7 37.0683C50.62 37.3083 50.53 37.5483 50.43 37.7883C50.01 38.8683 49.49 39.9183 48.88 40.9283C48.73 41.1683 48.58 41.4083 48.43 41.6483C47.7 42.7583 46.85 43.8083 45.89 44.7883C45.85 44.8283 45.81 44.8683 45.77 44.9183C45.57 45.1183 45.36 45.3183 45.15 45.5083C43.8 46.7583 42.31 47.8083 40.72 48.6483C40.23 48.9083 39.72 49.1483 39.21 49.3683C36.65 50.4683 33.86 51.0383 30.99 51.0383C30.74 51.0383 30.49 51.0383 30.24 51.0283C29.85 51.0183 29.47 50.9883 29.09 50.9583C25.52 50.6383 22.13 49.4183 19.17 47.3883L15.42 51.1383C15.27 50.6483 15 50.1983 14.63 49.8283L11.31 46.5083C10.94 46.1383 10.49 45.8683 10 45.7183L13.75 41.9683C11.07 38.0583 9.79001 33.3183 10.15 28.5583C10.53 23.5783 12.68 18.8983 16.21 15.3583C20.16 11.4083 25.41 9.23828 30.99 9.23828C36.57 9.23828 41.82 11.4083 45.77 15.3583C50.09 19.6783 52.12 25.4283 51.86 31.0983C51.84 31.4783 51.81 31.8683 51.78 32.2483M14.87 50.0583L18.7 46.2283C18.81 46.1183 18.96 46.0583 19.11 46.0583C19.23 46.0583 19.35 46.0983 19.45 46.1683C22.82 48.6083 26.82 49.8983 31 49.8983C36.28 49.8983 41.24 47.8383 44.97 44.1083C52.67 36.4083 52.67 23.8783 44.97 16.1683C41.24 12.4383 36.28 10.3783 31 10.3783C25.72 10.3783 20.76 12.4383 17.03 16.1683C13.69 19.5083 11.66 23.9383 11.3 28.6383C10.95 33.2883 12.25 37.9283 14.97 41.6883C15.14 41.9183 15.11 42.2283 14.91 42.4283L11.08 46.2583L14.87 50.0583Z" fill="#1E2248"/>
<path d="M9.06015 45.5586C9.38015 45.5586 9.70014 45.6086 10.0001 45.6986C10.4901 45.8486 10.9401 46.1186 11.3101 46.4886L14.6301 49.8086C15.0001 50.1786 15.2701 50.6286 15.4201 51.1186C15.5101 51.4186 15.5601 51.7286 15.5601 52.0586C15.5601 52.9086 15.2301 53.7086 14.6301 54.3086L13.4701 55.4686C13.1601 55.2386 12.8501 55.0086 12.5501 54.7586L13.8101 53.4986C14.1901 53.1186 14.4101 52.6086 14.4101 52.0586C14.4101 51.5086 14.2001 51.0086 13.8101 50.6186L10.4901 47.2986C10.1101 46.9186 9.60014 46.7086 9.05014 46.7086C8.50014 46.7086 8.00014 46.9186 7.61014 47.2986L6.55014 48.3586C6.33014 48.0386 6.11015 47.7086 5.90015 47.3886L6.79015 46.4986C7.39015 45.8986 8.19015 45.5686 9.04015 45.5686" fill="#1E2248"/>
<path d="M30.94 13.7285C40.02 13.7285 47.38 21.0885 47.38 30.1685C47.38 39.2485 40.02 46.6085 30.94 46.6085C21.86 46.6085 14.5 39.2485 14.5 30.1685C14.5 21.0885 21.86 13.7285 30.94 13.7285Z" stroke="#1E2248" stroke-width="1.2" stroke-miterlimit="22.93"/>
</svg>
