<svg width="63" height="63" viewBox="0 0 63 63" fill="none" xmlns="http://www.w3.org/2000/svg">
<path d="M13.9399 21.0293V22.6393H52.0299C52.2999 22.6393 52.5299 22.8593 52.5299 23.1293V52.9093C53.2299 52.2493 53.8999 51.5393 54.5399 50.8193V21.0293H13.9399Z" fill="white"/>
<path d="M18.32 24.1895C17.59 24.1895 17.09 24.6895 17 25.4795H19.72C19.66 24.9095 19.37 24.1895 18.32 24.1895Z" fill="#1267FE"/>
<path d="M19.76 23.6309C20.31 24.0209 20.65 24.6609 20.72 25.4809H41.65C41.71 25.4809 41.77 25.4908 41.82 25.5208H41.84C41.86 25.5308 41.88 25.5409 41.9 25.5509C41.9 25.5509 41.91 25.5609 41.92 25.5609C41.94 25.5809 41.97 25.5908 41.99 25.6208L49.79 33.4209C49.79 33.4209 49.83 33.4708 49.85 33.4908V33.5109C49.85 33.5109 49.89 33.5509 49.89 33.5709V33.5909C49.89 33.5909 49.92 33.6509 49.93 33.6709C49.93 33.6709 49.93 33.7309 49.93 33.7609V55.1109C50.48 54.6909 51.02 54.2609 51.54 53.8109V23.6309H19.76Z" fill="#1267FE"/>
<path d="M15.9999 25.4809C16.0699 24.6809 16.4199 24.0209 16.9599 23.6309H10.9399V25.4809H15.9999Z" fill="#1267FE"/>
<path d="M18.79 36.6003C19.35 36.6003 19.92 36.3503 20.25 35.8203H17.3C17.65 36.3503 18.23 36.6003 18.79 36.6003Z" fill="white"/>
<path d="M31.4401 61.3203C35.5201 61.3203 39.4101 60.5203 42.9801 59.0703H19.9001C23.4601 60.5203 27.3501 61.3203 31.4401 61.3203Z" fill="white"/>
<path d="M41.6301 34.2704C41.3601 34.2704 41.1401 34.0505 41.1401 33.7805V26.4805H16.9801V34.6205C16.9801 34.8305 17.0101 35.0205 17.0501 35.2005H20.5101C20.5501 35.0205 20.5701 34.8305 20.5701 34.6205V27.6305C20.5701 27.3605 20.7901 27.1405 21.0701 27.1405C21.3501 27.1405 21.5701 27.3605 21.5701 27.6305V34.6205C21.5701 34.8305 21.5501 35.0205 21.5301 35.2005H44.0701C44.2401 35.2005 44.3801 35.3405 44.3801 35.5105C44.3801 35.6805 44.2401 35.8205 44.0701 35.8205H21.3501C21.1801 36.2805 20.9201 36.6205 20.7001 36.8405C20.2001 37.3305 19.5201 37.6005 18.7901 37.6005C17.7201 37.6005 16.6401 36.9905 16.1901 35.8305H13.2201C13.0501 35.8305 12.9101 35.6904 12.9101 35.5204C12.9101 35.3504 13.0501 35.2104 13.2201 35.2104H16.0301C16.0001 35.0204 15.9801 34.8305 15.9801 34.6305V26.4904H8.33008V50.8405C9.74008 52.4505 11.3201 53.9204 13.0301 55.2104C13.0801 55.1804 13.1401 55.1505 13.2101 55.1505H44.0301C44.2001 55.1505 44.3401 55.2904 44.3401 55.4604C44.3401 55.6304 44.2001 55.7704 44.0301 55.7704H13.8201C15.2901 56.8004 16.8501 57.7105 18.4901 58.4705H44.0601C44.1301 58.4705 44.2001 58.5005 44.2501 58.5405C45.9001 57.7805 47.4701 56.8805 48.9401 55.8505V34.2805H41.6401L41.6301 34.2704ZM44.0501 52.4305H13.2301C13.0601 52.4305 12.9201 52.2905 12.9201 52.1205C12.9201 51.9505 13.0601 51.8105 13.2301 51.8105H44.0501C44.2201 51.8105 44.3601 51.9505 44.3601 52.1205C44.3601 52.2905 44.2201 52.4305 44.0501 52.4305ZM44.0501 49.1105H13.2301C13.0601 49.1105 12.9201 48.9705 12.9201 48.8005C12.9201 48.6305 13.0601 48.4904 13.2301 48.4904H44.0501C44.2201 48.4904 44.3601 48.6305 44.3601 48.8005C44.3601 48.9705 44.2201 49.1105 44.0501 49.1105ZM44.0501 45.7905H13.2301C13.0601 45.7905 12.9201 45.6505 12.9201 45.4805C12.9201 45.3105 13.0601 45.1705 13.2301 45.1705H44.0501C44.2201 45.1705 44.3601 45.3105 44.3601 45.4805C44.3601 45.6505 44.2201 45.7905 44.0501 45.7905ZM44.0501 42.4705H13.2301C13.0601 42.4705 12.9201 42.3305 12.9201 42.1605C12.9201 41.9905 13.0601 41.8505 13.2301 41.8505H44.0501C44.2201 41.8505 44.3601 41.9905 44.3601 42.1605C44.3601 42.3305 44.2201 42.4705 44.0501 42.4705ZM44.0501 39.1505H13.2301C13.0601 39.1505 12.9201 39.0105 12.9201 38.8405C12.9201 38.6705 13.0601 38.5305 13.2301 38.5305H44.0501C44.2201 38.5305 44.3601 38.6705 44.3601 38.8405C44.3601 39.0105 44.2201 39.1505 44.0501 39.1505Z" fill="white"/>
<path d="M42.1301 33.2799H48.2301L42.1301 27.1699V33.2799Z" fill="white"/>
<path d="M20.26 35.8192C20.37 35.6392 20.45 35.4392 20.51 35.1992H17.05C17.11 35.4392 17.19 35.6392 17.31 35.8192H20.26Z" fill="#1267FE"/>
<path d="M13.2299 35.1992C13.0599 35.1992 12.9199 35.3392 12.9199 35.5092C12.9199 35.6792 13.0599 35.8192 13.2299 35.8192H16.1999C16.1299 35.6292 16.0699 35.4192 16.0399 35.1992H13.2299Z" fill="#1267FE"/>
<path d="M44.0501 35.8192C44.2201 35.8192 44.3601 35.6792 44.3601 35.5092C44.3601 35.3392 44.2201 35.1992 44.0501 35.1992H21.5101C21.4701 35.4292 21.4201 35.6292 21.3501 35.8192H44.0501Z" fill="#1267FE"/>
<path d="M44.0499 38.5195H13.2299C13.0599 38.5195 12.9199 38.6596 12.9199 38.8296C12.9199 38.9996 13.0599 39.1396 13.2299 39.1396H44.0499C44.2199 39.1396 44.3599 38.9996 44.3599 38.8296C44.3599 38.6596 44.2199 38.5195 44.0499 38.5195Z" fill="#1267FE"/>
<path d="M44.0499 41.8398H13.2299C13.0599 41.8398 12.9199 41.9798 12.9199 42.1498C12.9199 42.3198 13.0599 42.4598 13.2299 42.4598H44.0499C44.2199 42.4598 44.3599 42.3198 44.3599 42.1498C44.3599 41.9798 44.2199 41.8398 44.0499 41.8398Z" fill="#1267FE"/>
<path d="M44.0499 45.1602H13.2299C13.0599 45.1602 12.9199 45.3002 12.9199 45.4702C12.9199 45.6402 13.0599 45.7802 13.2299 45.7802H44.0499C44.2199 45.7802 44.3599 45.6402 44.3599 45.4702C44.3599 45.3002 44.2199 45.1602 44.0499 45.1602Z" fill="#1267FE"/>
<path d="M44.0499 48.4902H13.2299C13.0599 48.4902 12.9199 48.6303 12.9199 48.8003C12.9199 48.9703 13.0599 49.1103 13.2299 49.1103H44.0499C44.2199 49.1103 44.3599 48.9703 44.3599 48.8003C44.3599 48.6303 44.2199 48.4902 44.0499 48.4902Z" fill="#1267FE"/>
<path d="M44.0499 51.8105H13.2299C13.0599 51.8105 12.9199 51.9505 12.9199 52.1205C12.9199 52.2905 13.0599 52.4305 13.2299 52.4305H44.0499C44.2199 52.4305 44.3599 52.2905 44.3599 52.1205C44.3599 51.9505 44.2199 51.8105 44.0499 51.8105Z" fill="#1267FE"/>
<path d="M44.05 55.7509C44.22 55.7509 44.3601 55.6109 44.3601 55.4409C44.3601 55.2709 44.22 55.1309 44.05 55.1309H13.23C13.16 55.1309 13.1 55.1509 13.05 55.1909C13.3 55.3809 13.56 55.5709 13.82 55.7509H44.05Z" fill="#1267FE"/>
<path d="M18.48 58.4492C18.95 58.6692 19.42 58.8792 19.9 59.0692H42.97C43.4 58.8992 43.82 58.7092 44.24 58.5192C44.19 58.4792 44.12 58.4492 44.05 58.4492H18.48Z" fill="#1267FE"/>
<path d="M55.03 20.0393H13.45C13.18 20.0393 12.96 20.2593 12.96 20.5293V22.6293H13.95V21.0193H54.53V50.8093C54.87 50.4193 55.2 50.0193 55.52 49.6193V20.5193C55.52 20.2493 55.3 20.0293 55.03 20.0293" fill="#1E2248"/>
<path d="M52.03 22.6309H10.45C10.18 22.6309 9.95996 22.8508 9.95996 23.1208V25.4709H10.95V23.6208H16.97C17.34 23.3408 17.8 23.1909 18.33 23.1909C18.9 23.1909 19.38 23.3408 19.77 23.6208H51.55V53.8009C51.89 53.5109 52.22 53.2108 52.54 52.9008V23.1208C52.54 22.8508 52.32 22.6309 52.04 22.6309" fill="#1E2248"/>
<path d="M41.8901 25.5605C41.8901 25.5605 41.9001 25.5706 41.9101 25.5706C41.9101 25.5706 41.9001 25.5705 41.8901 25.5605Z" fill="#1E2248"/>
<path d="M49.9199 33.7598C49.9199 33.8298 49.9199 33.8997 49.8799 33.9597C49.7999 34.1497 49.6199 34.2598 49.4199 34.2598H48.9299V55.8298C49.2599 55.5998 49.5899 55.3598 49.9199 55.1098V33.7697" fill="#1E2248"/>
<path d="M20.23 26.2603C19.96 26.2603 19.73 26.0402 19.73 25.7702C19.73 25.6802 19.73 25.5902 19.71 25.4902H16.99C16.98 25.5802 16.97 25.6802 16.97 25.7702V26.4803H41.13V25.9902C41.13 25.7902 41.25 25.6102 41.44 25.5302C41.5 25.5102 41.57 25.4902 41.64 25.5002H20.71C20.71 25.5902 20.72 25.6802 20.72 25.7802C20.72 26.0502 20.5 26.2702 20.22 26.2702" fill="#1E2248"/>
<path d="M15.9901 26.4705V25.7605C15.9901 25.6605 15.9901 25.5705 16.0001 25.4805H7.85011C7.58011 25.4805 7.36011 25.7005 7.36011 25.9805V49.6305C7.68011 50.0305 8.01011 50.4305 8.35011 50.8205V26.4705H16.0001H15.9901Z" fill="#1E2248"/>
<path d="M41.1401 25.9803V33.7702C41.1401 34.0402 41.3601 34.2603 41.6301 34.2603H49.4301C49.6301 34.2603 49.8101 34.1402 49.8901 33.9602C49.9201 33.8902 49.9301 33.8303 49.9301 33.7603C49.9301 33.7303 49.9301 33.7003 49.9301 33.6703C49.9301 33.6703 49.9201 33.6102 49.9101 33.5902V33.5703C49.9101 33.5703 49.8801 33.5303 49.8701 33.5103V33.4902C49.8701 33.4902 49.8201 33.4403 49.8001 33.4203L42.0001 25.6202C42.0001 25.6202 41.9601 25.5802 41.9301 25.5602C41.9301 25.5602 41.9201 25.5603 41.9101 25.5503C41.8901 25.5403 41.8701 25.5302 41.8501 25.5202C41.8501 25.5202 41.8401 25.5202 41.8301 25.5202C41.7801 25.5002 41.7201 25.4902 41.6601 25.4902C41.5901 25.4902 41.5301 25.5002 41.4601 25.5202C41.2801 25.6002 41.1501 25.7803 41.1501 25.9803M48.2501 33.2802H42.1401V27.1703L48.2501 33.2802Z" fill="#1E2248"/>
<path d="M31.27 62.54C22.92 62.54 15.06 59.29 9.16 53.38C3.25 47.47 0 39.62 0 31.27C0 22.92 3.25 15.06 9.16 9.16C15.07 3.25 22.92 0 31.27 0C31.61 0 31.89 0.279995 31.89 0.619995C31.89 0.959995 31.61 1.23999 31.27 1.23999C23.25 1.23999 15.71 4.36001 10.03 10.04C4.36 15.71 1.23 23.25 1.23 31.28C1.23 39.31 4.36 46.85 10.03 52.52C15.7 58.19 23.25 61.32 31.27 61.32C39.29 61.32 46.84 58.2 52.51 52.52C58.18 46.85 61.31 39.31 61.31 31.28C61.31 25.65 59.75 20.17 56.78 15.41C53.9 10.79 49.82 7.03001 44.98 4.54001C44.68 4.38001 44.55 4.00999 44.71 3.70999C44.87 3.40999 45.24 3.29 45.54 3.44C50.58 6.03 54.82 9.94 57.83 14.75C60.91 19.7 62.54 25.41 62.54 31.27C62.54 39.62 59.29 47.48 53.38 53.38C47.47 59.29 39.62 62.54 31.27 62.54Z" fill="#1E2248"/>
<path d="M39.33 2.30038C39.28 2.30038 39.22 2.30036 39.17 2.28036C38.15 2.00036 37.1 1.78038 36.06 1.61038C35.72 1.56038 35.49 1.24036 35.55 0.900359C35.6 0.560359 35.92 0.33038 36.26 0.39038C37.35 0.56038 38.44 0.800362 39.5 1.09036C39.83 1.18036 40.02 1.52037 39.94 1.85037C39.86 2.13037 39.61 2.31036 39.34 2.31036" fill="#1E2248"/>
<path d="M43.12 2.63962C43.12 3.06962 42.76 3.4296 42.33 3.4296C41.9 3.4296 41.54 3.07962 41.54 2.63962C41.54 2.19962 41.89 1.84961 42.33 1.84961C42.77 1.84961 43.12 2.19962 43.12 2.63962Z" fill="#1E2248"/>
<path fill-rule="evenodd" clip-rule="evenodd" d="M18.32 24.7599C21.8 19.1999 28.11 14.9799 33.91 12.4999C36.08 11.5699 39.14 10.4599 41.52 10.3899C43.09 10.3399 44.7 10.8699 45.26 12.5099C45.8 14.0999 44.86 15.5399 43.73 16.5699L43.5 16.7799L43.22 16.9299C39.01 19.1799 35.13 22.0799 31.81 25.5199C28.63 28.8099 25.97 32.5799 24.04 36.7299C23.82 37.1999 23.51 37.6299 23.14 37.9899C21.48 39.5599 18.87 39.4999 17.29 37.8499L9.57002 29.7699C7.99002 28.1199 8.06002 25.4899 9.71002 23.9099C11.83 21.8899 15.5 23.4799 18.33 24.7699" fill="white"/>
<path d="M11.39 28.0109C10.78 27.3709 10.8 26.3509 11.45 25.7409C12.65 24.6009 17.76 27.3709 19.43 28.0209C25.1 15.6209 47.49 9.69093 42.01 14.6909C37.57 17.0709 33.47 20.1309 29.97 23.7509C26.6 27.2409 23.78 31.2409 21.73 35.6609C21.65 35.8409 21.53 36.0109 21.38 36.1509C20.74 36.7609 19.72 36.7409 19.11 36.0909L11.39 28.0109Z" fill="#1267FE"/>
</svg>
