<svg width="63" height="63" viewBox="0 0 63 63" fill="none" xmlns="http://www.w3.org/2000/svg">
<path d="M33.1299 39.1485H41.8399V19.3485C42.9299 18.3885 44.0799 17.4985 45.2699 16.6685V39.7385C45.2699 40.5285 44.9499 41.2385 44.4299 41.7485C44.3799 41.7985 44.3299 41.8385 44.2799 41.8785C43.7799 42.3185 43.1199 42.5785 42.4099 42.5785H38.9899C38.5399 42.1285 38.0199 41.7585 37.4199 41.5085C36.7799 41.2385 36.1199 41.1385 35.4499 41.1785C35.1199 40.8285 34.7399 40.5185 34.3299 40.2685C33.9499 40.0385 33.5499 39.8585 33.1299 39.7385C33.1299 39.5385 33.1299 39.3485 33.1099 39.1485M17.5099 11.9885H39.3399C37.4799 12.9385 35.6099 14.0885 33.8899 15.4185H18.0899V39.1485H23.7499V39.2085C23.7099 40.2085 23.7499 41.1985 23.7699 42.1985V42.5785H17.4999C16.7099 42.5785 15.9999 42.2585 15.4899 41.7385C14.9699 41.2185 14.6499 40.5085 14.6499 39.7285V14.8285C14.6499 14.0485 14.9699 13.3385 15.4899 12.8185C16.0099 12.2985 16.7199 11.9785 17.4999 11.9785L17.5099 11.9885Z" fill="#1E2248"/>
<path d="M22.28 23.9098C21.76 23.3598 21.78 22.4898 22.33 21.9698C23.35 20.9998 27.72 23.3598 29.14 23.9198C33.97 13.3398 53.08 8.28976 48.4 12.5498C44.61 14.5798 41.12 17.1898 38.13 20.2798C35.25 23.2598 32.85 26.6698 31.1 30.4398C31.03 30.5898 30.93 30.7398 30.8 30.8598C30.25 31.3798 29.38 31.3598 28.86 30.8098L22.28 23.9198V23.9098Z" fill="#1267FE"/>
<path fill-rule="evenodd" clip-rule="evenodd" d="M25.0599 46.1895C23.8599 46.4695 23.5399 47.7995 23.4299 48.9195C23.3199 50.0495 23.4099 51.2195 23.4999 52.3495C23.5199 52.5495 23.5299 52.7495 23.5399 52.9595L27.6999 59.5195H36.7299L40.2899 47.3495C40.3499 47.0695 40.2499 46.7595 40.1099 46.5095C39.9999 46.3095 39.8399 46.1295 39.6599 45.9795C39.5099 45.8595 39.3299 45.7495 39.1399 45.7095C39.1099 45.7095 39.0799 45.6995 39.0399 45.6895V48.4895C39.0399 49.0095 38.6199 49.4295 38.0999 49.4295C37.5799 49.4295 37.1599 49.0095 37.1599 48.4895V45.1195C36.9199 44.8195 36.6099 44.4995 36.2499 44.3495C35.9999 44.2395 35.7199 44.2395 35.4599 44.2795V47.6095C35.4599 48.1295 35.0399 48.5495 34.5199 48.5495C33.9999 48.5495 33.5799 48.1295 33.5799 47.6095V43.7395C33.3899 43.4095 33.0699 43.0995 32.7499 42.8995C32.4799 42.7395 32.1899 42.6395 31.8799 42.6495V46.7695C31.8799 47.2895 31.4599 47.7095 30.9399 47.7095C30.4199 47.7095 29.9999 47.2895 29.9999 46.7695C29.9999 44.9195 30.0599 43.0795 30.0799 41.2295C30.0799 40.8895 30.0799 40.5395 30.0799 40.1995C30.0799 39.0895 30.1099 36.0695 28.4999 36.0695H28.4699C26.9799 36.0095 26.8899 38.2995 26.8499 39.3195C26.7099 43.1295 26.9399 46.9495 26.9399 50.7595C26.9399 51.2795 26.5199 51.6995 25.9999 51.6995C25.4799 51.6995 25.0599 51.2795 25.0599 50.7595V46.1795V46.1895Z" fill="white"/>
<path fill-rule="evenodd" clip-rule="evenodd" d="M25.0601 46.1904C23.8601 46.4704 23.5401 47.8004 23.4301 48.9204C23.3201 50.0504 23.4101 51.2204 23.5001 52.3504C23.5201 52.5504 23.5301 52.7604 23.5501 52.9604L27.7101 59.5204H36.7401L40.3001 47.3504C40.3601 47.0704 40.2601 46.7604 40.1201 46.5104C40.0101 46.3104 39.8501 46.1304 39.6701 45.9804C39.5201 45.8604 39.3401 45.7504 39.1501 45.7104C39.1201 45.7104 39.0801 45.7004 39.0501 45.6904V48.4904C39.0501 49.0104 38.6301 49.4304 38.1101 49.4304C37.5901 49.4304 37.1701 49.0104 37.1701 48.4904V45.1204C36.9301 44.8204 36.6201 44.5004 36.2601 44.3504C36.0101 44.2404 35.7301 44.2404 35.4701 44.2804V47.6104C35.4701 48.1304 35.0501 48.5504 34.5301 48.5504C34.0101 48.5504 33.5901 48.1304 33.5901 47.6104V43.7404C33.4001 43.4104 33.0801 43.1004 32.7601 42.9004C32.4901 42.7404 32.2001 42.6404 31.8901 42.6504V46.7704C31.8901 47.2904 31.4701 47.7104 30.9501 47.7104C30.4301 47.7104 30.0101 47.2904 30.0101 46.7704C30.0101 44.9204 30.0701 43.0804 30.0901 41.2304C30.0901 40.8904 30.0901 40.5404 30.0901 40.2004C30.0901 39.0904 30.1201 36.0704 28.5101 36.0704H28.4801C26.9901 36.0104 26.9001 38.3004 26.8601 39.3204C26.7201 43.1304 26.9501 46.9504 26.9501 50.7604C26.9501 51.2804 26.5301 51.7004 26.0101 51.7004C25.4901 51.7004 25.0701 51.2804 25.0701 50.7604V46.1804L25.0601 46.1904ZM34.9801 42.4604C35.6601 42.3204 36.3301 42.3404 36.9801 42.6204C37.6101 42.8804 38.1101 43.3304 38.5401 43.8504C38.8901 43.7904 39.2401 43.8104 39.5801 43.8904C40.0401 44.0004 40.4701 44.2304 40.8401 44.5204C41.2001 44.8104 41.5101 45.1804 41.7501 45.5804C42.1401 46.2504 42.3101 47.0504 42.1201 47.8204C41.0101 52.3304 39.5101 56.7504 38.2101 61.2104L38.1501 61.4104H26.6801L26.6001 61.2804C24.9801 58.7304 23.3601 56.1804 21.7401 53.6204L21.7001 53.5604V53.3104C21.6701 53.0404 21.6501 52.7704 21.6301 52.5104C21.5301 51.2604 21.4501 50.0104 21.5601 48.7604C21.7701 46.5404 22.6101 44.4904 25.0301 44.2804C25.0501 43.5804 25.0201 42.8704 25.0001 42.1704C24.9701 41.2004 24.9401 40.2304 24.9701 39.2704C25.0601 36.9204 25.5801 34.0904 28.5301 34.2004C31.7201 34.2004 31.9501 37.8104 31.9601 40.2104C31.9601 40.4004 31.9601 40.5904 31.9601 40.7704C32.5901 40.7704 33.1901 40.9704 33.7301 41.3004C34.2101 41.5904 34.6501 42.0004 34.9801 42.4604Z" fill="#1E2248"/>
<path d="M39.33 2.30038C39.28 2.30038 39.22 2.30038 39.17 2.28038C38.15 2.00038 37.1 1.78038 36.06 1.61038C35.72 1.56038 35.49 1.24038 35.55 0.900378C35.6 0.560378 35.92 0.330379 36.26 0.390379C37.35 0.560379 38.44 0.800378 39.5 1.09038C39.83 1.18038 40.03 1.52038 39.94 1.85038C39.86 2.13038 39.62 2.31038 39.34 2.31038" fill="#1E2248"/>
<path d="M31.27 62.54C22.92 62.54 15.06 59.29 9.16 53.38C3.25 47.48 0 39.62 0 31.27C0 22.92 3.25 15.06 9.16 9.16C15.07 3.25 22.92 0 31.27 0C31.61 0 31.89 0.280001 31.89 0.620001C31.89 0.960001 31.61 1.24 31.27 1.24C23.25 1.24 15.7 4.36 10.03 10.04C4.36 15.7 1.24 23.25 1.24 31.27C1.24 39.29 4.36 46.83 10.04 52.51C15.71 58.18 23.26 61.31 31.28 61.31C39.3 61.31 46.85 58.19 52.52 52.51C58.19 46.84 61.32 39.3 61.32 31.27C61.32 25.64 59.75 20.16 56.79 15.4C53.91 10.78 49.83 7.02 44.99 4.53C44.69 4.37 44.57 4 44.72 3.7C44.88 3.4 45.25 3.28 45.55 3.43C50.59 6.02 54.83 9.93 57.84 14.74C60.92 19.69 62.55 25.4 62.55 31.26C62.55 39.61 59.3 47.47 53.39 53.37C47.48 59.28 39.63 62.53 31.28 62.53" fill="#1E2248"/>
<path d="M43.1301 2.64937C43.1301 3.07937 42.78 3.43937 42.34 3.43937C41.9 3.43937 41.55 3.08937 41.55 2.64937C41.55 2.20937 41.9 1.85938 42.34 1.85938C42.78 1.85938 43.1301 2.20937 43.1301 2.64937Z" fill="#1E2248"/>
</svg>
