<svg width="63" height="63" fill="none" xmlns="http://www.w3.org/2000/svg"><path d="M33.13 39.148h8.71v-19.8a38.54 38.54 0 013.43-2.68v23.07c0 .79-.32 1.5-.84 2.01-.05.05-.1.09-.15.13-.5.44-1.16.7-1.87.7h-3.42c-.45-.45-.97-.82-1.57-1.07-.64-.27-1.3-.37-1.97-.33-.33-.35-.71-.66-1.12-.91-.38-.23-.78-.41-1.2-.53 0-.2 0-.39-.02-.59m-15.6-27.16h21.83c-1.86.95-3.73 2.1-5.45 3.43h-15.8v23.73h5.66v.06c-.04 1 0 1.99.02 2.99v.38H17.5a2.8 2.8 0 01-2.01-.84c-.52-.52-.84-1.23-.84-2.01v-24.9c0-.78.32-1.49.84-2.01.52-.52 1.23-.84 2.01-.84l.01.01z" fill="#1E2248"/><path d="M22.28 23.91c-.52-.55-.5-1.42.05-1.94 1.02-.97 5.39 1.39 6.81 1.95C33.97 13.34 53.08 8.29 48.4 12.55a41.721 41.721 0 00-10.27 7.73c-2.88 2.98-5.28 6.39-7.03 10.16a1.373 1.373 0 01-2.24.37l-6.58-6.89v-.01z" fill="#1267FE"/><path fill-rule="evenodd" clip-rule="evenodd" d="M25.06 46.19c-1.2.28-1.52 1.61-1.63 2.73-.11 1.13-.02 2.3.07 3.43.02.2.03.4.04.61l4.16 6.56h9.03l3.56-12.17c.06-.28-.04-.59-.18-.84-.11-.2-.27-.38-.45-.53-.15-.12-.33-.23-.52-.27-.03 0-.06-.01-.1-.02v2.8a.939.939 0 11-1.88 0v-3.37c-.24-.3-.55-.62-.91-.77-.25-.11-.53-.11-.79-.07v3.33a.939.939 0 11-1.88 0v-3.87c-.19-.33-.51-.64-.83-.84-.27-.16-.56-.26-.87-.25v4.12a.939.939 0 11-1.88 0c0-1.85.06-3.69.08-5.54V40.2c0-1.11.03-4.13-1.58-4.13h-.03c-1.49-.06-1.58 2.23-1.62 3.25-.14 3.81.09 7.63.09 11.44a.939.939 0 11-1.88 0v-4.58.01z" fill="#fff"/><path fill-rule="evenodd" clip-rule="evenodd" d="M25.06 46.19c-1.2.28-1.52 1.61-1.63 2.73-.11 1.13-.02 2.3.07 3.43.02.2.03.41.05.61l4.16 6.56h9.03l3.56-12.17c.06-.28-.04-.59-.18-.84-.11-.2-.27-.38-.45-.53-.15-.12-.33-.23-.52-.27-.03 0-.07-.01-.1-.02v2.8a.939.939 0 11-1.88 0v-3.37c-.24-.3-.55-.62-.91-.77-.25-.11-.53-.11-.79-.07v3.33a.939.939 0 11-1.88 0v-3.87c-.19-.33-.51-.64-.83-.84-.27-.16-.56-.26-.87-.25v4.12a.939.939 0 11-1.88 0c0-1.85.06-3.69.08-5.54V40.2c0-1.11.03-4.13-1.58-4.13h-.03c-1.49-.06-1.58 2.23-1.62 3.25-.14 3.81.09 7.63.09 11.44a.939.939 0 11-1.88 0v-4.58l-.01.01zm9.92-3.73c.68-.14 1.35-.12 2 .16.63.26 1.13.71 1.56 1.23.35-.06.7-.04 1.04.04.46.11.89.34 1.26.63.36.29.67.66.91 1.06.39.67.56 1.47.37 2.24-1.11 4.51-2.61 8.93-3.91 13.39l-.06.2H26.68l-.08-.13c-1.62-2.55-3.24-5.1-4.86-7.66l-.04-.06v-.25c-.03-.27-.05-.54-.07-.8-.1-1.25-.18-2.5-.07-3.75.21-2.22 1.05-4.27 3.47-4.48.02-.7-.01-1.41-.03-2.11-.03-.97-.06-1.94-.03-2.9.09-2.35.61-5.18 3.56-5.07 3.19 0 3.42 3.61 3.43 6.01v.56c.63 0 1.23.2 1.77.53.48.29.92.7 1.25 1.16z" fill="#1E2248"/><path d="M39.33 2.3c-.05 0-.11 0-.16-.02-1.02-.28-2.07-.5-3.11-.67a.608.608 0 01-.51-.71c.05-.34.37-.57.71-.51 1.09.17 2.18.41 3.24.7.33.09.53.43.44.76-.08.28-.32.46-.6.46" fill="#1E2248"/><path d="M31.27 62.54c-8.35 0-16.21-3.25-22.11-9.16C3.25 47.48 0 39.62 0 31.27S3.25 15.06 9.16 9.16C15.07 3.25 22.92 0 31.27 0c.34 0 .62.28.62.62 0 .34-.28.62-.62.62-8.02 0-15.57 3.12-21.24 8.8-5.67 5.66-8.79 13.21-8.79 21.23s3.12 15.56 8.8 21.24c5.67 5.67 13.22 8.8 21.24 8.8 8.02 0 15.57-3.12 21.24-8.8 5.67-5.67 8.8-13.21 8.8-21.24 0-5.63-1.57-11.11-4.53-15.87a30.184 30.184 0 00-11.8-10.87.627.627 0 01-.27-.83c.16-.3.53-.42.83-.27 5.04 2.59 9.28 6.5 12.29 11.31a31.231 31.231 0 014.71 16.52c0 8.35-3.25 16.21-9.16 22.11-5.91 5.91-13.76 9.16-22.11 9.16" fill="#1E2248"/><path d="M43.13 2.65c0 .43-.35.79-.79.79-.44 0-.79-.35-.79-.79 0-.44.35-.79.79-.79.44 0 .79.35.79.79z" fill="#1E2248"/></svg>