<svg width="63" height="63" fill="none" xmlns="http://www.w3.org/2000/svg"><path d="M31.27 62.54c-8.35 0-16.21-3.25-22.11-9.16C3.25 47.47 0 39.62 0 31.27S3.25 15.06 9.16 9.16C15.07 3.25 22.92 0 31.27 0c.34 0 .62.28.62.62 0 .34-.28.62-.62.62-8.02 0-15.57 3.12-21.24 8.8-5.67 5.68-8.8 13.21-8.8 21.24 0 8.03 3.12 15.56 8.8 21.24 5.67 5.67 13.22 8.8 21.24 8.8 8.02 0 15.57-3.12 21.24-8.8 5.67-5.67 8.8-13.21 8.8-21.24 0-5.63-1.57-11.11-4.53-15.87a30.184 30.184 0 00-11.8-10.87.627.627 0 01-.27-.83c.16-.3.53-.42.83-.27 5.04 2.59 9.28 6.5 12.29 11.31a31.231 31.231 0 014.71 16.52c0 8.35-3.25 16.21-9.16 22.11-5.91 5.91-13.76 9.16-22.11 9.16z" fill="#1E2248"/><path d="M27.73 15.37c-.66 0-1.2-.54-1.2-1.2 0-.66.54-1.2 1.2-1.2h24.31c.66 0 1.2.54 1.2 1.2 0 .66-.54 1.2-1.2 1.2H27.73zm0 4.651c-.66 0-1.2-.54-1.2-1.2 0-.66.54-1.2 1.2-1.2h10.7c.66 0 1.2.54 1.2 1.2 0 .66-.54 1.2-1.2 1.2h-10.7zm0 10.119c-.66 0-1.2-.54-1.2-1.2 0-.66.54-1.2 1.2-1.2h24.31c.66 0 1.2.54 1.2 1.2 0 .66-.54 1.2-1.2 1.2H27.73zm0 14.782c-.66 0-1.2-.54-1.2-1.2 0-.66.54-1.2 1.2-1.2h24.31c.66 0 1.2.54 1.2 1.2 0 .66-.54 1.2-1.2 1.2H27.73zm0 4.648c-.66 0-1.2-.54-1.2-1.2 0-.66.54-1.2 1.2-1.2h10.7c.66 0 1.2.54 1.2 1.2 0 .66-.54 1.2-1.2 1.2h-10.7z" fill="#1E2248"/><path d="M10.07 17.18a.794.794 0 01.03-1.13c.6-.57 3.15.82 3.99 1.14C16.92 11 28.1 8.04 25.37 10.53a24.625 24.625 0 00-6.01 4.52c-1.68 1.74-3.09 3.74-4.12 5.95-.04.09-.1.17-.18.25-.32.31-.83.29-1.13-.03l-3.85-4.04h-.01zM8.26 31.77a.794.794 0 01.03-1.13c.6-.57 3.15.82 3.99 1.14 2.83-6.19 14.01-9.15 11.28-6.66a24.625 24.625 0 00-6.01 4.52c-1.68 1.74-3.09 3.74-4.12 5.95-.04.09-.1.17-.18.25-.32.31-.83.29-1.13-.03l-3.85-4.04h-.01zm.7 13.191a.794.794 0 01.03-1.13c.6-.57 3.15.82 3.99 1.14 2.83-6.19 14.01-9.15 11.28-6.66a24.625 24.625 0 00-6.01 4.52c-1.68 1.74-3.09 3.74-4.12 5.95-.04.09-.1.17-.18.25-.32.31-.83.29-1.13-.03l-3.85-4.04h-.01z" fill="#1267FE"/><path d="M27.73 34.96c-.66 0-1.2-.54-1.2-1.2 0-.66.54-1.2 1.2-1.2h10.7c.66 0 1.2.54 1.2 1.2 0 .66-.54 1.2-1.2 1.2h-10.7z" fill="#1E2248"/></svg>