<svg width="63" height="63" fill="none" xmlns="http://www.w3.org/2000/svg"><path d="M13.94 21.03v1.61h38.09c.27 0 .5.22.5.49v29.78c.7-.66 1.37-1.37 2.01-2.09V21.03h-40.6z" fill="#fff"/><path d="M18.32 24.19c-.73 0-1.23.5-1.32 1.29h2.72c-.06-.57-.35-1.29-1.4-1.29zm1.44-.56c.55.39.89 1.03.96 1.85h20.93c.06 0 .12.01.17.04h.02l.06.03s.01.01.02.01c.02.02.05.03.07.06l7.8 7.8s.04.05.06.07v.02s.04.04.04.06v.02l.04.08v21.44c.55-.42 1.09-.85 1.61-1.3V23.63H19.76zM16 25.48c.07-.8.42-1.46.96-1.85h-6.02v1.85H16z" fill="#1267FE"/><path d="M18.79 36.6c.56 0 1.13-.25 1.46-.78H17.3c.35.53.93.78 1.49.78zm12.65 24.72c4.08 0 7.97-.8 11.54-2.25H19.9c3.56 1.45 7.45 2.25 11.54 2.25z" fill="#fff"/><path d="M41.63 34.27a.49.49 0 01-.49-.49v-7.3H16.98v8.14c0 .21.03.4.07.58h3.46c.04-.18.06-.37.06-.58v-6.99c0-.27.22-.49.5-.49s.5.22.5.49v6.99c0 .21-.02.4-.04.58h22.54c.17 0 .31.14.31.31 0 .17-.14.31-.31.31H21.35c-.17.46-.43.8-.65 1.02-.5.49-1.18.76-1.91.76-1.07 0-2.15-.61-2.6-1.77h-2.97c-.17 0-.31-.14-.31-.31 0-.17.14-.31.31-.31h2.81a3.68 3.68 0 01-.05-.58v-8.14H8.33v24.35c1.41 1.61 2.99 3.08 4.7 4.37.05-.03.11-.06.18-.06h30.82c.17 0 .31.14.31.31 0 .17-.14.31-.31.31H13.82c1.47 1.03 3.03 1.94 4.67 2.7h25.57c.07 0 .14.03.19.07 1.65-.76 3.22-1.66 4.69-2.69V34.28h-7.3l-.01-.01zm2.42 18.16H13.23c-.17 0-.31-.14-.31-.31 0-.17.14-.31.31-.31h30.82c.17 0 .31.14.31.31 0 .17-.14.31-.31.31zm0-3.32H13.23c-.17 0-.31-.14-.31-.31 0-.17.14-.31.31-.31h30.82c.17 0 .31.14.31.31 0 .17-.14.31-.31.31zm0-3.32H13.23c-.17 0-.31-.14-.31-.31 0-.17.14-.31.31-.31h30.82c.17 0 .31.14.31.31 0 .17-.14.31-.31.31zm0-3.32H13.23c-.17 0-.31-.14-.31-.31 0-.17.14-.31.31-.31h30.82c.17 0 .31.14.31.31 0 .17-.14.31-.31.31zm0-3.32H13.23c-.17 0-.31-.14-.31-.31 0-.17.14-.31.31-.31h30.82c.17 0 .31.14.31.31 0 .17-.14.31-.31.31z" fill="#fff"/><path d="M42.13 33.28h6.1l-6.1-6.11v6.11z" fill="#fff"/><path d="M20.26 35.82c.11-.18.19-.38.25-.62h-3.46c.06.24.14.44.26.62h2.95zm-7.03-.62c-.17 0-.31.14-.31.31 0 .17.14.31.31.31h2.97c-.07-.19-.13-.4-.16-.62h-2.81zm30.82.62c.17 0 .31-.14.31-.31 0-.17-.14-.31-.31-.31H21.51c-.04.23-.09.43-.16.62h22.7zm0 2.7H13.23c-.17 0-.31.14-.31.31 0 .17.14.31.31.31h30.82c.17 0 .31-.14.31-.31 0-.17-.14-.31-.31-.31zm0 3.32H13.23c-.17 0-.31.14-.31.31 0 .17.14.31.31.31h30.82c.17 0 .31-.14.31-.31 0-.17-.14-.31-.31-.31zm0 3.32H13.23c-.17 0-.31.14-.31.31 0 .17.14.31.31.31h30.82c.17 0 .31-.14.31-.31 0-.17-.14-.31-.31-.31zm0 3.33H13.23c-.17 0-.31.14-.31.31 0 .17.14.31.31.31h30.82c.17 0 .31-.14.31-.31 0-.17-.14-.31-.31-.31zm0 3.32H13.23c-.17 0-.31.14-.31.31 0 .17.14.31.31.31h30.82c.17 0 .31-.14.31-.31 0-.17-.14-.31-.31-.31zm0 3.94c.17 0 .31-.14.31-.31 0-.17-.14-.31-.31-.31H13.23a.28.28 0 00-.18.06c.25.19.51.38.77.56h30.23zm-25.57 2.7c.47.22.94.43 1.42.62h23.07c.43-.17.85-.36 1.27-.55a.316.316 0 00-.19-.07H18.48z" fill="#1267FE"/><path d="M55.03 20.04H13.45a.49.49 0 00-.49.49v2.1h.99v-1.61h40.58v29.79c.34-.39.67-.79.99-1.19v-29.1a.49.49 0 00-.49-.49" fill="#1E2248"/><path d="M52.03 22.63H10.45a.49.49 0 00-.49.49v2.35h.99v-1.85h6.02c.37-.28.83-.43 1.36-.43.57 0 1.05.15 1.44.43h31.78V53.8c.34-.29.67-.59.99-.9V23.12c0-.27-.22-.49-.5-.49" fill="#1E2248"/><path d="M41.89 25.56s.01.01.02.01c0 0-.01 0-.02-.01zm8.03 8.2c0 .07 0 .14-.04.2a.49.49 0 01-.46.3h-.49v21.57c.33-.23.66-.47.99-.72V33.77m-29.69-7.51a.5.5 0 01-.5-.49c0-.09 0-.18-.02-.28h-2.72c-.01.09-.02.19-.02.28v.71h24.16v-.49c0-.2.12-.38.31-.46.06-.02.13-.04.2-.03H20.71c0 .09.01.18.01.28 0 .27-.22.49-.5.49m-4.23.2v-.71c0-.1 0-.19.01-.28H7.85c-.27 0-.49.22-.49.5v23.65c.32.4.65.8.99 1.19V26.47H16h-.01z" fill="#1E2248"/><path d="M41.14 25.98v7.79c0 .27.22.49.49.49h7.8c.2 0 .38-.12.46-.3.03-.07.04-.13.04-.2v-.09s-.01-.06-.02-.08v-.02s-.03-.04-.04-.06v-.02l-.07-.07-7.8-7.8s-.04-.04-.07-.06c0 0-.01 0-.02-.01l-.06-.03h-.02a.467.467 0 00-.17-.03c-.07 0-.13.01-.2.03-.18.08-.31.26-.31.46m7.1 7.3h-6.11v-6.11l6.11 6.11z" fill="#1E2248"/><path d="M31.27 62.54c-8.35 0-16.21-3.25-22.11-9.16C3.25 47.47 0 39.62 0 31.27S3.25 15.06 9.16 9.16C15.07 3.25 22.92 0 31.27 0c.34 0 .62.28.62.62 0 .34-.28.62-.62.62-8.02 0-15.56 3.12-21.24 8.8-5.67 5.67-8.8 13.21-8.8 21.24 0 8.03 3.13 15.57 8.8 21.24 5.67 5.67 13.22 8.8 21.24 8.8 8.02 0 15.57-3.12 21.24-8.8 5.67-5.67 8.8-13.21 8.8-21.24 0-5.63-1.56-11.11-4.53-15.87a30.184 30.184 0 00-11.8-10.87.618.618 0 01-.27-.83c.16-.3.53-.42.83-.27 5.04 2.59 9.28 6.5 12.29 11.31a31.231 31.231 0 014.71 16.52c0 8.35-3.25 16.21-9.16 22.11-5.91 5.91-13.76 9.16-22.11 9.16z" fill="#1E2248"/><path d="M39.33 2.3c-.05 0-.11 0-.16-.02-1.02-.28-2.07-.5-3.11-.67a.608.608 0 01-.51-.71c.05-.34.37-.57.71-.51 1.09.17 2.18.41 3.24.7.33.09.52.43.44.76-.08.28-.33.46-.6.46m3.78.33c0 .43-.36.79-.79.79-.43 0-.79-.35-.79-.79 0-.44.35-.79.79-.79.44 0 .79.35.79.79z" fill="#1E2248"/><path fill-rule="evenodd" clip-rule="evenodd" d="M18.32 24.76c3.48-5.56 9.79-9.78 15.59-12.26 2.17-.93 5.23-2.04 7.61-2.11 1.57-.05 3.18.48 3.74 2.12.54 1.59-.4 3.03-1.53 4.06l-.23.21-.28.15c-4.21 2.25-8.09 5.15-11.41 8.59-3.18 3.29-5.84 7.06-7.77 11.21-.22.47-.53.9-.9 1.26a4.148 4.148 0 01-5.85-.14l-7.72-8.08c-1.58-1.65-1.51-4.28.14-5.86 2.12-2.02 5.79-.43 8.62.86" fill="#fff"/><path d="M11.39 28.01a1.6 1.6 0 01.06-2.27c1.2-1.14 6.31 1.63 7.98 2.28 5.67-12.4 28.06-18.33 22.58-13.33-4.44 2.38-8.54 5.44-12.04 9.06-3.37 3.49-6.19 7.49-8.24 11.91a1.6 1.6 0 01-2.62.43l-7.72-8.08z" fill="#1267FE"/></svg>