<svg width="63" height="63" fill="none" xmlns="http://www.w3.org/2000/svg"><path d="M39.33 2.298c-.05 0-.11 0-.16-.02-1.02-.28-2.07-.5-3.11-.67a.608.608 0 01-.51-.71c.05-.34.37-.57.71-.51 1.09.17 2.18.41 3.24.7.33.09.52.43.43.76a.61.61 0 01-.6.46" fill="#1E2248"/><path d="M31.27 62.54c-8.35 0-16.21-3.25-22.11-9.16C3.25 47.47 0 39.62 0 31.27S3.25 15.06 9.16 9.16C15.07 3.25 22.92 0 31.27 0c.34 0 .62.28.62.62 0 .34-.28.62-.62.62-8.02 0-15.57 3.12-21.24 8.8-5.67 5.67-8.8 13.21-8.8 21.24 0 8.03 3.12 15.57 8.8 21.24 5.67 5.67 13.22 8.8 21.24 8.8 8.02 0 15.57-3.12 21.24-8.8 5.67-5.67 8.8-13.21 8.8-21.24 0-5.63-1.57-11.11-4.53-15.87a30.184 30.184 0 00-11.8-10.87.627.627 0 01-.27-.83c.16-.3.53-.42.83-.27a31.38 31.38 0 0112.28 11.31 31.24 31.24 0 014.72 16.52c0 8.35-3.25 16.21-9.16 22.11-5.91 5.91-13.76 9.16-22.11 9.16z" fill="#1E2248"/><path d="M43.13 2.64c0 .43-.35.79-.79.79-.44 0-.79-.35-.79-.79 0-.44.35-.79.79-.79.44 0 .79.35.79.79z" fill="#1E2248"/><path fill-rule="evenodd" clip-rule="evenodd" d="M28.87 28.41h.95c.96 0 1.62-.12 1.99-.38.36-.25.54-.67.54-1.25 0-.34-.09-.64-.27-.9a1.46 1.46 0 00-.72-.55c-.3-.11-.85-.17-1.66-.17h-.83v3.25zm-2.98-6.15h3.18c1.74 0 2.98.15 3.72.46.74.31 1.33.83 1.78 1.55.45.72.68 1.57.68 2.55 0 .98-.25 1.9-.74 2.59-.5.7-1.24 1.22-2.24 1.58l3.71 6.99h-3.27l-3.53-6.66h-.3v6.66H25.9V22.26h-.01z" fill="#fff"/><path d="M29.73 28.87h-1.02c-.32 0-.59-.26-.59-.59V24.8c0-.32.26-.59.59-.59h.89c.44 0 .82.02 1.15.05.35.04.63.09.84.17.22.08.41.18.58.32.18.13.33.3.46.49.13.18.22.38.29.58v.03c.08.22.11.45.11.69 0 .39-.07.74-.2 1.04-.14.31-.34.57-.62.77l-.03.02c-.27.18-.62.32-1.05.4-.4.08-.87.11-1.42.11m-.43-1.18h.43c.49 0 .89-.03 1.2-.09.27-.05.48-.12.6-.21h.01c.1-.08.17-.17.22-.29.06-.15.1-.34.1-.57 0-.13-.02-.24-.05-.35v-.02c-.04-.09-.08-.18-.13-.26-.06-.08-.13-.16-.21-.22-.08-.06-.18-.11-.28-.15a2.16 2.16 0 00-.54-.1 9.87 9.87 0 00-1.04-.04h-.3v2.31l-.01-.01zm-.37-5.43h-2.83v15.71h2.02v-6.56c0-.32.26-.59.59-.59h.33c.21 0 .41.11.52.31l3.63 6.84h2.18l-3.53-6.64-.03-.08c-.11-.31.05-.64.36-.75.48-.17.9-.38 1.26-.63.35-.24.63-.53.86-.84.22-.32.39-.68.51-1.08.12-.41.18-.87.18-1.37 0-.5-.05-.93-.16-1.33s-.26-.77-.47-1.1a3.82 3.82 0 00-.73-.86c-.27-.23-.56-.42-.89-.56h-.03c-.35-.16-.83-.27-1.44-.34-.64-.08-1.42-.12-2.33-.12v-.01zm-3.41-1.18h3.41c.95 0 1.78.04 2.47.13.72.09 1.3.23 1.75.42h.03c.45.2.85.46 1.2.76.36.31.68.69.95 1.13.27.43.48.91.61 1.43.13.51.2 1.05.2 1.63 0 .61-.07 1.17-.22 1.69-.15.53-.38 1.01-.68 1.43-.31.43-.69.8-1.14 1.12-.28.2-.58.37-.92.53l3.68 6.93a.587.587 0 01-.52.86h-3.51c-.24 0-.44-.14-.53-.34l-3-5.65v5.4c0 .33-.26.59-.59.59h-3.2c-.32 0-.59-.26-.59-.59V21.67c0-.33.26-.59.59-.59l.01.01z" fill="#1E2248"/><path d="M36.36 17.538c0 .16-.06.3-.17.4-.1.1-.24.17-.4.17-.16 0-.3-.06-.4-.17-.1-.1-.17-.24-.17-.4 0-.16.06-.3.17-.4.1-.1.24-.17.4-.17.16 0 .3.06.4.17.1.1.17.24.17.4zm-5.43 26.53c-1.86 0-3.67-.36-5.34-1.06-1.67-.69-3.21-1.71-4.52-3.03a13.814 13.814 0 01-3.03-4.53c-.69-1.67-1.06-3.48-1.06-5.34 0-1.86.36-3.67 1.06-5.34.69-1.67 1.72-3.21 3.03-4.53 1.32-1.32 2.85-2.34 4.53-3.03 1.67-.69 3.48-1.06 5.34-1.06.14 0 .26.05.35.14.09.09.14.21.14.35 0 .14-.06.26-.14.35-.09.09-.21.14-.35.14-1.73 0-3.42.34-4.97.98-1.55.64-2.98 1.59-4.21 2.82a12.827 12.827 0 00-2.82 4.21c-.64 1.55-.98 3.23-.98 4.97 0 1.74.34 3.42.98 4.97.64 1.55 1.59 2.98 2.82 4.2 1.23 1.23 2.65 2.18 4.21 2.82 1.55.64 3.23.98 4.97.98 1.74 0 3.42-.34 4.97-.98 1.55-.64 2.98-1.59 4.21-2.82a12.89 12.89 0 002.82-4.2c.64-1.55.98-3.23.98-4.97a12.935 12.935 0 00-4.19-9.54 13.06 13.06 0 00-2.87-2 .492.492 0 01-.24-.29.48.48 0 01.03-.37c.06-.13.17-.21.28-.25a.48.48 0 01.37.03 13.987 13.987 0 015.48 5.05c.69 1.1 1.21 2.29 1.57 3.53.35 1.24.54 2.53.54 3.84 0 1.86-.36 3.67-1.06 5.34-.69 1.67-1.71 3.21-3.03 4.53a13.814 13.814 0 01-4.53 3.03c-1.67.69-3.48 1.06-5.34 1.06zm3.54-26.46h-.06l-.07-.02c-.22-.06-.45-.11-.67-.16-.22-.05-.44-.09-.66-.12h-.02a.495.495 0 01-.41-.54v-.03a.503.503 0 01.56-.41c.25.04.49.09.73.14.23.05.47.11.72.18.13.03.23.12.3.23.06.11.08.24.05.37-.03.11-.09.2-.18.26-.08.06-.19.1-.3.1h.01z" fill="#fff"/><path d="M14.96 41.68c-2.72-3.76-4.02-8.4-3.67-13.05.35-4.7 2.39-9.13 5.73-12.47a19.63 19.63 0 0113.97-5.79c5.28 0 10.24 2.06 13.97 5.79 7.7 7.7 7.7 20.23 0 27.94a19.63 19.63 0 01-13.97 5.79c-4.18 0-8.18-1.29-11.55-3.73a.583.583 0 00-.75.06l-3.83 3.83-3.79-3.8 3.83-3.83c.2-.2.22-.51.06-.74zm4.41.07c3.1 3.1 7.23 4.81 11.62 4.81 4.39 0 8.52-1.71 11.62-4.81.12-.12.24-.24.35-.37l.09-.09c.09-.1.19-.2.28-.31.02-.02.04-.05.06-.07 1.7-1.95 2.86-4.21 3.48-6.58.02-.06.03-.12.04-.17l.06-.25c.63-2.68.6-5.53-.18-8.28 0-.02-.01-.04-.02-.06a16.32 16.32 0 00-4.16-7.05 16.33 16.33 0 00-11.62-4.81c-4.39 0-8.52 1.71-11.62 4.81-6.41 6.41-6.41 16.83 0 23.24v-.01zM9.06 46.709c.54 0 1.05.21 1.44.59l3.32 3.32a2.027 2.027 0 010 2.88l-1.26 1.26c-.87-.7-1.71-1.45-2.52-2.25a30.295 30.295 0 01-3.47-4.15l1.06-1.06c.38-.38.89-.59 1.44-.59" fill="#1267FE"/><path d="M51.77 32.238c-.17 1.64-.52 3.26-1.07 4.83-.08.24-.17.48-.27.72-.42 1.08-.94 2.13-1.55 3.14l-.45.72c-.73 1.11-1.58 2.16-2.54 3.14-.04.04-.08.08-.12.13-.2.2-.41.4-.62.59a20.854 20.854 0 01-5.94 3.86 20.79 20.79 0 01-8.22 1.67c-.25 0-.5 0-.75-.01a20.748 20.748 0 01-11.07-3.64l-3.75 3.75c-.15-.49-.42-.94-.79-1.31l-3.32-3.32c-.37-.37-.82-.64-1.31-.79l3.75-3.75a20.951 20.951 0 01-3.6-13.41c.38-4.98 2.53-9.66 6.06-13.2 3.95-3.95 9.2-6.12 14.78-6.12s10.83 2.17 14.78 6.12c4.32 4.32 6.35 10.07 6.09 15.74-.02.38-.05.77-.08 1.15m-36.91 17.81l3.83-3.83a.583.583 0 01.75-.06c3.37 2.44 7.37 3.73 11.55 3.73 5.28 0 10.24-2.06 13.97-5.79 7.7-7.7 7.7-20.23 0-27.94A19.63 19.63 0 0031 10.378a19.63 19.63 0 00-13.97 5.79 19.78 19.78 0 00-5.73 12.47c-.35 4.65.95 9.29 3.67 13.05.17.23.14.54-.06.74l-3.83 3.83 3.79 3.8z" fill="#1E2248"/><path d="M9.06 45.559a3.163 3.163 0 012.25.93l3.32 3.32a3.163 3.163 0 01.93 2.25c0 .85-.33 1.65-.93 2.25l-1.16 1.16c-.31-.23-.62-.46-.92-.71l1.26-1.26a2.027 2.027 0 000-2.88l-3.32-3.32c-.38-.38-.89-.59-1.44-.59-.55 0-1.05.21-1.44.59l-1.06 1.06c-.22-.32-.44-.65-.65-.97l.89-.89c.6-.6 1.4-.93 2.25-.93" fill="#1E2248"/><path d="M30.94 13.729c9.08 0 16.44 7.36 16.44 16.44 0 9.08-7.36 16.44-16.44 16.44-9.08 0-16.44-7.36-16.44-16.44 0-9.08 7.36-16.44 16.44-16.44z" stroke="#1E2248" stroke-width="1.2" stroke-miterlimit="22.93"/></svg>