<svg width="63" height="63" fill="none" xmlns="http://www.w3.org/2000/svg"><path d="M26.09 22.38L6.65 40.67a.576.576 0 00-.01.83l3.11 3.11a.576.576 0 00.83-.01l18.3-19.44c.21-.23.21-.58-.01-.8l-1.96-1.96a.567.567 0 00-.8-.01" fill="#1E2248"/><path d="M44.78 44.21a.62.62 0 00-.44-.18H25.09c-.17 0-.33.07-.44.18a.62.62 0 00-.18.44v2.14h-2.2v2.14h-3.35v2.14h31.59v-2.14h-3.35v-2.14h-2.2v-2.14c0-.17-.07-.32-.18-.44z" fill="#1267FE"/><path d="M23.22 16.49L34.4 27.67l7.65-7.66c.08-.08.16-.14.24-.2L31.07 8.59c-.06.08-.12.17-.2.24l-7.66 7.66h.01z" fill="#fff"/><path d="M23.22 16.49L34.4 27.67l7.65-7.66c.08-.08.16-.14.24-.2L31.07 8.59c-.06.08-.12.17-.2.24l-7.66 7.66h.01z" stroke="#1E2248" stroke-miterlimit="10"/><path d="M42.3 19.81c-.08.06-.17.12-.24.2l-7.65 7.66-.11.11a2.354 2.354 0 103.33 3.33l7.76-7.76c.92-.92.92-2.41 0-3.33-.84-.84-2.16-.9-3.08-.2M27.55 5.5l-7.76 7.76a2.354 2.354 0 103.33 3.33l.11-.11 7.66-7.66c.08-.08.14-.16.2-.24.7-.92.64-2.24-.2-3.08-.92-.92-2.41-.92-3.33 0" fill="#1267FE"/><path d="M31.27 62.54c-8.35 0-16.21-3.25-22.11-9.16C3.25 47.47 0 39.62 0 31.27S3.25 15.06 9.16 9.16C15.07 3.25 22.92 0 31.27 0c.34 0 .62.28.62.62 0 .34-.28.62-.62.62-8.02 0-15.56 3.12-21.24 8.8-5.67 5.67-8.8 13.21-8.8 21.24 0 8.03 3.13 15.57 8.8 21.24 5.67 5.67 13.22 8.8 21.24 8.8 8.02 0 15.57-3.12 21.24-8.8 5.67-5.67 8.8-13.21 8.8-21.24 0-5.63-1.56-11.11-4.53-15.87a30.184 30.184 0 00-11.8-10.87.618.618 0 01-.27-.83c.16-.3.53-.42.83-.27 5.04 2.59 9.28 6.5 12.29 11.31a31.231 31.231 0 014.71 16.52c0 8.35-3.25 16.21-9.16 22.11-5.91 5.91-13.76 9.16-22.11 9.16z" fill="#1E2248"/><path d="M39.33 2.3c-.05 0-.11 0-.16-.02-1.02-.28-2.07-.5-3.11-.67a.608.608 0 01-.51-.71c.05-.34.37-.57.71-.51 1.09.17 2.18.41 3.24.7.33.09.52.43.44.76-.08.28-.33.46-.6.46m3.78.33c0 .43-.36.79-.79.79-.43 0-.79-.35-.79-.79 0-.44.35-.79.79-.79.44 0 .79.35.79.79z" fill="#1E2248"/></svg>