<svg width="63" height="63" fill="none" xmlns="http://www.w3.org/2000/svg"><path fill-rule="evenodd" clip-rule="evenodd" d="M7.89 18.17h24.09c-.61.88-1.12 1.83-1.53 2.81-.76 1.83-1.16 3.82-1.16 5.86 0 2.04.4 4.02 1.16 5.86a15.33 15.33 0 003.32 4.96 15.33 15.33 0 004.96 3.32c.61.25 1.23.46 1.87.64v16.53c0 .67-.18 1.3-.5 1.84-2.83.87-5.8 1.31-8.84 1.31-8.02 0-15.57-3.12-21.24-8.8a30.004 30.004 0 01-5.81-8.15V21.84c0-2.02 1.65-3.67 3.67-3.67" fill="#1267FE"/><path d="M16.78 58.111h13.98c1.37 0 2.5 1.08 2.58 2.43h2.95c.91 0 1.74-.37 2.33-.97.6-.6.97-1.43.97-2.33v-16.32c.49.16.99.3 1.51.41v15.91c0 1.29-.52 2.47-1.36 3.34-2.69.78-5.53 1.19-8.48 1.19-5.25 0-10.18-1.33-14.5-3.66m-8.23-40.66h24.58c-.41.48-.79.98-1.14 1.51H8.53c-.91 0-1.73.37-2.33.97-.6.6-.97 1.43-.97 2.33v24.91c-.55-.89-1.05-1.82-1.51-2.77v-22.14c0-1.32.54-2.53 1.41-3.4.87-.87 2.08-1.41 3.4-1.41z" fill="#1E2248"/><path d="M11.13 22.76H30.2c-.15.49-.27.99-.37 1.51h-18.7s-.06.01-.08.04c-.02.02-.04.05-.04.08v5.96s.01.06.04.08c.02.02.05.03.08.03h18.85c.12.51.27 1.02.45 1.51H11.12c-.45 0-.85-.18-1.15-.48-.29-.29-.48-.7-.48-1.15v-5.96c0-.45.18-.85.48-1.15.29-.29.7-.48 1.15-.48" fill="#fff"/><path d="M18.15 27.97c.74 0 1.03-.95.43-1.37a.727.727 0 00-.43-.13h-3.01c-.74 0-1.03.95-.43 1.37.13.09.27.13.43.13h3.01zm6.02 0c.74 0 1.03-.95.43-1.37a.727.727 0 00-.43-.13h-3.01c-.74 0-1.03.95-.43 1.37.13.09.27.13.43.13h3.01zm5.41-1.51h-2.4c-.74 0-1.03.95-.43 1.37.13.09.27.13.43.13h2.42c-.02-.31-.03-.63-.03-.95 0-.19 0-.37.01-.55zM14.37 37.72h-4.33v3.67h4.33v-3.67zm-4.5-1.51h4.66c.37 0 .7.15.95.39.24.24.39.58.39.95v4.01c0 .37-.15.7-.39.95-.24.24-.58.39-.95.39H9.87c-.37 0-.7-.15-.95-.39-.24-.24-.39-.58-.39-.95v-4.01c0-.37.15-.7.39-.95.24-.24.58-.39.95-.39zm14.72 1.51h-4.33v3.67h4.33v-3.67zm-4.49-1.51h4.66c.37 0 .7.15.95.39.24.24.39.58.39.95v4.01c0 .37-.15.7-.39.95-.24.24-.58.39-.95.39H20.1c-.37 0-.7-.15-.95-.39-.24-.24-.39-.58-.39-.95v-4.01c0-.37.15-.7.39-.95.24-.24.58-.39.95-.39zm-5.73 10.98h-4.33v3.67h4.33v-3.67zm-4.5-1.51h4.66c.37 0 .7.15.95.39.24.24.39.58.39.95v4.01c0 .37-.15.7-.39.95-.24.24-.58.39-.95.39H9.87c-.37 0-.7-.15-.95-.39-.24-.24-.39-.58-.39-.95v-4.01c0-.37.15-.7.39-.95.24-.24.58-.39.95-.39zm14.72 1.51h-4.33v3.67h4.33v-3.67zm-4.49-1.51h4.66c.37 0 .7.15.95.39.25.24.39.58.39.95v4.01c0 .37-.15.7-.39.95-.24.24-.58.39-.95.39H20.1c-.37 0-.7-.15-.95-.39-.24-.24-.39-.58-.39-.95v-4.01c0-.37.15-.7.39-.95.24-.24.58-.39.95-.39zm10.21-9.46h2.52c.43.53.9 1.04 1.4 1.51h-3.76v3.67h4.33v-3.17c.48.4.98.77 1.51 1.11v2.22c0 .37-.15.7-.39.95-.24.24-.58.39-.95.39h-4.66c-.37 0-.7-.15-.95-.39-.24-.24-.39-.58-.39-.95v-4.01c0-.37.15-.7.39-.95.24-.24.58-.39.95-.39m4.49 10.98h-4.33v3.67h4.33v-3.67zm-4.49-1.51h4.66c.37 0 .7.15.95.39.24.24.39.58.39.95v4.01c0 .37-.15.7-.39.95-.24.24-.58.39-.95.39h-4.66c-.37 0-.7-.15-.95-.39-.24-.24-.39-.58-.39-.95v-4.01c0-.37.15-.7.39-.95.24-.24.58-.39.95-.39z" fill="#fff"/><path d="M39.33 2.3c-.05 0-.11 0-.16-.02-1.02-.28-2.07-.5-3.11-.67a.608.608 0 01-.51-.71c.05-.34.37-.57.71-.51 1.09.17 2.18.41 3.24.7.33.09.53.43.44.76-.08.28-.32.46-.6.46" fill="#1E2248"/><path d="M42.33 24.97h1.04c1.06 0 1.78-.14 2.18-.41.4-.28.6-.73.6-1.37 0-.38-.1-.7-.3-.98-.2-.28-.46-.48-.79-.6s-.94-.18-1.82-.18h-.91v3.55-.01zm-3.26-6.74h3.48c1.9 0 3.26.17 4.07.51.81.34 1.46.91 1.95 1.7.49.79.74 1.72.74 2.8 0 1.08-.27 2.08-.81 2.84-.54.76-1.36 1.34-2.45 1.73l4.07 7.66h-3.58l-3.87-7.3h-.33v7.3h-3.26V18.22l-.01.01z" fill="#fff"/><path d="M31.27 62.54c-8.35 0-16.21-3.25-22.11-9.16C3.25 47.47 0 39.62 0 31.27S3.25 15.06 9.16 9.16C15.07 3.25 22.92 0 31.27 0c.34 0 .62.28.62.62 0 .34-.28.62-.62.62-8.02 0-15.57 3.12-21.24 8.8-5.67 5.67-8.8 13.21-8.8 21.24 0 8.03 3.12 15.56 8.8 21.24 5.67 5.67 13.22 8.8 21.24 8.8 8.02 0 15.57-3.12 21.24-8.8 5.67-5.67 8.8-13.21 8.8-21.24 0-5.63-1.57-11.11-4.53-15.87a30.184 30.184 0 00-11.8-10.87.627.627 0 01-.27-.83c.16-.3.53-.42.83-.27 5.04 2.59 9.28 6.5 12.29 11.31a31.231 31.231 0 014.71 16.52c0 8.35-3.25 16.21-9.16 22.11-5.91 5.91-13.76 9.16-22.11 9.16z" fill="#1E2248"/><path d="M43.13 2.64c0 .43-.35.79-.79.79-.44 0-.79-.35-.79-.79 0-.44.35-.79.79-.79.44 0 .79.35.79.79zm.15 22.831h-1.12c-.36 0-.64-.29-.64-.64v-3.81c0-.36.29-.64.64-.64h.98c.48 0 .9.02 1.26.05.38.04.69.1.92.19.24.09.45.2.64.35.19.15.36.32.51.53.14.2.25.41.32.64v.03c.08.24.12.49.12.75 0 .43-.07.81-.22 1.14-.15.35-.38.63-.67.84l-.03.02c-.29.2-.67.35-1.15.44-.43.08-.95.12-1.55.12m-.47-1.29h.47c.53 0 .97-.03 1.32-.1.3-.06.52-.13.66-.23h.01c.1-.09.19-.19.24-.32.07-.16.11-.37.11-.63 0-.14-.02-.27-.05-.38v-.02c-.04-.1-.09-.2-.15-.28-.06-.09-.14-.17-.23-.24-.09-.07-.2-.13-.31-.17-.12-.05-.32-.09-.59-.11-.29-.03-.67-.04-1.14-.04h-.33v2.53l-.01-.01zm-.41-5.95h-3.1v17.22h2.22v-7.19c0-.36.29-.64.64-.64h.36c.23 0 .45.12.57.34l3.98 7.49h2.39l-3.87-7.28-.04-.09c-.12-.34.06-.7.39-.82.53-.19.99-.42 1.38-.7.38-.27.69-.58.94-.93.25-.35.43-.74.56-1.18.13-.45.19-.95.19-1.5s-.06-1.01-.18-1.46c-.12-.44-.29-.84-.52-1.21-.23-.37-.49-.68-.8-.94-.29-.25-.62-.46-.97-.61h-.03c-.38-.17-.91-.29-1.57-.38-.7-.09-1.55-.13-2.55-.13l.01.01zm-3.74-1.29h3.74c1.05 0 1.95.05 2.71.14.79.1 1.43.25 1.92.46l.03.02c.49.21.93.48 1.32.82.4.34.74.76 1.04 1.24.3.48.52 1 .67 1.56.15.56.22 1.15.22 1.78 0 .67-.08 1.28-.24 1.85-.17.58-.42 1.1-.75 1.57s-.75.88-1.25 1.23c-.3.21-.64.41-1 .58l4.04 7.6c.17.31.05.7-.27.87-.1.05-.2.08-.3.08H46.7c-.26 0-.48-.15-.58-.37l-3.29-6.2v5.92c0 .36-.29.64-.64.64h-3.51c-.36 0-.64-.29-.64-.64v-18.51c0-.36.29-.64.64-.64h-.01z" fill="#1E2248"/><path d="M50.54 13.06c0 .17-.07.33-.18.44a.628.628 0 01-.88 0 .628.628 0 010-.88.628.628 0 01.88 0c.11.11.18.27.18.44zm-5.95 29.07a15.224 15.224 0 01-10.81-4.48 15.33 15.33 0 01-3.32-4.96c-.76-1.83-1.16-3.82-1.16-5.86 0-2.04.4-4.02 1.16-5.86a15.33 15.33 0 013.32-4.96 15.224 15.224 0 0110.81-4.48c.15 0 .28.06.38.16a.529.529 0 010 .76c-.1.1-.23.16-.38.16-1.9 0-3.74.37-5.44 1.07-1.7.7-3.27 1.75-4.61 3.09a14.16 14.16 0 00-3.09 4.61c-.7 1.7-1.07 3.54-1.07 5.44 0 1.9.37 3.74 1.07 5.45.7 1.7 1.75 3.26 3.09 4.61a14.16 14.16 0 004.61 3.09c1.7.7 3.54 1.07 5.44 1.07 1.9 0 3.74-.37 5.45-1.07 1.7-.7 3.27-1.75 4.61-3.09a14.16 14.16 0 003.09-4.61c.7-1.7 1.07-3.54 1.07-5.45 0-1.33-.19-2.65-.55-3.91a14.192 14.192 0 00-4.05-6.55c-.94-.87-2-1.61-3.14-2.19a.583.583 0 01-.27-.31.583.583 0 01.03-.41c.07-.14.18-.23.31-.27.13-.04.28-.03.41.03a15.3 15.3 0 016.01 5.54c.75 1.21 1.33 2.51 1.72 3.87.39 1.36.59 2.78.59 4.21 0 2.04-.4 4.02-1.16 5.86a15.33 15.33 0 01-3.32 4.96 15.237 15.237 0 01-10.82 4.48h.02zm3.88-29h-.07l-.07-.02c-.25-.07-.49-.13-.73-.18-.25-.05-.49-.1-.72-.14h-.03a.562.562 0 01-.35-.22.574.574 0 01-.1-.37v-.03a.55.55 0 01.62-.45c.27.04.54.09.8.15.26.05.52.12.79.19a.53.53 0 01.38.66.53.53 0 01-.52.4v.01z" fill="#1E2248"/></svg>