<svg width="63" height="63" fill="none" xmlns="http://www.w3.org/2000/svg"><path d="M39.33 2.3c-.05 0-.11 0-.16-.02-1.02-.28-2.07-.5-3.11-.67a.608.608 0 01-.51-.71c.05-.34.37-.57.71-.51 1.09.17 2.18.41 3.24.7.33.09.52.43.43.76a.61.61 0 01-.6.46" fill="#1E2248"/><path d="M31.27 62.54c-8.35 0-16.21-3.25-22.11-9.16C3.25 47.47 0 39.62 0 31.27S3.25 15.06 9.16 9.16C15.07 3.25 22.92 0 31.27 0c.34 0 .62.28.62.62 0 .34-.28.62-.62.62-8.02 0-15.57 3.12-21.24 8.8-5.67 5.67-8.8 13.21-8.8 21.24 0 8.03 3.12 15.57 8.8 21.24 5.67 5.67 13.22 8.8 21.24 8.8 8.02 0 15.57-3.12 21.24-8.8 5.67-5.67 8.8-13.21 8.8-21.24 0-5.63-1.57-11.11-4.53-15.87a30.184 30.184 0 00-11.8-10.87.627.627 0 01-.27-.83c.16-.3.53-.42.83-.27a31.38 31.38 0 0112.28 11.31 31.24 31.24 0 014.72 16.52c0 8.35-3.25 16.21-9.16 22.11-5.91 5.91-13.76 9.16-22.11 9.16z" fill="#1E2248"/><path d="M43.13 2.64c0 .43-.35.79-.79.79-.44 0-.79-.35-.79-.79 0-.44.35-.79.79-.79.44 0 .79.35.79.79z" fill="#1E2248"/><path d="M14.96 41.671c-2.72-3.76-4.02-8.4-3.67-13.05.35-4.7 2.39-9.13 5.73-12.47a19.63 19.63 0 0113.97-5.79c5.28 0 10.24 2.06 13.97 5.79 7.7 7.7 7.7 20.23 0 27.94a19.63 19.63 0 01-13.97 5.79c-4.18 0-8.18-1.29-11.55-3.73a.583.583 0 00-.75.06l-3.83 3.83-3.79-3.8 3.83-3.83c.2-.2.22-.51.06-.74zm4.41.07c3.1 3.1 7.23 4.81 11.62 4.81 4.39 0 8.52-1.71 11.62-4.81.12-.12.24-.24.35-.37l.09-.09c.09-.1.19-.2.28-.31.02-.02.04-.05.06-.07 1.7-1.95 2.86-4.21 3.48-6.58.02-.06.03-.12.04-.17l.06-.25c.63-2.68.6-5.53-.18-8.28 0-.02-.01-.04-.02-.06a16.32 16.32 0 00-4.16-7.05c-3.1-3.11-7.23-4.81-11.62-4.81-4.39 0-8.52 1.71-11.62 4.81-6.41 6.41-6.41 16.83 0 23.24v-.01z" fill="#1267FE"/><path d="M9.05 46.71c.54 0 1.05.21 1.44.59l3.32 3.32a2.027 2.027 0 010 2.88l-1.26 1.26c-.87-.7-1.71-1.45-2.52-2.25a30.295 30.295 0 01-3.47-4.15l1.06-1.06c.38-.38.89-.59 1.44-.59" fill="#fff"/><path d="M51.77 32.23c-.17 1.64-.52 3.26-1.07 4.83-.08.24-.17.48-.27.72-.42 1.08-.94 2.13-1.55 3.14l-.45.72c-.73 1.11-1.58 2.16-2.54 3.14-.04.04-.08.08-.12.13-.2.2-.41.4-.62.59a20.854 20.854 0 01-5.94 3.86 20.79 20.79 0 01-8.22 1.67c-.25 0-.5 0-.75-.01a20.748 20.748 0 01-11.07-3.64l-3.75 3.75c-.15-.49-.42-.94-.79-1.31l-3.32-3.32c-.37-.37-.82-.64-1.31-.79l3.75-3.75a20.951 20.951 0 01-3.6-13.41c.38-4.98 2.53-9.66 6.06-13.2 3.95-3.95 9.2-6.12 14.78-6.12s10.83 2.17 14.78 6.12c4.32 4.32 6.35 10.07 6.09 15.74-.02.38-.05.77-.08 1.15M14.87 50.05l3.83-3.83a.583.583 0 01.75-.06c3.37 2.44 7.37 3.73 11.55 3.73 5.28 0 10.23-2.06 13.97-5.79 7.7-7.7 7.7-20.23 0-27.94A19.63 19.63 0 0031 10.37a19.63 19.63 0 00-13.97 5.79 19.78 19.78 0 00-5.73 12.47c-.35 4.65.95 9.29 3.67 13.05.17.23.14.54-.06.74l-3.83 3.83 3.79 3.8z" fill="#1E2248"/><path d="M9.05 45.56a3.163 3.163 0 012.25.93l3.32 3.32a3.163 3.163 0 01.93 2.25c0 .85-.33 1.65-.93 2.25l-1.16 1.16c-.31-.23-.62-.46-.92-.71l1.26-1.26a2.027 2.027 0 000-2.88l-3.32-3.32c-.38-.38-.89-.59-1.44-.59-.55 0-1.05.21-1.44.59l-1.06 1.06c-.22-.32-.44-.65-.65-.97l.89-.89c.6-.6 1.4-.93 2.25-.93" fill="#1E2248"/><path fill-rule="evenodd" clip-rule="evenodd" d="M30.94 13.73c9.08 0 16.44 7.36 16.44 16.44 0 9.08-7.36 16.44-16.44 16.44-9.08 0-16.44-7.36-16.44-16.44 0-9.08 7.36-16.44 16.44-16.44z" fill="#fff"/><path d="M30.94 13.73c9.08 0 16.44 7.36 16.44 16.44 0 9.08-7.36 16.44-16.44 16.44-9.08 0-16.44-7.36-16.44-16.44 0-9.08 7.36-16.44 16.44-16.44z" stroke="#1E2248" stroke-width="1.2" stroke-miterlimit="22.93"/><path d="M25.89 32.55c.08.2-.02.42-.21.5-.2.08-.42-.02-.5-.21-.78-1.96.57-2.96 1.98-3.53.55-.22 1.07-.36 1.48-.47.31-.08.54-.15.58-.17.01 0 .02-.15.03-.3-.37-.28-.67-.69-.89-1.15-.26-.54-.4-1.16-.4-1.78 0-.92.32-1.72.84-2.3.54-.6 1.29-.96 2.13-.96.92 0 1.68.35 2.22.92.56.59.87 1.42.87 2.34 0 .61-.15 1.24-.4 1.78-.22.46-.53.87-.89 1.15 0 .15.01.29.03.3.04.03.27.09.58.17.41.11.94.25 1.48.47 1.42.57 2.77 1.56 1.98 3.53-.08.2-.3.29-.5.21-.2-.08-.29-.3-.21-.5.55-1.38-.48-2.11-1.55-2.54-.48-.19-1-.33-1.4-.44-.38-.1-.66-.18-.81-.28-.33-.23-.35-.65-.36-1.01v-.32l.17-.12c.32-.2.6-.55.8-.96.21-.44.33-.95.33-1.45 0-.72-.24-1.36-.66-1.81-.4-.42-.97-.68-1.66-.68-.61 0-1.16.26-1.56.71-.4.44-.64 1.07-.64 1.79 0 .5.12 1.01.33 1.45.2.41.47.76.8.96l.19.12v.32c-.02.36-.04.78-.37 1.01-.15.1-.43.18-.81.28-.4.11-.92.25-1.4.44-1.07.43-2.1 1.16-1.55 2.54l-.05-.01z" fill="#1E2248"/><path d="M25.89 32.55c.08.2-.02.42-.21.5-.2.08-.42-.02-.5-.21-.78-1.96.57-2.96 1.98-3.53.55-.22 1.07-.36 1.48-.47.31-.08.54-.15.58-.17.01 0 .02-.15.03-.3-.37-.28-.67-.69-.89-1.15-.26-.54-.4-1.16-.4-1.78 0-.92.32-1.72.84-2.3.54-.6 1.29-.96 2.13-.96.92 0 1.68.35 2.22.92.56.59.87 1.42.87 2.34 0 .61-.15 1.24-.4 1.78-.22.46-.53.87-.89 1.15 0 .15.01.29.03.3.04.03.27.09.58.17.41.11.94.25 1.48.47 1.42.57 2.77 1.56 1.98 3.53-.08.2-.3.29-.5.21-.2-.08-.29-.3-.21-.5.55-1.38-.48-2.11-1.55-2.54-.48-.19-1-.33-1.4-.44-.38-.1-.66-.18-.81-.28-.33-.23-.35-.65-.36-1.01v-.32l.17-.12c.32-.2.6-.55.8-.96.21-.44.33-.95.33-1.45 0-.72-.24-1.36-.66-1.81-.4-.42-.97-.68-1.66-.68-.61 0-1.16.26-1.56.71-.4.44-.64 1.07-.64 1.79 0 .5.12 1.01.33 1.45.2.41.47.76.8.96l.19.12v.32c-.02.36-.04.78-.37 1.01-.15.1-.43.18-.81.28-.4.11-.92.25-1.4.44-1.07.43-2.1 1.16-1.55 2.54l-.05-.01z" stroke="#1E2248" stroke-width=".48" stroke-miterlimit="22.93"/><path d="M34.59 28.44a.37.37 0 01-.49-.22.37.37 0 01.22-.49c.51-.2 1.01-.33 1.4-.44.31-.09.54-.15.58-.17.01 0 .02-.15.03-.3-.37-.29-.67-.69-.89-1.15-.26-.54-.4-1.16-.4-1.78 0-.92.32-1.72.84-2.3.54-.6 1.29-.96 2.13-.96.92 0 1.68.35 2.22.92.56.59.87 1.42.87 2.34 0 .61-.15 1.24-.4 1.78-.22.46-.53.87-.89 1.15 0 .15.01.29.03.3.04.03.27.09.58.17.41.11.94.26 1.48.47 1.42.57 2.77 1.56 1.98 3.53-.08.2-.3.29-.5.21-.2-.08-.29-.3-.21-.5.55-1.38-.48-2.11-1.55-2.54-.48-.19-1-.33-1.4-.44-.38-.1-.66-.18-.81-.28-.33-.23-.35-.65-.36-1.01v-.32l.17-.12c.32-.2.6-.55.8-.96.21-.44.33-.95.33-1.45 0-.72-.24-1.36-.66-1.81-.4-.42-.97-.68-1.66-.68-.61 0-1.16.26-1.56.71-.4.44-.64 1.07-.64 1.79 0 .5.12 1.01.33 1.45.2.41.47.76.8.96l.19.12v.32c-.02.36-.04.78-.37 1.01-.15.1-.43.18-.81.28-.37.1-.85.23-1.33.41h-.05z" fill="#1E2248"/><path d="M34.59 28.44a.37.37 0 01-.49-.22.37.37 0 01.22-.49c.51-.2 1.01-.33 1.4-.44.31-.09.54-.15.58-.17.01 0 .02-.15.03-.3-.37-.29-.67-.69-.89-1.15-.26-.54-.4-1.16-.4-1.78 0-.92.32-1.72.84-2.3.54-.6 1.29-.96 2.13-.96.92 0 1.68.35 2.22.92.56.59.87 1.42.87 2.34 0 .61-.15 1.24-.4 1.78-.22.46-.53.87-.89 1.15 0 .15.01.29.03.3.04.03.27.09.58.17.41.11.94.26 1.48.47 1.42.57 2.77 1.56 1.98 3.53-.08.2-.3.29-.5.21-.2-.08-.29-.3-.21-.5.55-1.38-.48-2.11-1.55-2.54-.48-.19-1-.33-1.4-.44-.38-.1-.66-.18-.81-.28-.33-.23-.35-.65-.36-1.01v-.32l.17-.12c.32-.2.6-.55.8-.96.21-.44.33-.95.33-1.45 0-.72-.24-1.36-.66-1.81-.4-.42-.97-.68-1.66-.68-.61 0-1.16.26-1.56.71-.4.44-.64 1.07-.64 1.79 0 .5.12 1.01.33 1.45.2.41.47.76.8.96l.19.12v.32c-.02.36-.04.78-.37 1.01-.15.1-.43.18-.81.28-.37.1-.85.23-1.33.41h-.05z" stroke="#1E2248" stroke-width=".48" stroke-miterlimit="22.93"/><path d="M27.56 27.731c.2.08.29.3.22.49-.08.2-.3.29-.49.22-.47-.18-.95-.31-1.33-.42-.38-.1-.66-.18-.81-.28-.33-.23-.35-.65-.36-1.01v-.32l.17-.12c.32-.2.6-.55.8-.96.21-.44.33-.95.33-1.45 0-.72-.25-1.35-.64-1.79a2.1 2.1 0 00-1.56-.71c-.7 0-1.27.26-1.66.68-.42.45-.66 1.09-.66 1.81 0 .5.12 1.01.33 1.45.2.41.47.76.8.96l.19.12v.32c-.02.36-.04.78-.37 1.01-.15.1-.43.18-.81.28-.4.11-.92.25-1.4.44-1.07.43-2.1 1.16-1.55 2.54.08.2-.02.42-.21.5-.2.08-.42-.02-.5-.21-.78-1.96.57-2.96 1.98-3.53.55-.22 1.07-.36 1.48-.47.31-.08.54-.15.58-.17.01 0 .02-.15.03-.3-.37-.29-.67-.69-.89-1.15-.26-.54-.4-1.16-.4-1.78 0-.92.31-1.75.87-2.34.54-.57 1.3-.92 2.22-.92.83 0 1.59.36 2.13.96.52.58.84 1.38.84 2.3 0 .61-.15 1.24-.4 1.78-.22.46-.53.87-.89 1.15 0 .15.01.29.03.3.04.03.27.09.58.17.39.11.9.25 1.4.44l-.05.01z" fill="#1E2248"/><path d="M27.56 27.731c.2.08.29.3.22.49-.08.2-.3.29-.49.22-.47-.18-.95-.31-1.33-.42-.38-.1-.66-.18-.81-.28-.33-.23-.35-.65-.36-1.01v-.32l.17-.12c.32-.2.6-.55.8-.96.21-.44.33-.95.33-1.45 0-.72-.25-1.35-.64-1.79a2.1 2.1 0 00-1.56-.71c-.7 0-1.27.26-1.66.68-.42.45-.66 1.09-.66 1.81 0 .5.12 1.01.33 1.45.2.41.47.76.8.96l.19.12v.32c-.02.36-.04.78-.37 1.01-.15.1-.43.18-.81.28-.4.11-.92.25-1.4.44-1.07.43-2.1 1.16-1.55 2.54.08.2-.02.42-.21.5-.2.08-.42-.02-.5-.21-.78-1.96.57-2.96 1.98-3.53.55-.22 1.07-.36 1.48-.47.31-.08.54-.15.58-.17.01 0 .02-.15.03-.3-.37-.29-.67-.69-.89-1.15-.26-.54-.4-1.16-.4-1.78 0-.92.31-1.75.87-2.34.54-.57 1.3-.92 2.22-.92.83 0 1.59.36 2.13.96.52.58.84 1.38.84 2.3 0 .61-.15 1.24-.4 1.78-.22.46-.53.87-.89 1.15 0 .15.01.29.03.3.04.03.27.09.58.17.39.11.9.25 1.4.44l-.05.01z" stroke="#1E2248" stroke-width=".48" stroke-miterlimit="22.93"/><path d="M30.94 43.42c-1.38 0-2.63-.56-3.54-1.47a4.988 4.988 0 01-1.47-3.54c0-1.38.56-2.63 1.47-3.54.91-.91 2.16-1.47 3.54-1.47s2.63.56 3.54 1.47c.91.91 1.47 2.16 1.47 3.54s-.56 2.63-1.47 3.54c-.91.91-2.16 1.47-3.54 1.47zm0-9c-1.1 0-2.1.45-2.82 1.17a3.984 3.984 0 000 5.64c.72.72 1.72 1.17 2.82 1.17 1.1 0 2.09-.45 2.82-1.17.72-.72 1.17-1.72 1.17-2.82 0-1.1-.45-2.09-1.17-2.82a3.984 3.984 0 00-2.82-1.17z" fill="#1267FE"/><path d="M33.09 36.05c.14-.01.28.03.4.12a.544.544 0 01.08.77l-2.95 3.61c-.05.06-.11.11-.18.14-.07.03-.14.05-.22.06h-.03c-.07 0-.14-.01-.21-.04a.567.567 0 01-.18-.12l-1.46-1.46a.544.544 0 01-.16-.39.544.544 0 01.55-.55c.14 0 .28.05.38.16.08.05.9.9 1.04 1.04l2.57-3.14c.1-.12.23-.18.37-.2z" fill="#1267FE"/></svg>