<svg width="63" height="63" fill="none" xmlns="http://www.w3.org/2000/svg"><path d="M39.33 2.3c-.05 0-.11 0-.16-.02-1.02-.28-2.07-.5-3.11-.67a.608.608 0 01-.51-.71c.05-.34.37-.57.71-.51 1.09.17 2.18.41 3.24.7.33.09.53.43.44.76-.08.28-.32.46-.6.46" fill="#1E2248"/><path d="M31.27 62.54c-8.35 0-16.21-3.25-22.11-9.16C3.25 47.47 0 39.62 0 31.27S3.25 15.06 9.16 9.16C15.07 3.25 22.92 0 31.27 0c.34 0 .62.28.62.62 0 .34-.28.62-.62.62-8.02 0-15.57 3.12-21.24 8.8-5.67 5.67-8.8 13.21-8.8 21.24 0 8.03 3.12 15.56 8.8 21.24 5.67 5.67 13.22 8.8 21.24 8.8 8.02 0 15.57-3.12 21.24-8.8 5.67-5.67 8.8-13.21 8.8-21.24 0-5.63-1.57-11.11-4.53-15.87a30.184 30.184 0 00-11.8-10.87.627.627 0 01-.27-.83c.16-.3.53-.42.83-.27 5.04 2.59 9.28 6.5 12.29 11.31a31.231 31.231 0 014.71 16.52c0 8.35-3.25 16.21-9.16 22.11-5.91 5.91-13.76 9.16-22.11 9.16z" fill="#1E2248"/><path d="M43.13 2.64c0 .43-.35.79-.79.79-.44 0-.79-.35-.79-.79 0-.44.35-.79.79-.79.44 0 .79.35.79.79zM25.27 15.36c-.66 0-1.2-.54-1.2-1.2 0-.66.54-1.2 1.2-1.2h24.31c.66 0 1.2.54 1.2 1.2 0 .66-.54 1.2-1.2 1.2H25.27zm0 4.661c-.66 0-1.2-.54-1.2-1.2 0-.66.54-1.2 1.2-1.2h10.7c.66 0 1.2.54 1.2 1.2 0 .66-.54 1.2-1.2 1.2h-10.7zm0 10.119c-.66 0-1.2-.54-1.2-1.2 0-.66.54-1.2 1.2-1.2h24.31c.66 0 1.2.54 1.2 1.2 0 .66-.54 1.2-1.2 1.2H25.27zm0 4.66c-.66 0-1.2-.54-1.2-1.2 0-.66.54-1.2 1.2-1.2h10.7c.66 0 1.2.54 1.2 1.2 0 .66-.54 1.2-1.2 1.2h-10.7zm0 10.11c-.66 0-1.2-.54-1.2-1.2 0-.66.54-1.2 1.2-1.2h24.31c.66 0 1.2.54 1.2 1.2 0 .66-.54 1.2-1.2 1.2H25.27zm0 4.66c-.66 0-1.2-.54-1.2-1.2 0-.66.54-1.2 1.2-1.2h10.7c.66 0 1.2.54 1.2 1.2 0 .66-.54 1.2-1.2 1.2h-10.7z" fill="#1E2248"/><path fill-rule="evenodd" clip-rule="evenodd" d="M14.61 13.6c1.6 0 2.9 1.3 2.9 2.9 0 1.6-1.3 2.9-2.9 2.9-1.6 0-2.9-1.3-2.9-2.9 0-1.6 1.3-2.9 2.9-2.9zm0 14.771c1.6 0 2.9 1.3 2.9 2.9 0 1.6-1.3 2.9-2.9 2.9-1.6 0-2.9-1.3-2.9-2.9 0-1.6 1.3-2.9 2.9-2.9zm0 14.769c1.6 0 2.9 1.3 2.9 2.9 0 1.6-1.3 2.9-2.9 2.9-1.6 0-2.9-1.3-2.9-2.9 0-1.6 1.3-2.9 2.9-2.9z" fill="#1267FE"/></svg>