<svg width="63" height="63" fill="none" xmlns="http://www.w3.org/2000/svg"><path d="M13.95 21.031v1.61h38.09c.27 0 .5.22.5.49v29.78c.7-.66 1.37-1.37 2.01-2.09v-29.79h-40.6z" fill="#fff"/><path d="M18.32 24.19c-.73 0-1.23.5-1.32 1.29h2.72c-.06-.57-.35-1.29-1.4-1.29zm1.44-.56c.55.39.89 1.03.96 1.85h20.93c.06 0 .12.01.17.04h.02l.06.03s.01.01.02.01c.02.02.05.03.07.06l7.8 7.8s.04.05.06.07v.02s.04.04.04.06v.02l.04.08v21.44c.55-.42 1.09-.85 1.61-1.3V23.63H19.76zm-3.75 1.85c.07-.8.42-1.46.96-1.85h-6.02v1.85h5.06z" fill="#1267FE"/><path d="M18.8 36.6c.56 0 1.13-.25 1.46-.78h-2.95c.35.53.93.78 1.49.78zm12.65 24.72c4.08 0 7.97-.8 11.54-2.25H19.92c3.56 1.45 7.45 2.25 11.54 2.25" fill="#fff"/><path d="M41.64 34.27a.49.49 0 01-.49-.49v-7.3H16.99v8.14c0 .21.03.4.07.58h3.46c.04-.18.06-.37.06-.58v-6.99c0-.27.22-.49.5-.49s.5.22.5.49v6.99c0 .21-.02.4-.04.58h22.54c.17 0 .31.14.31.31 0 .17-.14.31-.31.31h-22.7c-.17.46-.43.8-.65 1.02-.5.49-1.18.76-1.91.76-1.07 0-2.15-.61-2.6-1.77h-2.97c-.17 0-.31-.14-.31-.31 0-.17.14-.31.31-.31h2.81a3.68 3.68 0 01-.05-.58v-8.14H8.36v24.35c1.41 1.61 2.99 3.08 4.7 4.37.05-.03.11-.06.18-.06h30.82c.17 0 .31.14.31.31 0 .17-.14.31-.31.31H13.83c1.47 1.03 3.03 1.94 4.67 2.7h25.57c.07 0 .14.03.19.07 1.65-.76 3.22-1.66 4.69-2.69V34.28h-7.3l-.01-.01zm2.42 18.16H13.24c-.17 0-.31-.14-.31-.31 0-.17.14-.31.31-.31h30.82c.17 0 .31.14.31.31 0 .17-.14.31-.31.31zm0-3.32H13.24c-.17 0-.31-.14-.31-.31 0-.17.14-.31.31-.31h30.82c.17 0 .31.14.31.31 0 .17-.14.31-.31.31zm0-3.32H13.24c-.17 0-.31-.14-.31-.31 0-.17.14-.31.31-.31h30.82c.17 0 .31.14.31.31 0 .17-.14.31-.31.31zm0-3.32H13.24c-.17 0-.31-.14-.31-.31 0-.17.14-.31.31-.31h30.82c.17 0 .31.14.31.31 0 .17-.14.31-.31.31zm0-3.32H13.24c-.17 0-.31-.14-.31-.31 0-.17.14-.31.31-.31h30.82c.17 0 .31.14.31.31 0 .17-.14.31-.31.31z" fill="#fff"/><path d="M42.14 33.28h6.1l-6.1-6.11v6.11z" fill="#fff"/><path d="M20.26 35.821c.11-.18.19-.38.25-.62h-3.46c.06.24.14.44.26.62h2.95zm-7.03-.62c-.17 0-.31.14-.31.31 0 .17.14.31.31.31h2.97c-.07-.19-.13-.4-.16-.62h-2.81zm30.83.62c.17 0 .31-.14.31-.31 0-.17-.14-.31-.31-.31H21.52c-.04.23-.09.43-.16.62h22.7zm0 2.699H13.24c-.17 0-.31.14-.31.31 0 .17.14.31.31.31h30.82c.17 0 .31-.14.31-.31 0-.17-.14-.31-.31-.31zm0 3.32H13.24c-.17 0-.31.14-.31.31 0 .17.14.31.31.31h30.82c.17 0 .31-.14.31-.31 0-.17-.14-.31-.31-.31zm0 3.32H13.24c-.17 0-.31.14-.31.31 0 .17.14.31.31.31h30.82c.17 0 .31-.14.31-.31 0-.17-.14-.31-.31-.31zm0 3.33H13.24c-.17 0-.31.14-.31.31 0 .17.14.31.31.31h30.82c.17 0 .31-.14.31-.31 0-.17-.14-.31-.31-.31zm0 3.31H13.24c-.17 0-.31.14-.31.31 0 .17.14.31.31.31h30.82c.17 0 .31-.14.31-.31 0-.17-.14-.31-.31-.31zm0 3.95c.17 0 .31-.14.31-.31 0-.17-.14-.31-.31-.31H13.24a.28.28 0 00-.18.06c.25.19.51.38.77.56h30.23zm-25.57 2.701c.47.22.94.43 1.42.62h23.07c.43-.17.85-.36 1.27-.55a.316.316 0 00-.19-.07H18.49z" fill="#1267FE"/><path d="M55.04 20.041H13.46a.49.49 0 00-.49.49v2.1h.99v-1.61h40.59v29.79c.34-.39.67-.79.99-1.19v-29.1a.49.49 0 00-.49-.49" fill="#1E2248"/><path d="M52.04 22.63H10.46a.49.49 0 00-.49.49v2.35h.99v-1.85h6.02c.37-.28.83-.43 1.36-.43.57 0 1.05.15 1.44.43h31.78V53.8c.34-.29.67-.59.99-.9V23.12c0-.27-.22-.49-.5-.49" fill="#1E2248"/><path d="M41.9 25.56s.01.01.02.01c0 0-.01 0-.02-.01zm8.03 8.2c0 .07 0 .13-.04.2a.49.49 0 01-.46.3h-.49v21.57c.33-.23.67-.47.99-.72V33.77m-29.69-7.51a.49.49 0 01-.49-.49c0-.09 0-.18-.02-.28h-2.72c-.01.09-.02.19-.02.28v.71h24.16v-.49c0-.2.12-.38.31-.46.06-.02.13-.04.2-.03H20.73c0 .09.01.18.01.28 0 .27-.22.49-.5.49m-4.24.2v-.71c0-.1 0-.19.01-.28H7.86c-.27 0-.49.22-.49.5v23.65c.32.4.65.8.99 1.19V26.47h7.65H16z" fill="#1E2248"/><path d="M41.15 25.98v7.79c0 .27.22.49.49.49h7.8c.2 0 .38-.12.46-.3.03-.07.04-.13.04-.2v-.09s-.01-.06-.02-.08v-.02s-.03-.04-.04-.06v-.02l-.07-.07-7.8-7.8s-.04-.04-.07-.06c0 0-.01 0-.02-.01l-.06-.03h-.02a.467.467 0 00-.17-.03c-.07 0-.13.01-.2.03-.18.08-.31.26-.31.46m7.1 7.3h-6.11v-6.11l6.11 6.11z" fill="#1E2248"/><path d="M31.27 62.54c-8.35 0-16.21-3.25-22.11-9.16C3.25 47.47 0 39.62 0 31.27S3.25 15.06 9.16 9.16C15.07 3.25 22.92 0 31.27 0c.34 0 .62.28.62.62 0 .34-.28.62-.62.62-8.02 0-15.56 3.12-21.24 8.8-5.67 5.67-8.8 13.21-8.8 21.24 0 8.03 3.13 15.57 8.8 21.24 5.67 5.67 13.22 8.8 21.24 8.8 8.02 0 15.57-3.12 21.24-8.8 5.67-5.67 8.8-13.21 8.8-21.24 0-5.63-1.56-11.11-4.53-15.87a30.184 30.184 0 00-11.8-10.87.618.618 0 01-.27-.83c.16-.3.53-.42.83-.27 5.04 2.59 9.28 6.5 12.29 11.31a31.231 31.231 0 014.71 16.52c0 8.35-3.25 16.21-9.16 22.11-5.91 5.91-13.76 9.16-22.11 9.16z" fill="#1E2248"/><path d="M39.33 2.3c-.05 0-.11 0-.16-.02-1.02-.28-2.07-.5-3.11-.67a.608.608 0 01-.51-.71c.05-.34.37-.57.71-.51 1.09.17 2.18.41 3.24.7.33.09.52.43.44.76-.08.28-.33.46-.6.46m3.79.33c0 .43-.36.79-.79.79-.43 0-.79-.35-.79-.79 0-.44.35-.79.79-.79.44 0 .79.35.79.79z" fill="#1E2248"/><path d="M30.77 43.411c.6 0 1.19.17 1.71.48.44.29.93.44 1.43.44.94 0 1.78-.52 2.19-1.35.57-1.13 1.77-1.83 3.02-1.72h.14c.67 0 1.32-.28 1.79-.77s.7-1.14.67-1.83c-.1-1.23.59-2.45 1.72-3.02.58-.31 1-.85 1.19-1.52.2-.71.1-1.47-.28-2.1a3.282 3.282 0 010-3.43c.42-.63.55-1.38.36-2.07-.18-.68-.63-1.23-1.27-1.55-1.14-.57-1.83-1.78-1.72-3.02.04-.66-.21-1.33-.67-1.83a2.43 2.43 0 00-1.93-.77h-.24c-1.15 0-2.24-.68-2.77-1.73-.42-.79-1.28-1.29-2.25-1.29-.49 0-.96.13-1.38.38a3.33 3.33 0 01-3.42 0 2.46 2.46 0 00-1.38-.42c-.93 0-1.82.53-2.25 1.34-.57 1.12-1.77 1.82-3.02 1.71h-.13c-.67 0-1.32.28-1.79.78-.47.49-.71 1.15-.67 1.83.11 1.23-.59 2.44-1.72 3.01-.58.31-1 .85-1.19 1.52-.2.71-.1 1.48.28 2.1a3.26 3.26 0 010 3.43c-.42.63-.54 1.38-.36 2.07.18.68.63 1.23 1.27 1.55 1.14.57 1.83 1.79 1.72 3.03-.04.66.21 1.33.68 1.82.5.53 1.2.81 1.93.76h.23c1.16 0 2.25.68 2.78 1.73.42.79 1.28 1.29 2.25 1.29.49 0 .96-.13 1.38-.38a3.25 3.25 0 011.71-.48l-.01.01z" fill="#fff"/><path d="M30.77 43.411c.6 0 1.19.17 1.71.48.44.29.93.44 1.43.44.94 0 1.78-.52 2.19-1.35.57-1.13 1.77-1.83 3.02-1.72h.14c.67 0 1.32-.28 1.79-.77s.7-1.14.67-1.83c-.1-1.23.59-2.45 1.72-3.02.58-.31 1-.85 1.19-1.52.2-.71.1-1.47-.28-2.1a3.282 3.282 0 010-3.43c.42-.63.55-1.38.36-2.07-.18-.68-.63-1.23-1.27-1.55-1.14-.57-1.83-1.78-1.72-3.02.04-.66-.21-1.33-.67-1.83a2.43 2.43 0 00-1.93-.77h-.24c-1.15 0-2.24-.68-2.77-1.73-.42-.79-1.28-1.29-2.25-1.29-.49 0-.96.13-1.38.38a3.33 3.33 0 01-3.42 0 2.46 2.46 0 00-1.38-.42c-.93 0-1.82.53-2.25 1.34-.57 1.12-1.77 1.82-3.02 1.71h-.13c-.67 0-1.32.28-1.79.78-.47.49-.71 1.15-.67 1.83.11 1.23-.59 2.44-1.72 3.01-.58.31-1 .85-1.19 1.52-.2.71-.1 1.48.28 2.1a3.26 3.26 0 010 3.43c-.42.63-.54 1.38-.36 2.07.18.68.63 1.23 1.27 1.55 1.14.57 1.83 1.79 1.72 3.03-.04.66.21 1.33.68 1.82.5.53 1.2.81 1.93.76h.23c1.16 0 2.25.68 2.78 1.73.42.79 1.28 1.29 2.25 1.29.49 0 .96-.13 1.38-.38a3.25 3.25 0 011.71-.48l-.01.01z" stroke="#1E2248" stroke-width=".62" stroke-miterlimit="10"/><path d="M33.91 45.03c-.64 0-1.26-.19-1.8-.55a2.65 2.65 0 00-2.68 0c-.52.31-1.12.48-1.74.48-1.22 0-2.32-.64-2.87-1.67-.44-.88-1.37-1.42-2.34-1.34h-.19c-.88 0-1.69-.35-2.29-.99-.6-.63-.91-1.49-.86-2.35.08-.97-.45-1.91-1.34-2.35a3.09 3.09 0 01-1.63-1.99c-.24-.89-.08-1.85.44-2.63.51-.84.51-1.85 0-2.69-.47-.79-.6-1.76-.35-2.65.24-.86.79-1.55 1.54-1.96.88-.44 1.43-1.4 1.35-2.34-.05-.89.26-1.73.86-2.36.64-.68 1.55-1.04 2.48-.99h.2c.89 0 1.73-.53 2.15-1.35a3.277 3.277 0 012.87-1.72c.62 0 1.23.18 1.75.53.8.48 1.86.49 2.68 0 .52-.31 1.12-.48 1.74-.48 1.22 0 2.32.64 2.87 1.67.45.88 1.38 1.43 2.34 1.34h.19a3.165 3.165 0 013.16 3.35c-.08.95.47 1.91 1.34 2.35.82.41 1.4 1.12 1.64 2 .24.89.07 1.84-.45 2.62a2.6 2.6 0 000 2.69c.47.79.6 1.76.35 2.65-.24.86-.79 1.55-1.54 1.95-.89.45-1.43 1.39-1.35 2.35.05.89-.26 1.72-.86 2.36a3.14 3.14 0 01-2.48.99h-.19c-.9 0-1.74.53-2.16 1.35a3.125 3.125 0 01-2.82 1.74l-.01-.01zm-3.14-1.62c.6 0 1.19.17 1.71.48.44.29.93.44 1.43.44.94 0 1.78-.52 2.19-1.35.57-1.13 1.77-1.83 3.02-1.72h.14c.67 0 1.32-.28 1.79-.77s.7-1.14.67-1.83c-.1-1.23.59-2.45 1.72-3.02.58-.31 1-.85 1.19-1.52.2-.71.1-1.47-.28-2.1a3.264 3.264 0 010-3.42c.42-.63.55-1.38.36-2.07-.18-.68-.63-1.23-1.27-1.55-1.14-.57-1.83-1.78-1.72-3.02.04-.66-.21-1.33-.67-1.83a2.43 2.43 0 00-1.93-.77h-.24c-1.15 0-2.24-.68-2.77-1.73-.42-.79-1.28-1.29-2.25-1.29-.49 0-.96.13-1.38.38a3.33 3.33 0 01-3.42 0 2.46 2.46 0 00-1.38-.42c-.93 0-1.82.53-2.25 1.34-.57 1.12-1.77 1.82-3.02 1.71h-.13c-.67 0-1.32.28-1.79.78-.47.49-.71 1.15-.67 1.83.11 1.23-.59 2.44-1.72 3.01-.58.31-1 .85-1.19 1.52-.2.71-.1 1.48.28 2.1a3.26 3.26 0 010 3.43c-.42.63-.54 1.38-.36 2.07.18.68.63 1.23 1.27 1.55 1.14.57 1.83 1.79 1.72 3.03-.04.66.21 1.33.68 1.82.5.53 1.2.81 1.93.76h.23c1.16 0 2.25.68 2.78 1.73.42.79 1.29 1.29 2.25 1.29.49 0 .96-.13 1.38-.38.52-.31 1.11-.48 1.71-.48h-.01z" fill="#1E2248"/><path d="M33.91 45.03c-.64 0-1.26-.19-1.8-.55a2.65 2.65 0 00-2.68 0c-.52.31-1.12.48-1.74.48-1.22 0-2.32-.64-2.87-1.67-.44-.88-1.37-1.42-2.34-1.34h-.19c-.88 0-1.69-.35-2.29-.99-.6-.63-.91-1.49-.86-2.35.08-.97-.45-1.91-1.34-2.35a3.09 3.09 0 01-1.63-1.99c-.24-.89-.08-1.85.44-2.63.51-.84.51-1.85 0-2.69-.47-.79-.6-1.76-.35-2.65.24-.86.79-1.55 1.54-1.96.88-.44 1.43-1.4 1.35-2.34-.05-.89.26-1.73.86-2.36.64-.68 1.55-1.04 2.48-.99h.2c.89 0 1.73-.53 2.15-1.35a3.277 3.277 0 012.87-1.72c.62 0 1.23.18 1.75.53.8.48 1.86.49 2.68 0 .52-.31 1.12-.48 1.74-.48 1.22 0 2.32.64 2.87 1.67.45.88 1.38 1.43 2.34 1.34h.19a3.165 3.165 0 013.16 3.35c-.08.95.47 1.91 1.34 2.35.82.41 1.4 1.12 1.64 2 .24.89.07 1.84-.45 2.62a2.6 2.6 0 000 2.69c.47.79.6 1.76.35 2.65-.24.86-.79 1.55-1.54 1.95-.89.45-1.43 1.39-1.35 2.35.05.89-.26 1.72-.86 2.36a3.14 3.14 0 01-2.48.99h-.19c-.9 0-1.74.53-2.16 1.35a3.125 3.125 0 01-2.82 1.74l-.01-.01zm-3.14-1.62c.6 0 1.19.17 1.71.48.44.29.93.44 1.43.44.94 0 1.78-.52 2.19-1.35.57-1.13 1.77-1.83 3.02-1.72h.14c.67 0 1.32-.28 1.79-.77s.7-1.14.67-1.83c-.1-1.23.59-2.45 1.72-3.02.58-.31 1-.85 1.19-1.52.2-.71.1-1.47-.28-2.1a3.264 3.264 0 010-3.42c.42-.63.55-1.38.36-2.07-.18-.68-.63-1.23-1.27-1.55-1.14-.57-1.83-1.78-1.72-3.02.04-.66-.21-1.33-.67-1.83a2.43 2.43 0 00-1.93-.77h-.24c-1.15 0-2.24-.68-2.77-1.73-.42-.79-1.28-1.29-2.25-1.29-.49 0-.96.13-1.38.38a3.33 3.33 0 01-3.42 0 2.46 2.46 0 00-1.38-.42c-.93 0-1.82.53-2.25 1.34-.57 1.12-1.77 1.82-3.02 1.71h-.13c-.67 0-1.32.28-1.79.78-.47.49-.71 1.15-.67 1.83.11 1.23-.59 2.44-1.72 3.01-.58.31-1 .85-1.19 1.52-.2.71-.1 1.48.28 2.1a3.26 3.26 0 010 3.43c-.42.63-.54 1.38-.36 2.07.18.68.63 1.23 1.27 1.55 1.14.57 1.83 1.79 1.72 3.03-.04.66.21 1.33.68 1.82.5.53 1.2.81 1.93.76h.23c1.16 0 2.25.68 2.78 1.73.42.79 1.29 1.29 2.25 1.29.49 0 .96-.13 1.38-.38.52-.31 1.11-.48 1.71-.48h-.01z" stroke="#1E2248" stroke-width=".62" stroke-miterlimit="10"/><path d="M30.77 40.72c-5.74 0-10.42-4.67-10.42-10.42s4.67-10.42 10.42-10.42 10.42 4.67 10.42 10.42-4.67 10.42-10.42 10.42zm0-20.13c-5.36 0-9.72 4.36-9.72 9.72s4.36 9.71 9.72 9.71 9.71-4.36 9.71-9.71c0-5.35-4.36-9.72-9.71-9.72z" fill="#1267FE"/><path d="M30.77 40.72c-5.74 0-10.42-4.67-10.42-10.42s4.67-10.42 10.42-10.42 10.42 4.67 10.42 10.42-4.67 10.42-10.42 10.42zm0-20.13c-5.36 0-9.72 4.36-9.72 9.72s4.36 9.71 9.72 9.71 9.71-4.36 9.71-9.71c0-5.35-4.36-9.72-9.71-9.72z" stroke="#1E2248" stroke-width=".62" stroke-miterlimit="10"/><path d="M23.52 58.291h-.01c-.14 0-.26-.09-.31-.22l-2.08-5.08-5.3 1.41c-.13.03-.27 0-.36-.11a.336.336 0 01-.05-.37l.04-.09 6.16-12.4c.07-.13.21-.21.36-.19.15.02.3.02.45.01h.23c1.16 0 2.25.68 2.78 1.73.42.79 1.29 1.29 2.25 1.29.49 0 .96-.13 1.38-.38.45-.28.96-.44 1.49-.47.14 0 .25.05.32.16s.08.24.02.35l-7.05 14.17c-.06.12-.18.19-.31.19h-.01zm-2.19-6.07c.14 0 .27.08.32.22l1.9 4.65 6.39-12.84c-.18.06-.35.14-.52.24-.53.31-1.13.48-1.74.48-1.22 0-2.32-.64-2.87-1.67-.44-.88-1.37-1.42-2.34-1.34h-.33l-5.75 11.57 4.85-1.29s.06-.01.09-.01v-.01z" fill="#1E2248"/><path d="M23.52 58.291h-.01c-.14 0-.26-.09-.31-.22l-2.08-5.08-5.3 1.41c-.13.03-.27 0-.36-.11a.336.336 0 01-.05-.37l.04-.09 6.16-12.4c.07-.13.21-.21.36-.19.15.02.3.02.45.01h.23c1.16 0 2.25.68 2.78 1.73.42.79 1.29 1.29 2.25 1.29.49 0 .96-.13 1.38-.38.45-.28.96-.44 1.49-.47.14 0 .25.05.32.16s.08.24.02.35l-7.05 14.17c-.06.12-.18.19-.31.19h-.01zm-2.19-6.07c.14 0 .27.08.32.22l1.9 4.65 6.39-12.84c-.18.06-.35.14-.52.24-.53.31-1.13.48-1.74.48-1.22 0-2.32-.64-2.87-1.67-.44-.88-1.37-1.42-2.34-1.34h-.33l-5.75 11.57 4.85-1.29s.06-.01.09-.01v-.01z" stroke="#1E2248" stroke-width=".62" stroke-miterlimit="10"/><path d="M38.01 58.29c-.13 0-.25-.08-.31-.19l-7.04-14.17a.339.339 0 01.02-.35c.07-.1.2-.16.31-.16.52.04 1.04.2 1.49.48.44.29.93.44 1.43.44.94 0 1.78-.52 2.19-1.35.57-1.13 1.77-1.83 3.02-1.72.12 0 .29 0 .44-.01.15-.02.29.06.36.19l6.17 12.41c.05.06.08.14.08.22 0 .2-.17.38-.36.35-.04 0-.06 0-.1-.01l-5.3-1.41-2.08 5.08a.35.35 0 01-.31.22h-.01v-.02zM31.6 44.25l6.38 12.84 1.9-4.65c.07-.16.24-.25.41-.21l4.86 1.29-5.76-11.57h-.51c-.9 0-1.74.53-2.16 1.35a3.125 3.125 0 01-2.82 1.74c-.64 0-1.26-.19-1.8-.55-.16-.1-.33-.18-.5-.24z" fill="#1E2248"/><path d="M38.01 58.29c-.13 0-.25-.08-.31-.19l-7.04-14.17a.339.339 0 01.02-.35c.07-.1.2-.16.31-.16.52.04 1.04.2 1.49.48.44.29.93.44 1.43.44.94 0 1.78-.52 2.19-1.35.57-1.13 1.77-1.83 3.02-1.72.12 0 .29 0 .44-.01.15-.02.29.06.36.19l6.17 12.41c.05.06.08.14.08.22 0 .2-.17.38-.36.35-.04 0-.06 0-.1-.01l-5.3-1.41-2.08 5.08a.35.35 0 01-.31.22h-.01v-.02zM31.6 44.25l6.38 12.84 1.9-4.65c.07-.16.24-.25.41-.21l4.86 1.29-5.76-11.57h-.51c-.9 0-1.74.53-2.16 1.35a3.125 3.125 0 01-2.82 1.74c-.64 0-1.26-.19-1.8-.55-.16-.1-.33-.18-.5-.24v0z" stroke="#1E2248" stroke-width=".62" stroke-miterlimit="10"/><path d="M35.98 25.93a.44.44 0 00-.61.06l-6.31 7.71-2.94-2.94a.429.429 0 00-.61 0c-.17.17-.17.44 0 .61l3.28 3.28c.08.08.19.13.3.13h.02c.12 0 .24-.06.31-.16l6.61-8.08a.44.44 0 00-.06-.61h.01z" fill="#1E2248"/><path d="M35.98 25.93a.44.44 0 00-.61.06l-6.31 7.71-2.94-2.94a.429.429 0 00-.61 0c-.17.17-.17.44 0 .61l3.28 3.28c.08.08.19.13.3.13h.02c.12 0 .24-.06.31-.16l6.61-8.08a.44.44 0 00-.06-.61h.01z" stroke="#1E2248" stroke-width="1.01" stroke-miterlimit="10"/><path d="M21.33 52.221c.14 0 .27.08.32.22l1.9 4.65 6.39-12.84c-.18.06-.35.14-.52.24-.53.31-1.13.48-1.74.48-1.22 0-2.32-.64-2.87-1.67-.44-.88-1.37-1.42-2.34-1.34h-.33l-5.75 11.57 4.85-1.29s.06-.01.09-.01v-.01z" fill="#1267FE"/><path d="M21.33 52.221c.14 0 .27.08.32.22l1.9 4.65 6.39-12.84c-.18.06-.35.14-.52.24-.53.31-1.13.48-1.74.48-1.22 0-2.32-.64-2.87-1.67-.44-.88-1.37-1.42-2.34-1.34h-.33l-5.75 11.57 4.85-1.29s.06-.01.09-.01v-.01z" stroke="#1E2248" stroke-width=".62" stroke-miterlimit="10"/><path d="M31.6 44.251l6.38 12.84 1.9-4.65c.07-.16.24-.25.41-.21l4.86 1.29-5.76-11.57h-.51c-.9 0-1.74.53-2.16 1.35a3.125 3.125 0 01-2.82 1.74c-.64 0-1.26-.19-1.8-.55-.16-.1-.33-.18-.5-.24z" fill="#1267FE"/><path d="M31.6 44.251l6.38 12.84 1.9-4.65c.07-.16.24-.25.41-.21l4.86 1.29-5.76-11.57h-.51c-.9 0-1.74.53-2.16 1.35a3.125 3.125 0 01-2.82 1.74c-.64 0-1.26-.19-1.8-.55-.16-.1-.33-.18-.5-.24v0z" stroke="#1E2248" stroke-width=".62" stroke-miterlimit="10"/><path d="M14.64 41.74c-2.72-3.76-4.02-8.4-3.67-13.05.35-4.7 2.39-9.13 5.73-12.47a19.63 19.63 0 0113.97-5.79c5.28 0 10.24 2.06 13.97 5.79 7.7 7.7 7.7 20.23 0 27.94a19.63 19.63 0 01-13.97 5.79c-4.18 0-8.18-1.29-11.55-3.73a.583.583 0 00-.75.06l-3.83 3.83-3.79-3.8 3.83-3.83c.2-.2.22-.51.06-.74zm4.41.07c3.1 3.1 7.23 4.81 11.62 4.81 4.39 0 8.52-1.71 11.62-4.81.12-.12.24-.24.35-.37l.09-.09c.09-.1.19-.2.28-.31.02-.02.04-.05.06-.07 1.7-1.95 2.86-4.21 3.48-6.58.02-.06.03-.12.04-.17l.06-.25c.63-2.68.6-5.53-.18-8.28 0-.02-.01-.04-.02-.06a16.32 16.32 0 00-4.16-7.05c-3.1-3.11-7.23-4.81-11.62-4.81-4.39 0-8.52 1.71-11.62 4.81-6.41 6.41-6.41 16.83 0 23.24v-.01z" fill="#fff"/><path d="M8.74 46.781c.54 0 1.05.21 1.44.59l3.32 3.32a2.027 2.027 0 010 2.88l-1.26 1.26c-.87-.7-1.71-1.45-2.52-2.25a30.297 30.297 0 01-3.47-4.15l1.06-1.06c.38-.38.89-.59 1.44-.59" fill="#1267FE"/><path d="M51.45 32.3c-.17 1.64-.52 3.26-1.07 4.83-.08.24-.17.48-.27.72-.42 1.08-.94 2.13-1.55 3.14l-.45.72c-.73 1.11-1.58 2.16-2.54 3.14-.04.04-.08.08-.12.13-.2.2-.41.4-.62.59a20.854 20.854 0 01-5.94 3.86 20.79 20.79 0 01-8.22 1.67c-.25 0-.5 0-.75-.01a20.748 20.748 0 01-11.07-3.64L15.1 51.2c-.15-.49-.42-.94-.79-1.31l-3.32-3.32c-.37-.37-.82-.64-1.31-.79l3.75-3.75a20.951 20.951 0 01-3.6-13.41c.38-4.98 2.53-9.66 6.06-13.2 3.95-3.95 9.2-6.12 14.78-6.12s10.83 2.17 14.78 6.12c4.32 4.32 6.35 10.07 6.09 15.74-.02.38-.05.77-.08 1.15M14.55 50.12l3.83-3.83a.583.583 0 01.75-.06c3.37 2.44 7.37 3.73 11.55 3.73 5.28 0 10.23-2.06 13.97-5.79 7.7-7.7 7.7-20.23 0-27.94a19.63 19.63 0 00-13.97-5.79 19.63 19.63 0 00-13.97 5.79 19.78 19.78 0 00-5.73 12.47c-.35 4.65.95 9.29 3.67 13.05.17.23.14.54-.06.74l-3.83 3.83 3.79 3.8z" fill="#1E2248"/><path d="M8.74 45.63a3.163 3.163 0 012.25.93l3.32 3.32a3.163 3.163 0 01.93 2.25c0 .85-.33 1.65-.93 2.25l-1.16 1.16c-.31-.23-.62-.46-.92-.71l1.26-1.26a2.027 2.027 0 000-2.88l-3.32-3.32c-.38-.38-.89-.59-1.44-.59-.55 0-1.05.21-1.44.59l-1.06 1.06c-.22-.32-.44-.65-.65-.97l.89-.89c.6-.6 1.4-.93 2.25-.93" fill="#1E2248"/><path d="M30.62 13.8c9.08 0 16.44 7.36 16.44 16.44 0 9.08-7.36 16.44-16.44 16.44-9.08 0-16.44-7.36-16.44-16.44 0-9.08 7.36-16.44 16.44-16.44z" stroke="#1E2248" stroke-width="1.2" stroke-miterlimit="22.93"/></svg>