<svg width="63" height="63" fill="none" xmlns="http://www.w3.org/2000/svg"><path d="M39.33 2.3c-.05 0-.11 0-.16-.02-1.02-.28-2.07-.5-3.11-.67a.608.608 0 01-.51-.71c.05-.34.37-.57.71-.51 1.09.17 2.18.41 3.24.7.33.09.52.43.43.76a.61.61 0 01-.6.46m3.79.34c0 .43-.35.79-.79.79-.44 0-.79-.35-.79-.79 0-.44.35-.79.79-.79.44 0 .79.35.79.79z" fill="#1E2248"/><path fill-rule="evenodd" clip-rule="evenodd" d="M7.61 18.17H30.5c-.61.88-1.12 1.83-1.53 2.81-.76 1.83-1.16 3.82-1.16 5.86 0 2.04.4 4.02 1.16 5.86.76 1.83 3.08 3.52 4.52 4.96a15.33 15.33 0 004.96 3.32c.61.25 1.23.46 1.87.64v16.53c0 .67-.18 1.3-.5 1.84-2.83.87-5.8 1.31-8.84 1.31-8.02 0-15.57-3.12-21.24-8.8a30.004 30.004 0 01-5.81-8.15V21.84c0-2.02 1.65-3.67 3.67-3.67" fill="#1267FE"/><path d="M16.5 58.1h13.98c1.37 0 2.5 1.08 2.58 2.43h2.95c.91 0 1.74-.37 2.33-.97.6-.6.97-1.43.97-2.33V40.91c.49.16.99.3 1.51.41v15.91c0 1.29-.52 2.47-1.36 3.34-2.69.78-5.53 1.19-8.48 1.19-5.25 0-10.18-1.33-14.5-3.66M8.25 17.44L31 17.5c-.41.48-.79.98-1.14 1.51l-21.61-.06c-.91 0-1.73.37-2.33.97-.6.6-.97 1.43-.97 2.33v24.91c-.55-.89-1.05-1.82-1.51-2.77V22.26c0-1.32.54-2.53 1.41-3.4.87-.87 2.08-1.41 3.4-1.41v-.01z" fill="#1E2248"/><path d="M10.84 22.75h19.07c-.15.49-.27.99-.37 1.51h-18.7s-.06.01-.08.04c-.02.02-.04.05-.04.08v5.96s.01.06.04.08c.02.02.05.03.08.03h18.85c.12.51.27 1.02.45 1.51H10.83c-.45 0-.85-.18-1.15-.48-.29-.29-.48-.7-.48-1.15v-5.96c0-.45.18-.85.48-1.15.29-.29.7-.48 1.15-.48" fill="#fff"/><path d="M17.87 27.96c.74 0 1.03-.95.43-1.37a.727.727 0 00-.43-.13h-3.01c-.74 0-1.03.95-.43 1.37.13.09.27.13.43.13h3.01zm6.02 0c.74 0 1.03-.95.43-1.37a.727.727 0 00-.43-.13h-3.01c-.74 0-1.03.95-.43 1.37.13.09.27.13.43.13h3.01zm5.41-1.51h-2.4c-.74 0-1.03.95-.43 1.37.13.09.27.13.43.13h2.42a14.833 14.833 0 01-.02-1.5zM14.09 37.719H9.76v3.67h4.33v-3.67zm-4.5-1.51h4.66c.37 0 .7.15.95.39.24.24.39.58.39.95v4.01c0 .37-.15.7-.39.95-.24.24-.58.39-.95.39H9.59c-.37 0-.7-.15-.95-.39-.24-.24-.39-.58-.39-.95v-4.01c0-.37.15-.7.39-.95.24-.24.58-.39.95-.39zm14.71 1.51h-4.33v3.67h4.33v-3.67zm-4.49-1.51h4.66c.37 0 .7.15.95.39.24.24.39.58.39.95v4.01c0 .37-.15.7-.39.95-.24.24-.58.39-.95.39h-4.66c-.37 0-.7-.15-.95-.39-.24-.24-.39-.58-.39-.95v-4.01c0-.37.15-.7.39-.95.24-.24.58-.39.95-.39zM14.09 47.19H9.76v3.67h4.33v-3.67zm-4.5-1.51h4.66c.37 0 .7.15.95.39.24.24.39.58.39.95v4.01c0 .37-.15.7-.39.95-.24.24-.58.39-.95.39H9.59c-.37 0-.7-.15-.95-.39-.24-.24-.39-.58-.39-.95v-4.01c0-.37.15-.7.39-.95.24-.24.58-.39.95-.39zm14.71 1.51h-4.33v3.67h4.33v-3.67zm-4.49-1.51h4.66c.37 0 .7.15.95.39.25.24.39.58.39.95v4.01c0 .37-.15.7-.39.95-.24.24-.58.39-.95.39h-4.66c-.37 0-.7-.15-.95-.39-.24-.24-.39-.58-.39-.95v-4.01c0-.37.15-.7.39-.95.24-.24.58-.39.95-.39zm10.21-9.47h2.52c.43.53.9 1.04 1.4 1.51h-3.76v3.67h4.33v-3.17c.48.4.98.77 1.51 1.11v2.22c0 .37-.15.7-.39.95-.24.24-.58.39-.95.39h-4.66c-.37 0-.7-.15-.95-.39-.24-.24-.39-.58-.39-.95v-4.01c0-.37.15-.7.39-.95.24-.24.58-.39.95-.39m4.5 10.99h-4.33v3.67h4.33v-3.67zm-4.49-1.51h4.66c.37 0 .7.15.95.39.24.24.39.58.39.95v4.01c0 .37-.15.7-.39.95-.24.24-.58.39-.95.39h-4.66c-.37 0-.7-.15-.95-.39-.24-.24-.39-.58-.39-.95v-4.01c0-.37.15-.7.39-.95.24-.24.58-.39.95-.39z" fill="#fff"/><path d="M31.27 62.54c-8.35 0-16.21-3.25-22.11-9.16C3.25 47.47 0 39.62 0 31.27S3.25 15.06 9.16 9.16C15.07 3.25 22.92 0 31.27 0c.34 0 .62.28.62.62 0 .34-.28.62-.62.62-8.02 0-15.57 3.12-21.24 8.8-5.67 5.67-8.8 13.21-8.8 21.24 0 8.03 3.12 15.57 8.8 21.24 5.67 5.67 13.22 8.8 21.24 8.8 8.02 0 15.57-3.12 21.24-8.8 5.67-5.67 8.8-13.21 8.8-21.24 0-5.63-1.57-11.11-4.53-15.87a30.184 30.184 0 00-11.8-10.87.627.627 0 01-.27-.83c.16-.3.53-.42.83-.27a31.38 31.38 0 0112.28 11.31 31.24 31.24 0 014.72 16.52c0 8.35-3.25 16.21-9.16 22.11-5.91 5.91-13.76 9.16-22.11 9.16z" fill="#1E2248"/><path d="M42.5 42C33.953 42 27 35.047 27 26.5S33.953 11 42.5 11 58 17.953 58 26.5 51.047 42 42.5 42zm.926-9.332a.22.22 0 00-.226.226v7.384c0 .064.032.129.086.172a.226.226 0 00.14.054h.053c2.358-.538 4.521-3.068 5.791-6.76.022-.054.011-.118-.01-.183a.228.228 0 00-.14-.108 25.851 25.851 0 00-5.673-.775l-.021-.01zm-1.852 0c-1.991.064-3.907.323-5.672.785-.065.011-.108.054-.14.108a.216.216 0 00-.011.183c1.27 3.692 3.434 6.21 5.791 6.75h.054s.097-.012.14-.044a.225.225 0 00.086-.172v-7.384a.219.219 0 00-.226-.226h-.022zm-7.416 1.324h-.075c-.883.333-1.69.7-2.411 1.12a.225.225 0 00-.065.334 14.357 14.357 0 005.038 3.885c.032.01.064.021.096.021a.226.226 0 00.172-.366c-1.054-1.292-1.915-2.928-2.55-4.833a.233.233 0 00-.119-.129.314.314 0 00-.097-.022l.011-.01zm16.706 0s-.065 0-.097.021a.232.232 0 00-.119.13c-.646 1.915-1.496 3.54-2.55 4.832a.226.226 0 00.171.366c.033 0 .065 0 .097-.021a14.326 14.326 0 005.038-3.875.225.225 0 00.043-.183.222.222 0 00-.108-.15 15.428 15.428 0 00-2.4-1.11h-.075v-.01zm1.173-6.803a.233.233 0 00-.226.215 24.847 24.847 0 01-.657 4.973.24.24 0 00.14.27c1.077.376 2.056.828 2.906 1.334a.217.217 0 00.119.032c.075 0 .15-.032.194-.107a14.119 14.119 0 002.077-6.48.264.264 0 00-.065-.172.229.229 0 00-.161-.076h-4.316l-.011.01zm-23.369 0a.194.194 0 00-.161.075.245.245 0 00-.065.172 14.039 14.039 0 002.078 6.47.24.24 0 00.194.107c.043 0 .075 0 .118-.032.85-.506 1.819-.947 2.906-1.335.108-.043.172-.15.14-.258a24.838 24.838 0 01-.657-4.973c0-.118-.107-.215-.225-.215h-4.317l-.01-.011zm6.168 0a.219.219 0 00-.161.064.237.237 0 00-.065.162c.065 1.56.27 3.078.614 4.52a.22.22 0 00.107.14.217.217 0 00.119.033h.053c1.916-.506 3.962-.786 6.093-.85.118 0 .215-.108.215-.226v-3.617a.227.227 0 00-.226-.226h-6.749zm8.6 0a.227.227 0 00-.226.226v3.617c0 .118.097.215.216.226 2.13.064 4.176.344 6.092.85h.054s.075 0 .118-.021a.211.211 0 00.097-.14c.345-1.443.56-2.96.614-4.521a.219.219 0 00-.226-.226h-6.75l.012-.011zm10.872-8.224s-.075 0-.118.033c-.85.505-1.82.958-2.907 1.334-.107.043-.172.151-.14.259a24.84 24.84 0 01.657 4.973c0 .118.108.215.226.215h4.316a.194.194 0 00.162-.076.244.244 0 00.064-.172 14.118 14.118 0 00-2.077-6.48.24.24 0 00-.194-.107l.011.021zm-4.736 1.905h-.054c-1.905.506-3.961.786-6.092.85-.119 0-.216.108-.216.227v3.617c0 .118.097.226.227.226h6.748a.219.219 0 00.226-.226 23.709 23.709 0 00-.613-4.521.256.256 0 00-.097-.14.216.216 0 00-.118-.032h-.011zm-14.133 0s-.075.011-.118.033a.275.275 0 00-.108.14 22.878 22.878 0 00-.614 4.52.219.219 0 00.226.227h6.75a.22.22 0 00.225-.226v-3.617a.233.233 0 00-.215-.226c-2.131-.065-4.176-.345-6.092-.85h-.054zm-4.736-1.905a.216.216 0 00-.194.108 14.117 14.117 0 00-2.077 6.469c0 .065.021.118.064.172a.229.229 0 00.162.076h4.316a.233.233 0 00.226-.216c.054-1.722.28-3.39.657-4.973.021-.107-.033-.226-.14-.258a16.129 16.129 0 01-2.907-1.335.217.217 0 00-.118-.032l.01-.01zm12.723-6.48s-.097.022-.14.054a.225.225 0 00-.086.172v7.385a.219.219 0 00.226.226c1.991-.065 3.907-.323 5.672-.786.065-.011.108-.054.14-.108a.216.216 0 00.011-.183c-1.27-3.692-3.434-6.21-5.791-6.749h-.054l.022-.01zm-1.852 0h-.053c-2.358.539-4.521 3.068-5.791 6.76a.268.268 0 00.01.183c.033.054.076.097.14.108 1.776.452 3.681.72 5.673.785a.237.237 0 00.161-.064.219.219 0 00.065-.162v-7.383a.225.225 0 00-.086-.173.227.227 0 00-.14-.054h.021zm6.685 1.152a.226.226 0 00-.172.366c1.054 1.303 1.915 2.928 2.55 4.833a.233.233 0 00.119.13c.032.01.065.02.097.02h.075c.883-.333 1.69-.699 2.4-1.119a.225.225 0 00.065-.334 14.357 14.357 0 00-5.038-3.885c-.032-.01-.064-.022-.096-.022v.011zm-11.518 0s-.064 0-.096.022a14.233 14.233 0 00-5.038 3.885c-.043.054-.065.119-.043.183a.22.22 0 00.108.151c.71.41 1.517.786 2.41 1.109h.173a.233.233 0 00.118-.13c.646-1.915 1.496-3.54 2.551-4.832a.226.226 0 00-.172-.366l-.01-.022z" fill="#1E2248"/><path d="M48.58 12.73c0 .17-.07.33-.18.44a.628.628 0 01-.88 0 .628.628 0 010-.88.628.628 0 01.88 0c.11.11.18.27.18.44zM42.63 41.8a15.224 15.224 0 01-10.81-4.48 15.33 15.33 0 01-3.32-4.96c-.76-1.83-1.16-3.82-1.16-5.86 0-2.04.4-4.02 1.16-5.86a15.33 15.33 0 013.32-4.96 15.224 15.224 0 0110.81-4.48c.15 0 .28.06.38.16a.529.529 0 010 .76c-.1.1-.23.16-.38.16-1.9 0-3.74.37-5.44 1.07-1.7.7-3.27 1.75-4.61 3.09a14.16 14.16 0 00-3.09 4.61c-.7 1.7-1.07 3.54-1.07 5.44 0 1.9.37 3.74 1.07 5.45.7 1.7 1.75 3.26 3.09 4.61a14.16 14.16 0 004.61 3.09c1.7.7 3.54 1.07 5.44 1.07 1.9 0 3.74-.37 5.45-1.07 1.7-.7 3.27-1.75 4.61-3.09a14.16 14.16 0 003.09-4.61c.7-1.7 1.07-3.54 1.07-5.45 0-1.33-.19-2.65-.55-3.91a14.192 14.192 0 00-4.05-6.55c-.94-.87-2-1.61-3.14-2.19a.583.583 0 01-.27-.31.583.583 0 01.03-.41c.07-.14.18-.23.31-.27.13-.04.28-.03.41.03a15.3 15.3 0 016.01 5.54c.75 1.21 1.33 2.51 1.72 3.87.39 1.36.59 2.78.59 4.21 0 2.04-.4 4.02-1.16 5.86a15.33 15.33 0 01-3.32 4.96 15.237 15.237 0 01-10.82 4.48h.02zm3.88-29h-.07l-.07-.02c-.25-.07-.49-.13-.73-.18-.25-.05-.49-.1-.72-.14h-.03a.562.562 0 01-.35-.22.574.574 0 01-.1-.37v-.03a.55.55 0 01.62-.45c.27.04.54.09.8.15.26.05.52.12.79.19a.53.53 0 01.38.66.53.53 0 01-.52.4v.01z" fill="#1E2248"/></svg>